<svg id="IICE_LandingCompliancePenal_Nivel2_4" xmlns="http://www.w3.org/2000/svg" width="217.309" height="229.775" viewBox="0 0 217.309 229.775">
  <g id="Grupo_5287" data-name="Grupo 5287">
    <path id="Trazado_7535" data-name="Trazado 7535" d="M1171.665,361.227a15.9,15.9,0,0,1,3.322-7.37,17.307,17.307,0,0,1,6.3-4.292,13.059,13.059,0,0,1,1.949-.842,1.245,1.245,0,1,1,.664,2.4,6.6,6.6,0,0,0-2.573,1.679c-.367.5-.793.912-1.036,1.262-.359.527-.722,1.054-1.076,1.586a14.509,14.509,0,0,0-1.572,3.1,22.634,22.634,0,0,0-1.059,4.287c-.168,1.1-.275,2.635-.345,3.96-.04.757-.04,1.519-.093,2.277s-.151,1.528-.142,2.3a19.161,19.161,0,0,0,2.029,7.574,18.1,18.1,0,0,0,1.971,3.362c.412.536.744,1.107,1.191,1.621a6.686,6.686,0,0,0,1.63,1.315c.877.527.111,1.727-.784,1.338a13.343,13.343,0,0,1-1.958-1.081,1.132,1.132,0,0,1-1.116.27,4.89,4.89,0,0,1-2.086-1.16,12.184,12.184,0,0,1-1.586-1.789,18.244,18.244,0,0,1-2.117-3.526,25.04,25.04,0,0,1-2.135-9.319,37.9,37.9,0,0,1,.633-8.951Z" transform="translate(-1169.203 -319.091)" fill="#a2e8e0"/>
    <path id="Trazado_7536" data-name="Trazado 7536" d="M1166.513,440.232s0-.04.009-.062a1.143,1.143,0,0,1,.146-.337,1.216,1.216,0,0,1,.168-.2,1.1,1.1,0,0,1,.217-.159,1.29,1.29,0,0,1,1.023-.08,1.786,1.786,0,0,1,.3.133,1.6,1.6,0,0,1,.261.195.976.976,0,0,1,.12.115,2.025,2.025,0,0,1,.2.27.692.692,0,0,1,0,.7,2.127,2.127,0,0,1-.8.788,1.332,1.332,0,0,1-.651.142,1.454,1.454,0,0,1-.332-.058,1.191,1.191,0,0,1-.434-.253.349.349,0,0,1-.057-.058,1.043,1.043,0,0,1-.146-.2,1.1,1.1,0,0,1-.133-.487.992.992,0,0,1,.1-.452Z" transform="translate(-1151.407 -369.589)" fill="#e0f7f5"/>
    <path id="Trazado_7537" data-name="Trazado 7537" d="M1134.156,349.029a10.982,10.982,0,0,1,5.063-.5,15.164,15.164,0,0,1,4.872,1.7,16.355,16.355,0,0,1,7,8.052,28.423,28.423,0,0,1,2.6,11.556,15.376,15.376,0,0,1-.35,3.109c-.071,1.032-.177,2.064-.345,3.083a12.778,12.778,0,0,1-.855,2.994c-.438,1.014-1.121,1.882-1.608,2.87a.647.647,0,0,1-.54.354,13.282,13.282,0,0,1-4.407,4.4,14.739,14.739,0,0,1-3.477,1.493,10.5,10.5,0,0,1-1.741.6,18.314,18.314,0,0,1-3.114.345v-.031a1.288,1.288,0,0,1-1.267-.935,1.343,1.343,0,0,1,.917-1.617c.718-.257,1.333-.5,1.913-.762.43-.195.868-.35,1.311-.518.084-.031.164-.062.248-.1-.071.027-.244.111.075-.031.186-.084.372-.168.554-.261.337-.168.664-.359.983-.554.146-.093.3-.182.438-.279l.213-.146a.561.561,0,0,0,.058-.04,8.018,8.018,0,0,0,.833-.766c.129-.133.248-.275.368-.416.009-.009.067-.089.1-.128.062-.084.12-.168.177-.257.2-.306.39-.625.563-.948.1-.19.195-.385.288-.58.031-.066.062-.137.093-.2.013-.031.049-.12.062-.146a23.54,23.54,0,0,0,.78-2.392,47.214,47.214,0,0,0,1-4.691,33.242,33.242,0,0,0,.443-4.629,36.271,36.271,0,0,0-.213-4.854,22.136,22.136,0,0,0-1.01-4.54,27.457,27.457,0,0,0-1.754-4.394,6.649,6.649,0,0,0-1.559-2.046,8.459,8.459,0,0,0-2.494-1.253,18.77,18.77,0,0,0-6.046-1.24.662.662,0,0,1-.177-1.293Z" transform="translate(-1121.561 -318.953)" fill="#a2e8e0"/>
    <g id="Grupo_5282" data-name="Grupo 5282" transform="translate(62.078 180.269)">
      <path id="Trazado_7538" data-name="Trazado 7538" d="M1015.109,732.917c2.445-1.2,5.5-.855,7.539-2.928,5.541-5.931,2.325-15.834,2.494-23.218-.12-4.062-1.174-8.473.775-12.256.89-1.608,2.68-3.322,4.677-2.6,2.246.833,1.665,3.716,1.869,5.607,1.293,4.039.2,7.986-.527,11.981a56.79,56.79,0,0,0-.106,12.659c.08,3.371,4.1,7.4.221,10a39.582,39.582,0,0,1-11.091,3.512c-1.625.115-8.411.115-5.851-2.759Z" transform="translate(-1010.907 -690.481)" fill="#fff"/>
      <path id="Trazado_7539" data-name="Trazado 7539" d="M1021.635,694.745c.434,4.256,1.081,8.486,1.479,12.747a56,56,0,0,1,.168,12.375,28.216,28.216,0,0,1-1.183,5.718,7.089,7.089,0,0,1-3.074,3.973,13.131,13.131,0,0,1-5.426,1.732c-.868.089-1.732.049-2.6.084a2.593,2.593,0,0,0-1.975.7,1.642,1.642,0,0,0,.1,1.9,3.086,3.086,0,0,0,1.936,1.231,15.744,15.744,0,0,0,5.373.182,21.359,21.359,0,0,0,5.226-1.231,19.143,19.143,0,0,0,2.547-1.165,4.056,4.056,0,0,1,1.191-.594c.478-.071.89.292,1.329.434a4.9,4.9,0,0,0,4.447-.935c1.488-1.28-.067-3.109-.85-4.336a20.268,20.268,0,0,1-2.857-10.338c-.133-4.039.54-8.035.93-12.043a53.5,53.5,0,0,0-.3-12.349c-.142-1.036-.292-2.073-.43-3.114-.124-.935,1.47-1.152,1.652-.221a60.89,60.89,0,0,1,1.333,11.135c.022,3.734-.594,7.508-.926,11.255a35.881,35.881,0,0,0,.244,9.886,16.679,16.679,0,0,0,1.479,4.487c.722,1.408,1.878,2.684,1.975,4.31.106,1.856-1.563,3.1-3.114,3.707a7.382,7.382,0,0,1-5.041.013l.749-.1a20.52,20.52,0,0,1-12.734,3.038c-1.962-.19-4.376-.607-5.408-2.52a2.947,2.947,0,0,1,1.439-4.27,7.79,7.79,0,0,1,2.715-.279,12.534,12.534,0,0,0,3.512-.452,8.982,8.982,0,0,0,3.1-1.4,5.913,5.913,0,0,0,1.8-2.432,21.435,21.435,0,0,0,1.169-6.856,65,65,0,0,0-.049-7.255c-.151-2.808-.394-5.612-.531-8.42s-.221-5.74-.412-8.6c-.044-.656.943-.633,1.005,0h0Z" transform="translate(-1007.479 -688.89)" fill="#010d3d"/>
      <path id="Trazado_7540" data-name="Trazado 7540" d="M1031.7,775.169c-.518,1.369-1.843,1.953-3.092,2.52a41.528,41.528,0,0,1-4.916,1.944,16.768,16.768,0,0,1-10.214.284c-.673-.226-.381-1.3.3-1.072a15.253,15.253,0,0,0,9.235-.133,38.632,38.632,0,0,0,4.5-1.674c1.063-.461,2.755-.943,3.224-2.13.23-.589,1.191-.341.961.266h0Z" transform="translate(-1008.269 -736.622)" fill="#010d3d"/>
      <path id="Trazado_7541" data-name="Trazado 7541" d="M1009.187,781.546c-.2-1.648,2.906-1.936,4.1-1.307a6.93,6.93,0,0,1,1.7,1.165c2.387-.084,4.876-.558,7.264-.235a24.9,24.9,0,0,0,6.006-2.467c.921-.487,2.414-1.949,3.543-1.714,3.7-.04,1.639,6.967-4.691,5.111-1.47.213-7.911,3.083-9.408,3.238a12.557,12.557,0,0,1-4.341-.146c-1.727-.474-4.77-1.8-4.168-3.645Z" transform="translate(-1008.394 -737.954)" fill="#010d3d"/>
    </g>
    <g id="Grupo_5283" data-name="Grupo 5283" transform="translate(95.976 178.659)">
      <path id="Trazado_7542" data-name="Trazado 7542" d="M945.3,733.186c1.958-1.9,4.965-2.507,6.267-5.111,3.437-7.352-2.675-15.781-4.792-22.855-1.369-3.822-3.734-7.7-3.047-11.9.35-1.8,1.524-3.986,3.645-3.915,2.392.1,2.728,3.021,3.508,4.757,2.48,3.446,2.653,7.534,3.2,11.56a56.926,56.926,0,0,0,3.8,12.074c1.116,3.185,6.179,5.776,3.3,9.443a39.734,39.734,0,0,1-9.465,6.763c-1.51.611-7.964,2.706-6.418-.819Z" transform="translate(-941.702 -687.567)" fill="#fff"/>
      <path id="Trazado_7543" data-name="Trazado 7543" d="M936.591,692.91c1.763,4,3.721,7.911,5.452,11.923a56.628,56.628,0,0,1,3.933,11.627,26.878,26.878,0,0,1,.616,6.006,7.965,7.965,0,0,1-.545,2.706,7.211,7.211,0,0,1-1.617,2.268,13.635,13.635,0,0,1-4.708,3.034c-1.1.434-3.574.757-3.636,2.312a2.1,2.1,0,0,0,1.271,1.714,4.471,4.471,0,0,0,2.662.124,19.967,19.967,0,0,0,4.877-1.67,21.032,21.032,0,0,0,4.363-2.83,20.634,20.634,0,0,0,1.9-1.834c.359-.394.633-.771,1.227-.726a6.45,6.45,0,0,0,1.24.058A4.778,4.778,0,0,0,957.377,725c.571-1.426-1.426-2.719-2.374-3.5a20.293,20.293,0,0,1-5.882-8.916c-1.369-3.765-1.962-7.733-2.813-11.635a50.324,50.324,0,0,0-1.67-6.064,54.3,54.3,0,0,0-2.383-5.572c-.452-.935-.908-1.865-1.355-2.8s.921-1.807,1.453-.85a60.618,60.618,0,0,1,4.69,10.174c1.174,3.548,1.772,7.445,2.635,11.17a35.07,35.07,0,0,0,3.326,9.284,16.616,16.616,0,0,0,2.817,3.769c1.036,1.019,2.414,1.829,3.012,3.207.749,1.723-.314,3.477-1.643,4.571a7.545,7.545,0,0,1-4.934,1.652l.687-.284A20.478,20.478,0,0,1,942.4,735.85c-1.944.5-4.443.988-6.183-.323a3,3,0,0,1-.407-4.668,6.9,6.9,0,0,1,2.445-1.152,13.391,13.391,0,0,0,2.963-1.3c1.975-1.2,3.663-2.852,3.889-5.262a20.416,20.416,0,0,0-.961-6.918,64.887,64.887,0,0,0-2.285-6.94c-.992-2.591-2.086-5.142-3.065-7.738-1.036-2.751-2.033-5.519-3.118-8.247-.208-.527.691-.908.921-.39h0Z" transform="translate(-934.861 -685.253)" fill="#010d3d"/>
      <path id="Trazado_7544" data-name="Trazado 7544" d="M959.271,765.954c-.084,1.586-1.382,2.622-2.467,3.614a38.665,38.665,0,0,1-4.008,3.247,16.6,16.6,0,0,1-9.421,3.26.556.556,0,0,1,0-1.112,15.106,15.106,0,0,0,8.544-2.852,36.814,36.814,0,0,0,3.685-2.883c.948-.828,2.578-1.887,2.671-3.269.044-.633,1.032-.642,1,0h0Z" transform="translate(-938.583 -729.946)" fill="#010d3d"/>
      <path id="Trazado_7545" data-name="Trazado 7545" d="M937.254,778.714c-.7-1.506,2.166-2.737,3.49-2.507a6.965,6.965,0,0,1,1.975.585c2.246-.815,4.465-2.037,6.834-2.467a24.583,24.583,0,0,0,4.947-4.2c.726-.744,1.7-2.6,2.844-2.724,3.5-1.183,3.707,6.121-2.883,6.312-1.333.656-6.573,5.373-7.946,5.984a12.567,12.567,0,0,1-4.172,1.2C940.558,780.977,937.25,780.654,937.254,778.714Z" transform="translate(-936.547 -730.942)" fill="#010d3d"/>
    </g>
    <path id="Trazado_7546" data-name="Trazado 7546" d="M943.428,293.878a6.22,6.22,0,0,1,3.729-.6,7.285,7.285,0,0,1-.314-6.462,7.553,7.553,0,0,1,2.414-3.185c3.818-2.87,9.177-1.931,12.707.9a16.188,16.188,0,0,1,3.977,4.863,7.687,7.687,0,0,1,2.781-4.212,9.958,9.958,0,0,1,7.406-1.71c4.659.625,9.173,4.008,9.935,8.841a9.409,9.409,0,0,1-.567,5.071,7.8,7.8,0,0,1,3.632-.248c2.467.4,4.6,1.918,6.484,3.464,3.269,2.68,6.684,6.71,5.244,11.241a6.448,6.448,0,0,1-2.037,3.083,10.463,10.463,0,0,1,5.364,3.645,6.959,6.959,0,0,1,.381,7.5,5.879,5.879,0,0,1-1.2,1.462,10.517,10.517,0,0,1,5.621,7.056,10.095,10.095,0,0,1-8.867,11.879c1.479,3.007,2.693,6.653.625,9.638-1.625,2.339-4.434,2.715-7.02,2.166a8.678,8.678,0,0,1-1.183,9.013c-2.653,3.3-7.419,4.66-11.52,4.168a10.363,10.363,0,0,1-5.293-2.068,6.705,6.705,0,0,1-6.489,4.456,6.568,6.568,0,0,1-5.94-5.811c-4.744,1.435-9.784-2.888-12.84-6.072a17.04,17.04,0,0,1-4.336-7.166,10.361,10.361,0,0,1,.9-8.163,8.6,8.6,0,0,1,4.363-3.543c-2.777-1.781-5.457-4.026-6.754-7.02a9.979,9.979,0,0,1,1.679-10.174,9.611,9.611,0,0,1,3.543-2.72,10.006,10.006,0,0,1-1.909-12.495c-3.344-1.546-6.436-3.889-7.764-7.445-1.276-3.424-.168-7.663,3.251-9.35Z" transform="translate(-891.13 -281.886)" fill="#00b2e3"/>
    <path id="Trazado_7547" data-name="Trazado 7547" d="M947.116,623.527c1.541-10.059,3.3-20.082,4.513-30.185,1.369-7.056-.4-15.976,5.762-21.065,6.812-4.9,16.663-7.1,24.8-4.792,3.344.381,3.371,3.884,3.907,6.475a155.973,155.973,0,0,1,4.323,33.56c.323,12.9,2.471,15.648-11.923,19.493-10.138,2.157-20.538,2.6-30.863,3.025-1.874-.469-.527-5.014-.523-6.511Z" transform="translate(-875.745 -440.476)" fill="#010d3d"/>
    <path id="Trazado_7548" data-name="Trazado 7548" d="M956.231,387.471c-.035-.027-.066-.058-.1-.084a1.393,1.393,0,0,1,0-2.378,6.967,6.967,0,0,0,2.591-2.458,5.271,5.271,0,0,0,.558-1.683,4.667,4.667,0,0,0,.071-.731c0-.159,0-.314,0-.469-.009-.106-.013-.213-.022-.314,0-.053-.009-.1-.013-.124v.022a1.386,1.386,0,0,1,2.529-1.067,6.357,6.357,0,0,1,.966,3.185c.035.5.075,1.01.115,1.524a6.8,6.8,0,0,1,5.249,1.617,25.042,25.042,0,0,1,2.569,2.516c.9.961,1.8,1.927,2.671,2.914a120.18,120.18,0,0,1,9.2,11.9q1.176,1.727,2.29,3.5c.385.62.749,1.258,1.169,1.856.062.093.133.186.2.279A98.521,98.521,0,0,0,996.9,396.024c.744-.939,1.572-2.015,2.409-3.167q1.3-1.781,2.516-3.628,1.169-1.761,2.25-3.57c.757-1.258,1.4-2.937,2.755-3.663a6.124,6.124,0,0,1,2.808-.465c.412-.013.828-.035,1.245-.066.2-.018.412-.035.62-.058.035,0,.332-.04.385-.044a21.792,21.792,0,0,0,3.1-.651c-.381-.651-.762-1.3-1.129-1.958a8.312,8.312,0,0,1-.735-1.4c-.129-.412-.252-.842-.359-1.258a4.972,4.972,0,0,1-.12-.726c-.084,0-.173,0-.261,0-.221-.009-.447-.013-.669-.035-.842-.075-.523-.071-.332-.044-.261-.035-.527-.066-.788-.106a21.224,21.224,0,0,1-2.693-.571,22.634,22.634,0,0,1-5.368-2.237,24.738,24.738,0,0,1-8.291-7.729,15.7,15.7,0,0,1-2.494-5.567,9.964,9.964,0,0,1,.806-5.891,54.149,54.149,0,0,1,2.866-5.085,25.19,25.19,0,0,0,2.4-6.108,48.405,48.405,0,0,0,1.426-7.831,57.99,57.99,0,0,0,.137-8.039.574.574,0,0,1,.314-.562c.133.195.27.39.416.576.421.54.877,1.05,1.346,1.546a8.506,8.506,0,0,0,.492.757c.2.266.6.881.988.912a.491.491,0,0,0,.447-.283.691.691,0,0,0,.089-.071,5.926,5.926,0,0,0,1.541-4.057,17.284,17.284,0,0,0,0-1.975,18.484,18.484,0,0,0,1.6,4.11,10.861,10.861,0,0,0,2.471,3.362,1.881,1.881,0,0,0,2.556.208,1.47,1.47,0,0,0,.5-.359,3.413,3.413,0,0,0,.691-1.785,16.725,16.725,0,0,0,.177-2.1c.053-.31.106-.638.146-.974a23.318,23.318,0,0,0,.926,2.325,12.9,12.9,0,0,0,2.356,4.3,13.15,13.15,0,0,0,1.214,1.271c.363.337.815.811,1.209.275a3.505,3.505,0,0,0,.527-1.351,13.009,13.009,0,0,0,.731-2.206c.08-.345.146-.7.195-1.054h.031a19.257,19.257,0,0,0,.828,2.534c.031.075.066.146.1.221a13.252,13.252,0,0,0,3.734,6.6c.071-.12.137-.244.2-.368a9.02,9.02,0,0,0,.881-2.773.524.524,0,0,1,.7-.443c.022.235.044.465.067.7a21.164,21.164,0,0,0,.531,3.424,19.624,19.624,0,0,0,1.156,2.994c.035.124.062.252.1.376a9.858,9.858,0,0,0,2.228,4.5,6.694,6.694,0,0,0,.633-2.13c.106-.855,0-1.8.788-2.37,1.435-1.023,3.193.412,4.026,1.532a8.147,8.147,0,0,1,1.528,4.77c-.009,1.634-.328,3.986-2.21,4.469a3.065,3.065,0,0,1-2.888-1.094,10.819,10.819,0,0,0-1.094-1.112.339.339,0,0,1-.049-.035,20.467,20.467,0,0,1-1.391,11.715,21.489,21.489,0,0,1-8.548,8.832,28.85,28.85,0,0,1-3.193,1.679c-.594.266-1.253.381-1.869.6-.182.066-.359.142-.536.226a1.6,1.6,0,0,1,.306.345c.252.416.39.877.682,1.271.607.828,1.249,1.639,1.9,2.44.412.5.93,1.493,1.661,1.462,3.242-.142,6.444-2.378,9.727-1.267a8.076,8.076,0,0,1,3.977,3.41,25.8,25.8,0,0,1,2.538,4.757,63.055,63.055,0,0,1,2.852,9.873c.784,3.313,1.59,6.63,2.56,9.89a61.2,61.2,0,0,0,3.459,9.284,31.583,31.583,0,0,0,2.56,4.3c1,1.426,2.153,2.733,3.216,4.11a18.311,18.311,0,0,1,2.653,4.518,25.864,25.864,0,0,1,1.333,5.226c.239,1.417.753,3.158.124,4.54a1.927,1.927,0,0,1-.177.31c-.2.049-.412.1-.616.146q-1.727.4-3.433.877a77.283,77.283,0,0,1-12.225,2.489c-1.625.182-3.207.66-4.845.722a3.267,3.267,0,0,1-2.188-.514c-.669-.5-1.182-1.183-1.847-1.692-.323-.248-.771.093-.771.443,0,.638.19,2.051-.412,2.454a2.76,2.76,0,0,1-.806.3c-.4.115-.793.257-1.192.368-1.457.4-2.963.6-4.425.974a3.545,3.545,0,0,1-1.169-.155c-1.094-.425-1.426-1.687-1.736-2.7a26.446,26.446,0,0,1-.979-7.14c-.053-2.489.089-4.978-.182-7.459a21.914,21.914,0,0,0-1.634-6.148,41.621,41.621,0,0,0-7.326-10.945,48.8,48.8,0,0,0-4.567-4.854,4.862,4.862,0,0,0-2.538-1.333,2.385,2.385,0,0,0-2.122,1.311,65.459,65.459,0,0,1-4.093,5.59,41.533,41.533,0,0,1-4.925,4.863c-.85.709-1.86,1.789-3.021,1.878-1.267.1-2.148-.957-2.981-1.754q-2.664-2.558-5.218-5.218-5.1-5.322-9.709-11.1-2.325-2.917-4.518-5.935c-.328-.447-.633-.935-.988-1.36-.084-.1-.186-.186-.27-.283a.1.1,0,0,0-.049-.022c-.058.031-.195.111-.235.137-.018.013-.035.022-.049.031-.071.058-.137.115-.208.177-.283.252-.554.531-.846.78a5.422,5.422,0,0,1-.89.62,4.327,4.327,0,0,1-.186,1.763,1.723,1.723,0,0,1-.673,1.231,1.319,1.319,0,0,1-1.59.159,1.192,1.192,0,0,1-.771-1.7,1.415,1.415,0,0,0,.115-.314c-.191-.133-.434-.252-.664-.39a2.953,2.953,0,0,1-1.67-2.529,1.133,1.133,0,0,1,.027-.244,1.108,1.108,0,0,1,.031-.54c.018-.053.04-.337.062-.385a1.2,1.2,0,0,1-.075-.279c-.031-.058-.066-.115-.1-.173-.018-.018-.04-.044-.062-.066a.307.307,0,0,1-.04-.035s-.013,0-.044-.018a2.526,2.526,0,0,1-.306-.195,1.665,1.665,0,0,1-.784-1.634,1.831,1.831,0,0,1,.536-1.023Z" transform="translate(-944.832 -304.768)" fill="#fff"/>
    <path id="Trazado_7549" data-name="Trazado 7549" d="M1151.837,361.309c1.059-3.065,2.635-6.068,5.612-7.636a10.013,10.013,0,0,1,8.606-.434,10.367,10.367,0,0,1,5.864,6.449,29.453,29.453,0,0,1,.939,5.488c.195,1.772.328,3.552.376,5.333a33.471,33.471,0,0,1-1.152,10.546c-.992,3.322-2.706,6.91-6.289,7.862a5.766,5.766,0,0,1-2.166.133,10.282,10.282,0,0,1-4.234-1.112,14.965,14.965,0,0,1-6.484-7.211A25.833,25.833,0,0,1,1151.837,361.309Z" transform="translate(-1148.543 -321.206)" fill="#fff" opacity="0.5"/>
    <path id="Trazado_7550" data-name="Trazado 7550" d="M1029.743,451.289a.729.729,0,0,1,.815.332,4.98,4.98,0,0,0,1.705,1.621,1.71,1.71,0,0,1,.54.217,1.446,1.446,0,0,1,.407.08,5.9,5.9,0,0,1,1.369.713,2.329,2.329,0,0,1,.248.08l.035-.035a1.879,1.879,0,0,0,.288-.563,15.492,15.492,0,0,0,.545-1.453,14.611,14.611,0,0,0,.633-3.114.714.714,0,0,1,.687-.687c.567-.071,1.129-.133,1.7-.195s.828.629.6,1.05a16.734,16.734,0,0,0-1.019,2.436,31.719,31.719,0,0,1-1.559,5.709,45.557,45.557,0,0,1-3.885,7.866.616.616,0,0,1-1.054,0,26.074,26.074,0,0,1-2.476-7.481c-.23-1.293-.4-2.6-.576-3.9-.137-1.05-.168-2.246,1-2.68Z" transform="translate(-960.751 -374.582)" fill="#f9d0dd"/>
    <path id="Trazado_7551" data-name="Trazado 7551" d="M1166.922,450.4l.518-1.568a2.9,2.9,0,0,1,1.063-1.763.634.634,0,0,1,.341-.381.575.575,0,0,1,.726.239,13.238,13.238,0,0,1,.642,1.71c.08.275.159.549.226.824.035.146.067.288.089.438a1.531,1.531,0,0,1,.044.647,1.112,1.112,0,0,1-.868.647,2.811,2.811,0,0,1-.943,0,.159.159,0,0,1-.049-.009.752.752,0,0,1-.443-.049h-.128c-.009,0-.027.009-.058.013-.031.1-.066.19-.1.283a.667.667,0,0,1-1.284,0,1.232,1.232,0,0,1,.226-1.023Z" transform="translate(-1153.068 -373.67)" fill="#64d8cc"/>
    <path id="Trazado_7552" data-name="Trazado 7552" d="M1167.025,485.215a1.268,1.268,0,0,1,.129-.323,1.25,1.25,0,0,1,.208-.275,1.032,1.032,0,0,1,.275-.2,1.11,1.11,0,0,1,.5-.133.984.984,0,0,1,.306.053c.031-.009.057-.022.089-.031a1.3,1.3,0,0,1,1.475.452,1.022,1.022,0,0,1,.106.731,1.091,1.091,0,0,1-.137.35,1.732,1.732,0,0,1-.363.438,1.861,1.861,0,0,1-.651.39,1.577,1.577,0,0,1-.514.1,1.47,1.47,0,0,1-1.094-.407,1.316,1.316,0,0,1-.217-.279,1.2,1.2,0,0,1-.142-.509,1.163,1.163,0,0,1,.035-.35Z" transform="translate(-1152.751 -394.615)" fill="#64d8cc"/>
    <path id="Trazado_7553" data-name="Trazado 7553" d="M1180.887,353.517c-4.81,1.9-7.051,7.623-7.818,12.362a34.262,34.262,0,0,0-.23,8.779,25.53,25.53,0,0,0,2.011,7.942,15.14,15.14,0,0,0,2.135,3.512,10.3,10.3,0,0,0,1.311,1.324,7.515,7.515,0,0,1,1.315,1.253.183.183,0,0,1-.155.275,4.761,4.761,0,0,1-2.777-1.874,14.708,14.708,0,0,1-2.1-3.118,25.052,25.052,0,0,1-2.37-8.132,31.378,31.378,0,0,1,.133-9.062,24.422,24.422,0,0,1,2.6-8.057,11.68,11.68,0,0,1,5.886-5.421c.137-.053.195.168.062.221h0Z" transform="translate(-1165.776 -321.665)" fill="#999eb1"/>
    <path id="Trazado_7554" data-name="Trazado 7554" d="M1033.539,346.145a2.639,2.639,0,0,1,.718-2.4,3.532,3.532,0,0,1,2.467-.974c2.113,0,3.535,1.732,4.243,3.543a10.473,10.473,0,0,1,.4,6.272c-.368,1.426-1.121,3.083-2.56,3.69-1.993.837-3.658-.713-4.806-2.17l1-.58a20.266,20.266,0,0,1-3.38,16.716,19.483,19.483,0,0,1-6.856,5.86,21.9,21.9,0,0,1-9.425,2.277,24.85,24.85,0,0,1-17.845-6.927,15.81,15.81,0,0,1-4.615-8.717,8.546,8.546,0,0,1-.137-1.3c0-.434.106-.873.133-1.307a17.511,17.511,0,0,1,.283-2.542,14.1,14.1,0,0,1,1.962-4.615c.89-1.413,1.993-2.861,2.861-4.38a14.819,14.819,0,0,0,1.634-4.908c.151-.868.244-1.75.319-2.626s.044-1.763.1-2.644c.124-1.98.186-3.973.408-5.948.111-1.019.279-2.029.452-3.038s1.656-.7,1.674.226a53.786,53.786,0,0,1-.23,5.731l-.252,2.813c-.075.864-.235,1.714-.323,2.573-.341,3.282-.9,6.817-2.963,9.509a42.743,42.743,0,0,0-3,3.969,9.61,9.61,0,0,0-1.214,4.633,8.158,8.158,0,0,0,.009,1.187,9.264,9.264,0,0,0,.27,1.085c.186.78.323,1.55.58,2.308a16.16,16.16,0,0,0,2.055,4.039,20.794,20.794,0,0,0,14.979,8.517,20.084,20.084,0,0,0,15.936-5.346c3.885-3.791,6.391-9.328,5.8-14.807a16.331,16.331,0,0,0-.363-2.02.6.6,0,0,1,1.094-.461c.85,1.1,2.463,2.852,3.849,1.448,1.169-1.187.988-3.016.793-4.522s-.629-3.557-1.918-4.558a1.8,1.8,0,0,0-.753-.363c.213.044-.252,0-.314,0,.221-.013-.151.031-.182.04a4.753,4.753,0,0,0-.5.151c.252-.1-.31.2-.111.066a1.6,1.6,0,0,0-.376.319c.053-.075-.084.168-.089.186-.252.788-1.643.974-1.794,0h0Z" transform="translate(-947.109 -308.017)" fill="#010d3d"/>
    <path id="Trazado_7555" data-name="Trazado 7555" d="M1040.812,437.138c1.342,1.86,2.7,3.7,4.1,5.519a1.557,1.557,0,0,1,.425,1.329,13.508,13.508,0,0,1-.456,1.572,22.687,22.687,0,0,1-1.2,3.012.6.6,0,0,1-.8.213,18.909,18.909,0,0,1-2.746-1.82,7.421,7.421,0,0,1-1.958-2.821,23.623,23.623,0,0,0-1.781-3.211,17.273,17.273,0,0,0-1.156-1.51,14.527,14.527,0,0,1-1.276-1.555c-.527-.859.744-1.9,1.426-1.1a24.643,24.643,0,0,1,1.891,3.074,31.049,31.049,0,0,1,1.807,3.2,9.2,9.2,0,0,0,1.714,2.9,12.477,12.477,0,0,0,2.675,1.838l-.864.35c.323-.895.607-1.816.877-2.733a6.617,6.617,0,0,0,.359-1.391.867.867,0,0,0-.195-.633l-.394-.647c-1.054-1.723-2.166-3.406-3.282-5.089-.345-.523.478-.983.833-.487h0Z" transform="translate(-969.007 -368.006)" fill="#010d3d"/>
    <path id="Trazado_7556" data-name="Trazado 7556" d="M953.576,445.766c1.723.368,3.406-.244,5.067-.638a9.141,9.141,0,0,1,4.7-.089c3.061.895,5.142,3.477,6.467,6.25a36.878,36.878,0,0,1,1.8,4.947q.432,1.382.842,2.777c.275.93.625,1.8.895,2.724,1.107,3.8,2.219,7.609,3.286,11.427.935,3.344,1.82,6.808,3.61,9.815s4.336,5.076,5.988,7.99a23.37,23.37,0,0,1,1.958,4.921c.549,1.856,1.059,3.725,1.586,5.585a13.387,13.387,0,0,1,.633,2.782,2.137,2.137,0,0,1-.97,1.9,13.173,13.173,0,0,1-4.456,1.608,78.906,78.906,0,0,1-11.077,2.374,34.787,34.787,0,0,1-5.678.279,17.127,17.127,0,0,1-2.737-.23,2.2,2.2,0,0,1-.881-.558c-.35-.283-.687-.585-1.005-.9a15.526,15.526,0,0,1-1.639-1.936c-.39-.54.514-1.067.895-.523a13.233,13.233,0,0,0,1.595,1.882c.275.27.563.527.859.775a2.562,2.562,0,0,0,1.55.43,32.1,32.1,0,0,0,5.262-.013,52.848,52.848,0,0,0,10.7-2.17c1.625-.483,3.3-.9,4.89-1.5.567-.213,1.068-.461,1.045-1.138a4.414,4.414,0,0,0-.323-1.2c-.151-.452-.284-.912-.416-1.373-.5-1.732-1.005-3.464-1.524-5.187a23.557,23.557,0,0,0-1.807-4.673c-1.524-2.759-3.907-4.93-5.731-7.481a28.779,28.779,0,0,1-3.92-9.222c-.979-3.526-1.9-7.065-2.83-10.608l-.7-2.662c-.244-.926-.39-1.869-.629-2.795-.43-1.661-.8-3.34-1.3-4.983-.886-2.937-2.3-5.838-5.058-7.428a6.583,6.583,0,0,0-4.208-.837c-1.6.2-3.145.726-4.757.859a7.3,7.3,0,0,1-2.259-.151c-.673-.159-.385-1.174.283-1.032h0Z" transform="translate(-878.215 -372.625)" fill="#010d3d"/>
    <path id="Trazado_7557" data-name="Trazado 7557" d="M1029.746,556.49a7.064,7.064,0,0,1,.04,3.543,3.66,3.66,0,0,1-2.68,2.268,35.112,35.112,0,0,1-4.358.678,3.569,3.569,0,0,1-1.9.027c-.633-.314-.726-1.054-.877-1.67a72.021,72.021,0,0,1-1.869-9.129c-.346-3.034-.385-6.1-.85-9.129a21,21,0,0,0-1.1-4.31,11.949,11.949,0,0,0-.908-1.851,9.179,9.179,0,0,1-1.174-2.037c-.226-.775.594-1.2,1.214-.93,1.09.461,1.781,1.843,2.29,2.857a16.818,16.818,0,0,1,1.284,3.477,26.448,26.448,0,0,1,.6,3.813c.133,1.426.062,2.839.1,4.265s.058,2.848.168,4.27.341,2.813.58,4.212.509,2.786.828,4.168c.044.19.089.828.239.935.075.053.558-.106.678-.128.74-.142,1.479-.266,2.224-.385,1.174-.195,2.91-.217,3.782-1.152.815-.873.682-2.383.527-3.464-.106-.749,1.028-1.094,1.16-.319h0Z" transform="translate(-944.871 -422.262)" fill="#010d3d"/>
    <path id="Trazado_7558" data-name="Trazado 7558" d="M1038.652,447.85c-1.457,1.453-1.758,3.508-1.865,5.474-.058,1.081-.053,2.161-.142,3.242s-.257,2.082-.443,3.114a59.24,59.24,0,0,0-.952,13.062.523.523,0,0,1-.651.5,4.131,4.131,0,0,1-2.755-2.325c-.806-1.431-1.453-2.976-2.13-4.469a42.907,42.907,0,0,1-3.335-9.647,23.831,23.831,0,0,1-.4-5.8c.04-.691,1.116-.7,1.081,0a29.331,29.331,0,0,0,2.308,11.95c.74,1.918,1.59,3.791,2.458,5.652.638,1.36,1.338,3.384,3.043,3.645l-.651.5a59.3,59.3,0,0,1,1.059-13.536,28.191,28.191,0,0,0,.438-3.5c.062-1.178.049-2.308.19-3.455a7.931,7.931,0,0,1,2.2-4.943c.359-.337.895.195.545.545h0Z" transform="translate(-958.906 -373.978)" fill="#010d3d"/>
    <path id="Trazado_7559" data-name="Trazado 7559" d="M1037.682,466.564c-2.272-.053-3.769-1.913-4.952-3.632h.824a7.623,7.623,0,0,1-2.219,3.313,3.547,3.547,0,0,1-1.625.678c-.629.084-1.271,0-1.9.075-.275.031-.341-.319-.2-.487a1.628,1.628,0,0,1,1.36-.5,2.913,2.913,0,0,0,1.688-.465,6.756,6.756,0,0,0,2.073-3.083c.155-.354.642-.261.824,0,1,1.475,2.157,3.238,4.128,3.313a.4.4,0,0,1,0,.8h0Z" transform="translate(-958.915 -382.35)" fill="#010d3d"/>
    <path id="Trazado_7560" data-name="Trazado 7560" d="M1060.165,454.406l-3.309.771a12.635,12.635,0,0,1-3.034.478,1.123,1.123,0,0,0-1.107.58c-.328.443-.651.921-.979,1.377s-.656.917-.974,1.382a7.344,7.344,0,0,1-.983,1.338.7.7,0,0,1-1.1-.85,8.558,8.558,0,0,1,1.045-1.462c.345-.47.709-.97,1.063-1.453.6-.819,1.151-1.931,2.237-2.139a10,10,0,0,1,1.457-.031,11.731,11.731,0,0,0,1.745-.319l3.641-.766c.713-.151,1.023.935.306,1.1h0Z" transform="translate(-990.766 -377.376)" fill="#010d3d"/>
    <path id="Trazado_7561" data-name="Trazado 7561" d="M1106.89,466.144c-3.658,6.506-8.371,12.313-13.071,18.08a16.919,16.919,0,0,1-4.168,4.013.646.646,0,0,1-.673,0,17.635,17.635,0,0,1-3.566-3.8c-1.223-1.683-2.312-3.481-3.464-5.213s-2.268-3.441-3.4-5.164c-1.151-1.75-2.316-3.5-3.335-5.333l.873.354a19.926,19.926,0,0,0-7.171,2.675l.252-.966c4.088,6.763,9.306,12.654,14.625,18.465,1.351,1.475,2.693,2.976,4.11,4.394q1.023,1.03,2.055,2.051c.195.195.478.567.771.616a1.336,1.336,0,0,0,.833-.31,23.245,23.245,0,0,0,3.853-3.18c1.187-1.147,2.4-2.37,3.588-3.565a45.992,45.992,0,0,1,4.181-3.756,20.492,20.492,0,0,1,4.885-3.03c.877-.354,1.409,1.041.633,1.5a25.532,25.532,0,0,0-4.181,2.985c-1.28,1.16-2.449,2.436-3.636,3.7a46.167,46.167,0,0,1-7.791,7.082,3.659,3.659,0,0,1-2.941.749,4.94,4.94,0,0,1-2.184-1.781c-1.373-1.555-2.777-3.078-4.181-4.6-2.764-3.007-5.439-6.072-7.955-9.292a112.334,112.334,0,0,1-7.88-11.3.716.716,0,0,1,.252-.966,32.322,32.322,0,0,1,7.472-2.945.805.805,0,0,1,.873.354c2.441,3.171,4.562,6.626,6.746,9.979l3.255,5c.966,1.484,1.648,3.065,3.1,4.172h-.673a14.747,14.747,0,0,0,3.636-3.4q1.754-2.093,3.481-4.208c2.285-2.8,4.518-5.647,6.586-8.615q1.774-2.545,3.34-5.226a.5.5,0,0,1,.868.509h0Z" transform="translate(-1047.792 -384.119)" fill="#010d3d"/>
    <g id="Grupo_5284" data-name="Grupo 5284" transform="translate(42.455 55.724)">
      <path id="Trazado_7562" data-name="Trazado 7562" d="M1012.554,419.595a1.677,1.677,0,0,1,.718-.607,3.059,3.059,0,0,0-.323-1.183c-.328-.633-.824-1.169-.562-1.936a1.605,1.605,0,0,1,1.763-.952c-.031-.74-.04-1.475-.049-2.219a.877.877,0,0,1,1.1-.837,13.521,13.521,0,0,1,8.783,7.933,12.022,12.022,0,0,1,.438,1.351,1.14,1.14,0,0,1,.368-.084,1.515,1.515,0,0,1,1.2,2.405,1.135,1.135,0,0,1-.018.173,1,1,0,0,1-.213.434c-.2,1.878-.381,3.752-.554,5.629a6.053,6.053,0,0,0-.04,1.5,9.358,9.358,0,0,0,.514,1.577c.345.983.638,1.984.9,2.99,1.107,4.132,2.188,8.256,3.464,12.34q.9,2.877,1.838,5.74a24.95,24.95,0,0,0,7.556-6.834,9.6,9.6,0,0,0,1.347-2.383c.337-.939.864-1.816,1.267-2.733.762-1.745,1.391-3.539,2.184-5.271a19.661,19.661,0,0,1,1.422-2.6,5.2,5.2,0,0,1,1.913-3.092,3.247,3.247,0,0,1,4.217.452,8.8,8.8,0,0,1,2.1,4.513,19.117,19.117,0,0,1,.159,5.944,10.993,10.993,0,0,1-.6,2.773,26.122,26.122,0,0,1-1.138,2.635,32.768,32.768,0,0,1-2.954,4.784,81.368,81.368,0,0,1-7.543,8.646c-1.333,1.355-2.706,2.675-4.088,3.982-1.364,1.3-2.688,2.693-4.159,3.871a7.637,7.637,0,0,1-2.206,1.311c-.647.226-1.878.514-2.361-.124a7.293,7.293,0,0,1-.655-1.267c-.226-.456-.439-.921-.656-1.382-.421-.886-.806-1.785-1.174-2.693a119.757,119.757,0,0,1-3.787-11.489c-1.16-4-2.343-8.008-3.216-12.087a88.152,88.152,0,0,1-1.816-12.318c-.058-.819.084-1.67-.5-2.308-.687-.757-1.413-1.484-2.117-2.228-.678-.722-1.488-1.333-2.135-2.082A1.886,1.886,0,0,1,1012.554,419.595Z" transform="translate(-1010.762 -410)" fill="#fff"/>
      <path id="Trazado_7563" data-name="Trazado 7563" d="M1043.086,456.688c-.337.89-.749,1.785-1,2.706-.129.465-.155.948-.3,1.409s-.332.9-.514,1.346c-.722,1.794-1.493,3.57-2.347,5.3a34.318,34.318,0,0,1-5.962,8.695,22.9,22.9,0,0,1-2.184,1.958c-.363.288-.753.523-1.134.788a1.6,1.6,0,0,1-1.258.412.411.411,0,0,1-.283-.5,1.4,1.4,0,0,1,.58-.859c.328-.275.607-.6.912-.89.6-.571,1.174-1.152,1.719-1.776a45.46,45.46,0,0,0,3.043-3.845,56.164,56.164,0,0,0,5.049-9.284,18.526,18.526,0,0,1,1.355-2.759,16.706,16.706,0,0,0,1.311-2.976c.244-.616,1.253-.359,1.01.279h0Z" transform="translate(-1006.671 -434.643)" fill="#010d3d"/>
      <path id="Trazado_7564" data-name="Trazado 7564" d="M1030.222,480.078c-.407-1.09-.819-2.184-1.253-3.264s-.78-2.184-1.125-3.3c-.687-2.215-1.475-4.411-2.082-6.648-1.209-4.478-2.148-9.044-3.18-13.562l.8.452c-2.6.757-5.169,1.626-7.751,2.44l.523-.682c.5,5.049,2.582,9.8,3.827,14.683.642,2.511.988,5.1,1.763,7.578s1.949,5,2.932,7.5c.5,1.258.966,2.507,1.4,3.787.208.62.465,1.222.682,1.843a4.576,4.576,0,0,0,.514,1.413c.651.793,1.949-.186,2.551-.594.952-.642,1.887-1.311,2.795-2.015a65.419,65.419,0,0,0,9.983-9.571,61.059,61.059,0,0,0,4.615-6.285,22.065,22.065,0,0,0,3.176-7.472c.066-.319.487-.2.518.071.306,2.564-.842,4.925-2.1,7.087a58.413,58.413,0,0,1-4.181,6.148,62.905,62.905,0,0,1-10.169,10.537c-.948.771-1.918,1.51-2.9,2.241a8.532,8.532,0,0,1-3.18,1.785c-3.025.633-3.791-2.773-4.814-4.837-.647-1.3-1.143-2.7-1.67-4.053s-1.014-2.622-1.51-3.938a34.459,34.459,0,0,1-1.289-4.017c-.332-1.369-.545-2.693-.775-4.048-1.014-5.988-3.083-11.773-3.579-17.85a.714.714,0,0,1,.523-.682c2.6-.771,5.209-1.5,7.782-2.325a.654.654,0,0,1,.8.452q.87,3.368,1.816,6.719c.629,2.232,1.355,4.438,1.98,6.675s1.1,4.509,1.71,6.75c.306,1.125.616,2.237.846,3.379s.492,2.272.766,3.4a.379.379,0,0,1-.731.2h0Z" transform="translate(-1008.583 -432.64)" fill="#010d3d"/>
      <path id="Trazado_7565" data-name="Trazado 7565" d="M1074.78,443.329a34.4,34.4,0,0,0,.7-3.862c.071-.625.129-1.249.173-1.878.022-.337.04-.678.057-1.014a1.187,1.187,0,0,1,.275-.939.513.513,0,0,1,.718,0c.43.5.186,1.346.12,1.953-.071.678-.164,1.351-.266,2.024-.208,1.338-.469,2.666-.8,3.982a.5.5,0,0,1-.97-.266h0Z" transform="translate(-1061.175 -423.18)" fill="#010d3d"/>
      <path id="Trazado_7566" data-name="Trazado 7566" d="M1090.1,419.95a6.019,6.019,0,0,0-.08-1.293c-.1-.345-.306-.766-.439-1.1-.168-.43-.381-.833-.523-1.28a4.667,4.667,0,0,0-.363-.868,10.4,10.4,0,0,0-3.477-3.069,15.762,15.762,0,0,0-4.544-2.476c-.261-.066-.461-.031-.691-.1-.12-.035-.159,0-.066-.009.19-.031-.115-.359.106.04s.4.859.6,1.276c.093.19.19.381.275.576.12.27.142.563.27.824a.748.748,0,0,1-1.014,1.014c-.306-.177-.921-.585-1.3-.425-.354.151-.151.664-.022.912a9.93,9.93,0,0,0,.873,1.2,3.122,3.122,0,0,1,.6,1.586c.071.793-1.054.988-1.422.385-.009-.013.111-.053-.08-.027a.64.64,0,0,0-.2.058.513.513,0,0,0-.239.514,3.777,3.777,0,0,0,.957,2,7.854,7.854,0,0,0,1.563,1.55c.283.213.589.385.89.571.319.19.571.447.873.664a3.286,3.286,0,0,1,1.333,1.626,11.66,11.66,0,0,1,.368,2.383c.058.589.089,1.178.146,1.767a9.146,9.146,0,0,1,.1,2.17.578.578,0,0,1-1.045.137,7.142,7.142,0,0,1-.465-2.578c-.053-.722-.111-1.44-.208-2.157a4.33,4.33,0,0,0-.337-1.537,1.655,1.655,0,0,0-1-.66,6.03,6.03,0,0,1-2.276-1.453c-1.24-1.138-2.768-3.078-2.472-4.877a2,2,0,0,1,1.431-1.643,1.676,1.676,0,0,1,1.971.718l-1.422.385c-.053-.735-.8-1.3-1.143-1.9a2.653,2.653,0,0,1-.363-1.98c.478-1.758,2.449-1.346,3.632-.664l-1.014,1.014c-.2-.412-.509-.762-.718-1.178-.221-.438-.447-.873-.664-1.315a1.967,1.967,0,0,1,.031-2.184c1.032-1.289,2.821-.837,4.119-.319a27.05,27.05,0,0,1,4.664,2.609,10.573,10.573,0,0,1,3.6,3.379,6.931,6.931,0,0,1,.6,1.382,3.786,3.786,0,0,1,.1,1.559,7.077,7.077,0,0,1-.244,1.329,6.731,6.731,0,0,0-.1,1.47.587.587,0,0,1-1.174,0h0Z" transform="translate(-1076.761 -407.698)" fill="#010d3d"/>
    </g>
    <path id="Trazado_7567" data-name="Trazado 7567" d="M1157.939,463.2c-.669-.943-1.36-1.874-2.02-2.821a5.257,5.257,0,0,0-2.179-2.006,14.828,14.828,0,0,0-2.9-.824,28.7,28.7,0,0,0-3.415-.549c-.518-.049-.957-.071-1.254.416a4.4,4.4,0,0,0-.447,1.355,5.836,5.836,0,0,0-.049,2.9c.213.678,1.1,1.581,1.812.908a3.108,3.108,0,0,0,.558-.979,4.025,4.025,0,0,1,.62-.979.61.61,0,0,1,1.014.27,2.751,2.751,0,0,0,2.573,2.139c.7.111.434,1.067-.155,1.134a3.64,3.64,0,0,1-3.592-2.945l1.014.27c-.514.567-.651,1.377-1.218,1.913a2.025,2.025,0,0,1-2.139.359c-1.869-.735-1.918-3-1.67-4.686a5.325,5.325,0,0,1,.921-2.613c.682-.806,1.7-.687,2.644-.58a21.955,21.955,0,0,1,6.316,1.4,5.576,5.576,0,0,1,2.334,2.1c.731,1.081,1.4,2.21,2.095,3.313.354.554-.5,1.028-.868.509h0Z" transform="translate(-1131.498 -378.769)" fill="#010d3d"/>
    <path id="Trazado_7568" data-name="Trazado 7568" d="M1165.6,460.962c-.461.018-1.3.013-1.528.527a.764.764,0,0,0,.261.842c.288.257.647.2,1.01.252.8.115.775,1.453,0,1.59-.292.053-1.369.159-1.271.669a2.32,2.32,0,0,0,1.209.917c.735.018,1.329,1.059.66,1.595a2.212,2.212,0,0,1-.58.345c-.1.04-.168.027-.23.12-.115.177,0,.5.1.651.447.633,1.617.749,2.312.886a3.9,3.9,0,0,0,2.551-.159,1.022,1.022,0,0,0,.576-.735.513.513,0,0,0-.385-.567c-.753-.173-.483-1.156.168-1.24.337-.044.084-.376-.089-.416-.784-.19-.452-1.4.332-1.209a1.467,1.467,0,0,1-.08,2.87V466.68a1.878,1.878,0,0,1,1.138,2.724,3.667,3.667,0,0,1-3.654,1.559,6.264,6.264,0,0,1-3.853-1.413,2.022,2.022,0,0,1,.3-3.176l-.27.27a.668.668,0,0,0,.1-.2l.239.908c-.363-.461-.939-.749-1.333-1.2a2.028,2.028,0,0,1-.585-1.377c.031-1.218,1.214-1.829,2.2-2.192v1.59c-1.076-.416-2.272-1.586-1.944-2.852.306-1.183,1.594-1.408,2.64-1.426a.534.534,0,0,1,0,1.067h0Z" transform="translate(-1152.687 -381.049)" fill="#010d3d"/>
    <path id="Trazado_7569" data-name="Trazado 7569" d="M1160.725,479.624a.022.022,0,0,1,0-.044.022.022,0,0,1,0,.044Z" transform="translate(-1140.578 -392.018)" fill="#010d3d"/>
    <path id="Trazado_7570" data-name="Trazado 7570" d="M1161.078,479.045l.359-.12a3.421,3.421,0,0,1,.368-.089.39.39,0,0,1,.235.018.352.352,0,0,1,.173.146.428.428,0,0,1,.049.182.355.355,0,0,1-.106.252,3.365,3.365,0,0,1-.368.3l-.323.221a.5.5,0,0,1-.607-.08.341.341,0,0,1-.1-.159.431.431,0,0,1,0-.381.381.381,0,0,1,.1-.159.488.488,0,0,1,.221-.128h0Z" transform="translate(-1142.096 -391.598)" fill="#010d3d"/>
    <path id="Trazado_7571" data-name="Trazado 7571" d="M1170.306,482.673a3.518,3.518,0,0,1-1.249,3.543,2.561,2.561,0,0,1-1.9.345,2.241,2.241,0,0,1-.85-.4,2.791,2.791,0,0,1-.385-.337c-.04-.044-.075-.089-.115-.133-.053-.066-.106-.133-.155-.2-.013-.018-.08-.124-.027-.04s0,0-.009-.013c-.058-.08-.12-.151-.177-.23a1.39,1.39,0,0,1-.124-.2,3.889,3.889,0,0,1-.239-.633c-.053-.182-.089-.368-.128-.549-.018-.08-.031-.159-.044-.244a1.117,1.117,0,0,1,.115-.793.874.874,0,0,1,.757-.434.909.909,0,0,1,.757.434,1.524,1.524,0,0,1,.164.868.857.857,0,0,0,.018.213c-.049-.226.018.08.027.12.035.159.084.31.128.465.022.075.044.151.071.221.049.137-.08-.1.027.027.022.031.044.066.066.1-.062-.075-.062-.08-.009-.013.04.044.08.089.12.128s.226.177.071.071c.067.044.133.08.2.124.124.08-.115-.027.035.018.053.013.168.075.222.058-.1-.009-.106-.013-.022,0h.058a1.923,1.923,0,0,0,.226,0c-.182.009.018,0,.066-.018.066-.013.129-.04.195-.058s.071-.027,0,.009c.035-.018.071-.031.106-.049.053-.027.1-.058.155-.084a1.048,1.048,0,0,0,.505-.452,1.53,1.53,0,0,0,.093-.164c.018-.035.04-.075.058-.115-.018.044-.013.031.013-.035a2.416,2.416,0,0,0,.115-.434c-.009.062.013-.142.013-.168,0-.066,0-.128,0-.195a2.509,2.509,0,0,0-.009-.257,1.237,1.237,0,0,0-.013-.128c-.009-.071-.009-.084,0-.04a.592.592,0,0,1,.4-.7.578.578,0,0,1,.7.4h0Z" transform="translate(-1152.046 -393.516)" fill="#010d3d"/>
    <path id="Trazado_7572" data-name="Trazado 7572" d="M1168.29,449.372a5.243,5.243,0,0,0-.093-1.577,12.283,12.283,0,0,0-.39-1.643,1.81,1.81,0,0,0-.642-1.01,4.343,4.343,0,0,0-1.178-.5l.66-.173a8.242,8.242,0,0,0-1.59,3.056,8.59,8.59,0,0,0-.31,1.674,12.185,12.185,0,0,1-.093,1.847.546.546,0,0,1-.988.128,3.873,3.873,0,0,1-.186-1.975,10.5,10.5,0,0,1,2.108-5.545.7.7,0,0,1,.762-.31,5.46,5.46,0,0,1,1.625.629,2.955,2.955,0,0,1,1.178,1.572,9.457,9.457,0,0,1,.487,2.064,6.489,6.489,0,0,1-.151,2.1.623.623,0,0,1-1.2-.332h0Z" transform="translate(-1150.717 -371.816)" fill="#010d3d"/>
    <path id="Trazado_7573" data-name="Trazado 7573" d="M1167.187,439.73c.128-.009-.035,0-.044.009.013-.009.071-.013.089-.022a.426.426,0,0,0,.089-.031s-.128.066-.035.013c.027-.018.053-.031.08-.049.12-.066-.031.022-.027.022s.071-.066.084-.08c.093-.1-.013-.018,0,.013,0,0,.04-.066.049-.08.066-.1-.018.018-.009.035-.018-.035.062-.142.049-.186.022.066-.009.115-.013.035v-.1s.031.142,0,.035c0,0-.04-.142-.04-.142s.08.142.009.027c-.018-.027-.031-.058-.049-.084-.053-.089.018.013.018.022a.411.411,0,0,0-.062-.062.732.732,0,0,1-.062-.058c-.013.04.12.075.036.031l-.071-.04c-.115-.071.137.04.009,0-.053-.013-.106-.031-.16-.044-.084-.022,0,.035.053,0a.488.488,0,0,1-.084-.009h-.173a.6.6,0,0,0-.089,0c-.124.009.106-.022.022,0-.128.027-.252.053-.381.093-.058.018-.115.04-.173.062s-.089,0,.031-.013a.461.461,0,0,0-.106.049,2.772,2.772,0,0,0-.319.177l-.159.106c-.075.049.084-.075.018-.013-.035.031-.071.062-.106.1a.473.473,0,0,1-.066.066c-.067.058.062-.1.018-.022a.707.707,0,0,0-.049.075c-.013.027-.04.111-.018.022s0,.009,0,.031c-.035.08,0-.124,0-.035,0,.031-.022.12-.009.031s-.013.04.018.053c-.018-.009-.057-.106-.009-.022.018.027.031.053.049.084.066.12-.009-.027-.018-.018s.062.062.066.071c.084.093-.018,0-.027-.013a.408.408,0,0,0,.1.066.938.938,0,0,0,.093.049c.075.04.08.044,0,0,.1.053.213.089.314.137s0,0-.022-.009c.071.035.146.053.217.089a.7.7,0,0,1,.288.961c-.328.532-1.059.328-1.484.04a1.722,1.722,0,0,1-.806-1.922,2.413,2.413,0,0,1,1.346-1.293,2.961,2.961,0,0,1,1.86-.283,1.711,1.711,0,0,1-.323,3.379.7.7,0,0,1-.691-.691.71.71,0,0,1,.691-.691h0Z" transform="translate(-1150.255 -368.666)" fill="#010d3d"/>
    <path id="Trazado_7574" data-name="Trazado 7574" d="M1145.044,346.468a15.019,15.019,0,0,0,3.446-.221,9.756,9.756,0,0,1,2.932.292,13.046,13.046,0,0,1,4.943,2.613c3.193,2.618,4.956,6.467,6.037,10.364a47.842,47.842,0,0,1,1.32,6.506,21.909,21.909,0,0,1-.04,6.781,18,18,0,0,1-2.361,5.891,28.983,28.983,0,0,1-3.836,5.142,12.893,12.893,0,0,1-10.537,3.583,19.2,19.2,0,0,1-5.7-1.307c-2.082-.859-3.645-2.569-5.151-4.19a20.771,20.771,0,0,1-3.61-5.116,21.014,21.014,0,0,1-1.856-6.006,30.7,30.7,0,0,1,1.218-13.358,17.812,17.812,0,0,1,2.808-5.926,14.8,14.8,0,0,1,4.19-3.676,14.649,14.649,0,0,1,11.658-1.528,11.589,11.589,0,0,1,2.715,1.245c.518.328.19,1.293-.438,1.045a14.053,14.053,0,0,0-10.865-.2,12.332,12.332,0,0,0-4,2.914,15.241,15.241,0,0,0-2.693,4.5c-3.03,7.233-3.517,15.657.8,22.487a25.694,25.694,0,0,0,3.809,4.394,9.761,9.761,0,0,0,5,2.268c3.2.709,6.817.669,9.651-1.143a15.269,15.269,0,0,0,3.858-4.1,22.19,22.19,0,0,0,2.839-5.014c1.493-3.964,1.174-8.159.31-12.225-.788-3.7-2.006-7.5-4.553-10.391a12.773,12.773,0,0,0-4.07-3.131,11.617,11.617,0,0,0-5.107-.957,14.214,14.214,0,0,1-3.061-.31c-.811-.177-.456-1.369.341-1.231h0Z" transform="translate(-1130.358 -317.437)" fill="#010d3d"/>
    <path id="Trazado_7575" data-name="Trazado 7575" d="M1172.9,349.96a.66.66,0,0,1,0-1.32.66.66,0,0,1,0,1.32Z" transform="translate(-1158.486 -319.073)" fill="#010d3d"/>
    <path id="Trazado_7576" data-name="Trazado 7576" d="M1150.725,351.306a10.314,10.314,0,0,1,10.471,2.135,11.915,11.915,0,0,1,3.047,4.318,23.856,23.856,0,0,1,1.408,6.13,47.238,47.238,0,0,1-.159,13.106,14.922,14.922,0,0,1-2.02,5.931,14.556,14.556,0,0,1-3.676,4.469,7.705,7.705,0,0,1-5.7.948,13.127,13.127,0,0,1-6.072-2.83.315.315,0,0,1,.3-.523c1.75.549,3.282,1.577,5.058,2.077a7.413,7.413,0,0,0,5.023-.177c1.568-.713,2.618-2.352,3.583-3.791a16.079,16.079,0,0,0,1.4-2.423,13.065,13.065,0,0,0,.811-2.857,46.181,46.181,0,0,0,.629-11.923c-.279-3.667-.775-7.667-3.247-10.568a9.977,9.977,0,0,0-10.608-3.123c-.576.19-.806-.7-.248-.9h0Z" transform="translate(-1140.207 -320.216)" fill="#010d3d"/>
    <g id="Grupo_5285" data-name="Grupo 5285" transform="translate(11.634 34.481)">
      <path id="Trazado_7577" data-name="Trazado 7577" d="M1171.1,375.728c.3-.314.842-.611,1.249-.341a.409.409,0,0,1,.252.536c.771-.39.833.93.483,1.346C1172.156,378.771,1169.905,377,1171.1,375.728Z" transform="translate(-1169.21 -368.396)" fill="#fff"/>
      <path id="Trazado_7578" data-name="Trazado 7578" d="M1167.048,363.068a3.48,3.48,0,0,1,4.265-3.251C1176.208,361.895,1167.226,368.587,1167.048,363.068Z" transform="translate(-1167.048 -359.736)" fill="#fff"/>
    </g>
    <path id="Trazado_7579" data-name="Trazado 7579" d="M1017.812,565.527l.252,1.085.124.54a3.161,3.161,0,0,1,.075.456c0,.04,0,.084,0,.124a1.222,1.222,0,0,1-.133.527.8.8,0,0,1-.638.416.868.868,0,0,1-.735-.239,1.515,1.515,0,0,1-.376-.833l-.1-.527-.208-1.072a.953.953,0,0,1,.093-.7.926.926,0,0,1,.54-.416.908.908,0,0,1,1.112.633h0Z" transform="translate(-934.031 -439.528)" fill="#010d3d"/>
    <path id="Trazado_7580" data-name="Trazado 7580" d="M1023.956,545.375l.385.855a6.264,6.264,0,0,1,.478,1.054,1.026,1.026,0,0,1-.1.757,1.037,1.037,0,0,1-.469.4.932.932,0,0,1-.638.049,1.013,1.013,0,0,1-.585-.452,6.683,6.683,0,0,1-.4-1.09l-.319-.886a.885.885,0,0,1,.527-1.063.89.89,0,0,1,1.129.372h0Z" transform="translate(-943.373 -428.42)" fill="#010d3d"/>
    <path id="Trazado_7581" data-name="Trazado 7581" d="M1029.955,529.869l.518,1.346-.093-.217a1.18,1.18,0,0,1,.173.571,1.053,1.053,0,0,1-.04.288,1.151,1.151,0,0,1-.239.408.866.866,0,0,1-.842.221.722.722,0,0,1-.345-.182.893.893,0,0,1-.35-.5,1.623,1.623,0,0,0-.049-.2l-.128-.425-.261-.85a.9.9,0,0,1,.084-.66.85.85,0,0,1,.514-.394.88.88,0,0,1,.66.084l.173.133a.859.859,0,0,1,.221.376h0Z" transform="translate(-951.728 -419.687)" fill="#010d3d"/>
    <path id="Trazado_7582" data-name="Trazado 7582" d="M1088.91,403.879a3.587,3.587,0,0,0-.935-.545,3.983,3.983,0,0,0-.54-.164,4.857,4.857,0,0,1-.518-.075c-.124.018-.106-.018.053-.111h0l.058.128c.1.19.221.368.328.558.221.394.443.788.664,1.187a.532.532,0,0,1-.722.722,1.5,1.5,0,0,0-.8-.257c-.071.013-.173.044-.2.115.009-.027.013-.009.009.009a.515.515,0,0,0,.049.23,6.078,6.078,0,0,0,.416.935,3.232,3.232,0,0,1,.416,1.019.3.3,0,0,1-.376.283,2.247,2.247,0,0,1-1.085-1.094,2.569,2.569,0,0,1-.443-1.6,1.227,1.227,0,0,1,.966-.921,2.284,2.284,0,0,1,1.581.368l-.722.722c-.284-.562-.576-1.125-.842-1.7-.208-.456-.332-1.081.213-1.364a1.3,1.3,0,0,1,.819-.035,4.366,4.366,0,0,1,.744.19,4.655,4.655,0,0,1,1.431.837.408.408,0,0,1,0,.567.412.412,0,0,1-.567,0h0Z" transform="translate(-1036.005 -348.933)" fill="#010d3d"/>
    <path id="Trazado_7583" data-name="Trazado 7583" d="M1052.042,365.1l.319.452a.943.943,0,0,1,.129.478.968.968,0,0,1-.129.478.932.932,0,0,1-.341.341.666.666,0,0,1-.35.111.726.726,0,0,1-.376-.018.9.9,0,0,1-.416-.244.969.969,0,0,1-.244-.416.959.959,0,0,1,0-.5l.115-.509.071-.168.111-.142.142-.111a.507.507,0,0,1,.261-.084.332.332,0,0,1,.186,0,.356.356,0,0,1,.177.049.416.416,0,0,1,.155.089.527.527,0,0,1,.182.2h0Z" transform="translate(-983.554 -328.048)" fill="#010d3d"/>
    <path id="Trazado_7584" data-name="Trazado 7584" d="M1082.077,364.307a2.725,2.725,0,0,1,0,.5,1.7,1.7,0,0,1-.035.257,1.271,1.271,0,0,1-.093.226.3.3,0,0,1-.053.1.72.72,0,0,1-.1.128.555.555,0,0,1-.226.133l.275-.213s-.022.035-.031.053a.447.447,0,0,1-.5.2.473.473,0,0,1-.323-.425.287.287,0,0,0,0-.062l.137.328a.831.831,0,0,1-.186-.536l.018.146a1.4,1.4,0,0,1-.027-.27v-.146a2.226,2.226,0,0,0-.022-.3l.022.155a1.223,1.223,0,0,0-.022-.124.647.647,0,0,1,0-.319l.062-.142a.6.6,0,0,1,.877-.164.471.471,0,0,1,.155.168.6.6,0,0,1,.08.3h0Z" transform="translate(-1026.563 -327.472)" fill="#010d3d"/>
    <path id="Trazado_7585" data-name="Trazado 7585" d="M1046.126,362.928c-1.936-.155-3.867-.244-5.811-.244-.93,0-1.869.066-2.8.035a1.092,1.092,0,0,1-1.059-.722,1.788,1.788,0,0,1-.075-1.652,1.064,1.064,0,0,1,1.829,0,1.372,1.372,0,0,1,.137,1.054c-.04.128-.213.35-.208.487l-.111-.408.053.075-.279-.279.093.044-.381-.1c1.422.089,2.852.093,4.274.182s2.892.19,4.332.323c.762.071.775,1.267,0,1.2h0Z" transform="translate(-971.389 -325.305)" fill="#010d3d"/>
    <path id="Trazado_7586" data-name="Trazado 7586" d="M1078.976,363.222a19.446,19.446,0,0,1-4.124-.022.621.621,0,0,1-.6-.6c0-.292.279-.647.6-.6a19.749,19.749,0,0,0,4.124.115.557.557,0,0,1,.554.554.566.566,0,0,1-.554.554h0Z" transform="translate(-1021.07 -326.511)" fill="#010d3d"/>
    <g id="Grupo_5286" data-name="Grupo 5286" transform="translate(47.41 30.024)">
      <path id="Trazado_7587" data-name="Trazado 7587" d="M1043.432,355.785a10.049,10.049,0,0,1,.306,4.9,14.353,14.353,0,0,1-1.519,4.535,6.6,6.6,0,0,1-3.056,3.078,6.472,6.472,0,0,1-4.31.283c-2.906-.784-4.615-3.317-5.364-6.095a12.943,12.943,0,0,1-.279-4.846,19.911,19.911,0,0,1,.4-2.5c.164-.682.47-1.3,1.245-1.355a37.081,37.081,0,0,1,5.86.319c2.051.19,4.106.412,6.152.656a.917.917,0,0,1,.89.89.9.9,0,0,1-.89.89c-3.1-.314-6.263-.554-9.337-1.076-.757-.128-1.506-.275-2.259-.421a2.05,2.05,0,0,1-.43-.084c.12.071.168-.407.1.151-.053.412-.124.819-.186,1.231a15.239,15.239,0,0,0-.027,4.487,7.319,7.319,0,0,0,3.8,5.545,4.743,4.743,0,0,0,3.1.363,4.174,4.174,0,0,0,2.573-1.971,12.188,12.188,0,0,0,1.586-4.221,33.318,33.318,0,0,0,.354-4.6.661.661,0,0,1,1.293-.173h0Z" transform="translate(-1012.854 -351.947)" fill="#343d64"/>
      <path id="Trazado_7588" data-name="Trazado 7588" d="M1009.174,359.11a3.806,3.806,0,0,1,1.656.044c.447.062.886.155,1.329.257.306.071.611.128.921.182.075.013.151.022.221.035.208.035-.195-.022.027,0,.128.018.257.031.39.049.673.08,1.342.168,2.006.31a11.166,11.166,0,0,1,1.258.328c.306.106.58.27.877.394a1.26,1.26,0,0,1,.78.585.665.665,0,0,1-.235.895,1.442,1.442,0,0,1-1.036.08c-.275-.044-.554-.049-.828-.1-.447-.08-.89-.195-1.342-.283q-.5-.1-1.01-.173c-.137-.022-.275-.04-.412-.058.279.04-.151-.018-.235-.031a17.963,17.963,0,0,1-2-.359,4.716,4.716,0,0,1-2.657-1.47.476.476,0,0,1,.279-.691h0Z" transform="translate(-978.689 -354.887)" fill="#343d64"/>
      <path id="Trazado_7589" data-name="Trazado 7589" d="M1064.308,356.744c-.044-.031-.341-.252-.226-.173-.08-.058-.159-.1-.244-.155s-.177-.12-.27-.173c-.044-.022-.084-.049-.129-.071l-.071-.035c.1.049-.053-.022-.075-.027-.044-.018-.093-.031-.137-.049-.093-.027-.19-.049-.288-.066a1.6,1.6,0,0,0-.323-.058c.049,0,.155.013.044.009-.058,0-.12-.009-.177-.013h-.3c-.044,0-.27-.013-.3.018.022-.031.195-.035.022,0l-.146.027c-.1.022-.19.044-.288.075-.058.018-.111.04-.168.058-.124.044.022-.027.044-.018-.058-.013-.239.12-.288.151a1.186,1.186,0,0,0-.124.08c-.026.018-.173.1-.053.035s-.022.018-.049.044a1.757,1.757,0,0,1-.275.2.866.866,0,0,1-1.183-1.183,2.865,2.865,0,0,1,1.555-1,3.827,3.827,0,0,1,1.55-.159,3.32,3.32,0,0,1,2.706,1.674.609.609,0,0,1-.093.713.591.591,0,0,1-.713.093h0Z" transform="translate(-1047.478 -352.219)" fill="#343d64"/>
      <path id="Trazado_7590" data-name="Trazado 7590" d="M1083.41,352.148a26.784,26.784,0,0,1-.6,3.45c-.252,1.129-.487,2.281-.8,3.4-.545,1.94-1.382,3.871-3.34,4.735a5.335,5.335,0,0,1-5.594-.828c-1.665-1.373-2.135-3.477-2.2-5.536a14.98,14.98,0,0,1,1.537-7.268.912.912,0,0,1,1.218-.319,5.783,5.783,0,0,0,2.755.106,18.776,18.776,0,0,1,2.994.053,13.676,13.676,0,0,1,2.95.478,1.291,1.291,0,0,1,.407,2.352.994.994,0,0,1-1-1.714l.093-.053-.354.354.044-.1-.137.5v-.115l.137.5c.182.142.19.182.031.124l-.314-.066c-.208-.044-.421-.084-.633-.12-.337-.058-.673-.111-1.01-.151-.815-.1-1.639-.155-2.458-.173-1.488-.035-3.007.23-4.4-.438l1.307-.531a18.765,18.765,0,0,0-1.178,5.386c-.071,1.581-.062,3.5,1.028,4.77a3.415,3.415,0,0,0,3.858,1.045c1.51-.6,2.02-2.246,2.427-3.672a39.05,39.05,0,0,1,2.286-6.413.515.515,0,0,1,.952.257h0Z" transform="translate(-1070.867 -349.674)" fill="#343d64"/>
    </g>
    <path id="Trazado_7591" data-name="Trazado 7591" d="M1076.9,358.1c-.638,1.3-1.271,2.6-1.874,3.907s-1.16,2.733-1.767,4.088c-.3.66-.611,1.311-.886,1.975s-.478,1.342-.748,2-.576,1.369-.868,2.051a9.5,9.5,0,0,1-.438.992,8.179,8.179,0,0,1-.753.952l.146-1.121a4.094,4.094,0,0,0,2.02,1.431,7.906,7.906,0,0,0,1.174.385c.4.1.744.137.948.518a.442.442,0,0,1-.066.523c-.629.567-1.869-.027-2.547-.3-.886-.35-1.687-.85-2.569-1.2a.957.957,0,0,1-.647-1.138,7.713,7.713,0,0,1,.226-1.045,9.087,9.087,0,0,1,.509-1.045c.328-.638.66-1.28,1-1.913s.749-1.227,1.094-1.856c.363-.664.687-1.346,1.036-2.015.664-1.276,1.4-2.516,2.077-3.783s1.364-2.622,2.042-3.933c.306-.6,1.191-.071.895.523h0Z" transform="translate(-1015.743 -323.901)" fill="#010d3d"/>
  </g>
  <g id="Grupo_5291" data-name="Grupo 5291" transform="translate(121.533 5.165)">
    <path id="Trazado_7592" data-name="Trazado 7592" d="M722.443,609.545c.261-4.283.616-8.557.895-12.836q.472-7.248.846-14.5a1.576,1.576,0,0,1,.146-.576c.062-.855.164-1.71.275-2.56.027-.359.058-.722.08-1.081.12-1.9.257-3.791.354-5.692.009-.2.018-.4.027-.6v-.013c-.124-1.967-.4-3.92-.518-5.886a54.8,54.8,0,0,1-.04-6.033c.049-1.019.159-2.029.3-3.043a4.118,4.118,0,0,1,.642-2.206.39.39,0,0,1,.288-.261,3.458,3.458,0,0,1,1.019-.43c.514-.164,1.023-.341,1.541-.483.961-.266,1.944-.478,2.919-.7,3.862-.9,7.8-1.488,11.689-2.223,2.179-.407,4.354-.868,6.564-1.067,2.082-.186,4.544-.168,6.307,1.094a1.216,1.216,0,0,1,.111.093.788.788,0,0,1,1.045.74c-.536,6.44-1.267,12.858-2,19.28q-.545,4.817-1.05,9.638c-.328,3.189-.687,6.391-.85,9.594-.328,6.378-.248,12.76-.713,19.134-.465,6.32-1.245,12.619-2.228,18.877-1.107,7.034-2.409,14.076-4.079,21a.82.82,0,0,1-.788.6q-2.75-.232-5.5-.447a.76.76,0,0,1-.718-.939c.908-6.028,1.563-12.109,2.285-18.164.368-3.056.664-6.126,1.045-9.182.376-2.99.757-5.975,1.045-8.969.292-3.034.735-6.059,1.116-9.084s.753-6.055,1.125-9.084c.731-6.006,1.479-12.021,1.834-18.062.2-3.349.164-6.684.173-10.032a4.96,4.96,0,0,0-.168-1.6,1.787,1.787,0,0,1-.177.035,107.121,107.121,0,0,1-14.793.35c-.306,5.138-.7,10.276-1.028,15.414q-.525,8.278-1.059,16.547-1.063,16.6-1.971,33.2c-.341,6.219-.687,12.428-1.121,18.642a1.177,1.177,0,0,1-.85,1.116,19.336,19.336,0,0,1-6.524-.195,1.009,1.009,0,0,1-.744-.974c1.014-8.508,1.794-17.061,2.405-25.605q.458-6.411.85-12.823Z" transform="translate(-662.74 -436.003)" fill="#fff"/>
    <path id="Trazado_7593" data-name="Trazado 7593" d="M737.519,552.645a57.372,57.372,0,0,1-.594,10.847c-.461,3.6-.855,7.113-1.2,10.683-.682,7.082-1.076,14.187-1.422,21.3s-.66,14.213-1.174,21.3a208.525,208.525,0,0,1-2.436,21.185c-.616,3.464-1.338,6.914-2.219,10.32-.4,1.55-.611,3.579-2.432,4.048a14.2,14.2,0,0,1-5.191,0,15.232,15.232,0,0,1-2.591-.545.869.869,0,0,1-.589-1.036c1.028-5.51,1.626-11.122,2.33-16.68s1.391-11.135,2.046-16.707c.656-5.536,1.253-11.077,1.887-16.618s1.253-11.077,1.785-16.627c.3-3.136.523-6.276.682-9.421.075-1.533.12-3.069.168-4.606.053-1.617.146-3.207.08-4.823-.027-.682.992-.664,1.05,0,.12,1.386.3,2.777.39,4.163s.1,2.848.084,4.274c-.027,2.817-.208,5.634-.43,8.438-.443,5.554-1.09,11.091-1.692,16.627-1.222,11.166-2.666,22.31-4.186,33.436-.425,3.123-.868,6.245-1.3,9.372s-.926,6.25-1.236,9.39l-.616-.811a18.056,18.056,0,0,0,5.182.447c.461-.031,1.484.018,1.834-.354a1.984,1.984,0,0,0,.261-.815c.12-.474.235-.952.35-1.426q1.189-4.99,2.046-10.045c1.147-6.786,1.975-13.6,2.556-20.463,1.169-13.766,1.537-27.594,2.906-41.346.381-3.84.859-7.662,1.475-11.472a68.287,68.287,0,0,0,1.346-12.047.425.425,0,0,1,.85,0h0Z" transform="translate(-642.718 -437.649)" fill="#010d3d"/>
    <path id="Trazado_7594" data-name="Trazado 7594" d="M754.986,581.905c-2.844-.022-5.678.053-8.517.155-1.378.049-2.755.093-4.132.049-.713-.022-1.422-.066-2.13-.142-.545-.058-1.32.018-1.6-.545a.5.5,0,0,1,.075-.58c.412-.465,1.09-.2,1.626-.133.673.08,1.351.133,2.033.164,1.413.067,2.826.044,4.239.018q4.206-.08,8.407.018a.5.5,0,0,1,0,1h0Z" transform="translate(-669.85 -453.444)" fill="#010d3d"/>
    <path id="Trazado_7595" data-name="Trazado 7595" d="M788.548,582.518c-.252,5.474-.421,10.949-.691,16.423s-.536,10.949-.833,16.423c-.589,10.878-1.231,21.752-1.843,32.63q-.518,9.222-1.05,18.443a.784.784,0,0,1-.567.744,25.706,25.706,0,0,1-9.8-.31c-.917-.213-.527-1.639.39-1.413a20.512,20.512,0,0,0,9,.23l-.567.744c.567-10.927,1.183-21.849,1.754-32.772q.851-16.317,1.851-32.63c.381-6.174.859-12.344,1.253-18.518.044-.7,1.134-.713,1.1,0h0Z" transform="translate(-718.298 -454.229)" fill="#010d3d"/>
    <path id="Trazado_7596" data-name="Trazado 7596" d="M797.852,562.7c-.19,12.078-.443,24.152-.687,36.226-.12,6.019-.208,12.034-.642,18.04-.434,5.975-1.09,11.932-1.767,17.881q-1.149,10.052-2.33,20.1a.99.99,0,0,1-.961.961.969.969,0,0,1-.961-.961l2.037-17.916c.678-5.962,1.448-11.91,1.993-17.885,1.1-12,1.2-24.09,1.634-36.129q.365-10.158.74-20.321a.468.468,0,0,1,.935,0h0Z" transform="translate(-735.248 -443.233)" fill="#010d3d"/>
    <g id="Grupo_5288" data-name="Grupo 5288" transform="translate(43.787 211.654)">
      <path id="Trazado_7597" data-name="Trazado 7597" d="M805.186,774.457a9.319,9.319,0,0,1,.58,2.312,4.548,4.548,0,0,0-.62-3.69,11.147,11.147,0,0,1,.828,3.92c.031,1.134-.319,2.529-1.417,2.808-1.059.27-2-.687-2.671-1.541a4.341,4.341,0,0,1-2.782,1.488,17.806,17.806,0,0,1-11.374-1.4,2.922,2.922,0,0,1-1.6-1.431,2.1,2.1,0,0,1,1.28-2.458,5.315,5.315,0,0,1,3-.155,22.2,22.2,0,0,0,4.062.54,4.654,4.654,0,0,0,3.645-1.568,15.417,15.417,0,0,0,6.484.735" transform="translate(-785.182 -772.34)" fill="#010d3d"/>
      <path id="Trazado_7598" data-name="Trazado 7598" d="M805.062,773.385a10.628,10.628,0,0,1,.6,2.454l-1.05-.142a3.783,3.783,0,0,0-.5-3.149l.881-.682a9.854,9.854,0,0,1,.974,3.6,5.163,5.163,0,0,1-.421,2.852,2.256,2.256,0,0,1-2.17,1.267,4.121,4.121,0,0,1-2.618-1.763l1.081-.137c-1.293,1.754-3.867,1.984-5.878,2.113a18.421,18.421,0,0,1-6.972-.908c-1.732-.576-4.77-1.488-4.411-3.849a3.109,3.109,0,0,1,1.736-2.281,6.056,6.056,0,0,1,3.61-.279c2.232.359,5.213,1.32,6.892-.788a.908.908,0,0,1,.917-.244,15.688,15.688,0,0,0,3.069.815,19.351,19.351,0,0,0,3.162.08c.824-.009,1.054,1.324.2,1.479a15.664,15.664,0,0,1-6.936-.549l.917-.244a5.977,5.977,0,0,1-5.032,1.8,29.425,29.425,0,0,1-3.286-.5,4.59,4.59,0,0,0-2.742.058,1.29,1.29,0,0,0-.713,1.683,2.091,2.091,0,0,0,.85.66,12.841,12.841,0,0,0,1.364.651,16.452,16.452,0,0,0,6.015,1.178,16.048,16.048,0,0,0,3.5-.319,4.07,4.07,0,0,0,2.547-1.253c.23-.31.78-.527,1.081-.137.407.523.992,1.324,1.719,1.4.625.062.943-.5,1.09-1.023.447-1.608-.137-3.384-.571-4.925-.168-.6.731-1.01,1.028-.434a5.626,5.626,0,0,1,.651,4.115c-.159.629-.979.416-1.05-.142a9.238,9.238,0,0,0-.558-2.175c-.244-.638.78-.912,1.023-.283h0Z" transform="translate(-784.548 -771.409)" fill="#010d3d"/>
    </g>
    <g id="Grupo_5289" data-name="Grupo 5289" transform="translate(61.606 213.327)">
      <path id="Trazado_7599" data-name="Trazado 7599" d="M763.413,777.607a10.006,10.006,0,0,1,.988,3.464,3.42,3.42,0,0,1-1.479,3.114,2.1,2.1,0,0,1-2.994-.974c-3.9,3.211-9.607,3.247-14.417,1.714-1.218-.39-2.644-1.254-2.436-2.511.182-1.09,1.479-1.559,2.578-1.7,2.179-.266,4.4-.049,6.568-.407s4.4-1.475,5.24-3.5a12.7,12.7,0,0,0,4.354.788,2.128,2.128,0,0,1,.917.128c.85.407.678,1.656.368,2.547" transform="translate(-742.39 -776.091)" fill="#010d3d"/>
      <path id="Trazado_7600" data-name="Trazado 7600" d="M763.23,776.415c.921,2.13,1.86,4.766.115,6.759a2.784,2.784,0,0,1-4.691-.7l1.05.279c-3.9,3.193-9.341,3.41-14.045,2.166a7.455,7.455,0,0,1-3.025-1.369,2.26,2.26,0,0,1-.625-2.892,3.714,3.714,0,0,1,2.711-1.524c1.5-.235,3.007-.186,4.509-.315a12.428,12.428,0,0,0,4.217-.864,6,6,0,0,0,1.572-.988,12.621,12.621,0,0,0,1.267-1.564.7.7,0,0,1,.7-.186,12.561,12.561,0,0,0,2.751.682,9.885,9.885,0,0,1,2.516.244c1.324.536,1.076,2.308.669,3.362-.23.6-1.16.372-.979-.27a2.847,2.847,0,0,0,.137-1.426c-.137-.549-.9-.4-1.338-.416a13.569,13.569,0,0,1-4.137-.8l.881-.5a4.407,4.407,0,0,1-1.918,2.613,8.173,8.173,0,0,1-2.835,1.32c-2.582.669-5.235.142-7.844.523-.682.1-2.029.447-1.812,1.4s1.488,1.324,2.263,1.564a18.905,18.905,0,0,0,6.635.842,12.034,12.034,0,0,0,6.848-2.494.638.638,0,0,1,1.05.279,1.345,1.345,0,0,0,1.36.8,1.838,1.838,0,0,0,1.537-1.09c.833-1.617.066-3.45-.562-4.992-.239-.589.78-1.023,1.032-.434h0Z" transform="translate(-741.719 -775.186)" fill="#010d3d"/>
    </g>
    <path id="Trazado_7601" data-name="Trazado 7601" d="M715.8,477.4c.873-7.4,3.619-14.368,5.257-21.606,1.214-3.189,2.657-16,5.9-16.206,2.914.009,5.793,1.227,8.633,1.856,5.262-1.789,11.113-2.6,16.645-3.459,2.649.678,4.017,3.734,6.019,5.439,6.192,6.958,12.809,13.7,18.39,21.136.611,1.36.208,2.733-.128,4.106-.416,1.931-1.019,3.853-1.369,5.776a114.507,114.507,0,0,1,8.553,11.684c.656,1.355,2.485,3.486,1.267,4.841a22.851,22.851,0,0,1-6.932,2.277c-9.629,1.431-21.371,4.5-30.628.753-3.216-5.559-6.883-10.962-9.744-16.751-2.108-5.878-5.922-10.838-8.655-16.415-1.5,7.3-2.773,15.064-6.391,21.623-3.8,4.084-7.973-.647-6.821-5.054Zm36.209-36.8c-.124-.111-.089-.022,0,0Z" transform="translate(-689.605 -374.008)" fill="#64d8cc"/>
    <path id="Trazado_7602" data-name="Trazado 7602" d="M755.018,492.97c-5.1-7-10.422-13.837-16.109-20.374-.368-.421.248-1.041.616-.616a239.154,239.154,0,0,1,16.144,20.609c.279.4-.372.771-.656.381h0Z" transform="translate(-670.232 -392.869)" fill="#010d3d"/>
    <path id="Trazado_7603" data-name="Trazado 7603" d="M791.418,351.295a82.871,82.871,0,0,1,1.634-13.336c.452-2.21,1.036-4.38,1.63-6.56a13.351,13.351,0,0,0,.571-3.255,10.04,10.04,0,0,0-.571-3.149,26.278,26.278,0,0,1-.961-3.021c-.208-1.059.5-1.643,1.413-1.949a25.961,25.961,0,0,1,5.953-1.2,28.624,28.624,0,0,1,11.985,1.533,31.981,31.981,0,0,1,16.76,14.191c.35.611.678,1.236.992,1.865a5.3,5.3,0,1,1,2.627,10.254,5.739,5.739,0,0,1-3.574-.562c-.7,7.1-2.879,14.5-7.716,19.834a7.627,7.627,0,0,1-3.189,2.25c.12.2.235.4.354.6l6.152,7.454c.527.638-.19,1.524-.806,1.231a3.127,3.127,0,0,1-.766,2.117.863.863,0,0,1-1.028.133c-.08-.04-.155-.084-.235-.124a1.737,1.737,0,0,1-1.479-.842c-.049-.084-.1-.164-.146-.248a9.9,9.9,0,0,1-1.9-2.046c-.952-1.4-1.648-2.945-2.578-4.354a19.948,19.948,0,0,0-1.4-1.944,2.238,2.238,0,0,0-.859-.757,5.49,5.49,0,0,0-1.3-.159q-3.455-.392-6.914-.775a17.273,17.273,0,0,1-6.1-1.448,8.9,8.9,0,0,1-2.352-1.891,22.536,22.536,0,0,1-1.949-2.254,28.956,28.956,0,0,1-3.251-5.178A13.627,13.627,0,0,1,791.418,351.295Z" transform="translate(-775.55 -307.569)" fill="#fff"/>
    <path id="Trazado_7604" data-name="Trazado 7604" d="M789.765,357.766a4.258,4.258,0,0,1,3.636-2.117,4.942,4.942,0,0,1,4.013,2.223c1.958,2.715,1.834,7.273-.815,9.505a4.856,4.856,0,0,1-4.62,1.076,3.3,3.3,0,0,1-1.958-1.426c-.381-.806.195-1.6,1.054-1.147a7.635,7.635,0,0,1,.815.642,2.936,2.936,0,0,0,3.2.111,4.786,4.786,0,0,0,2.068-4.473,5.2,5.2,0,0,0-2.343-4.318c-1.169-.66-3.149-.647-3.969.558a.629.629,0,0,1-1.085-.633h0Z" transform="translate(-735.779 -328.142)" fill="#010d3d"/>
    <path id="Trazado_7605" data-name="Trazado 7605" d="M848.113,355.843a34.777,34.777,0,0,1,.018,4.4,27.926,27.926,0,0,1-.771,4.38,29.505,29.505,0,0,1-3.53,8.119,14.172,14.172,0,0,1-5.966,5.74,20.28,20.28,0,0,1-8.322,1.6,35.3,35.3,0,0,1-9.576-1.236,18.991,18.991,0,0,1-7.866-3.893,14.615,14.615,0,0,1-4.11-7.025,17.955,17.955,0,0,1-.531-4.239,41.744,41.744,0,0,1,.137-4.823,81.588,81.588,0,0,1,1.913-10.719,63.64,63.64,0,0,1,3.145-10.626c.283-.682,1.346-.443,1.143.314-.815,2.981-1.772,5.922-2.533,8.916a81.025,81.025,0,0,0-1.8,9c-.416,3.016-.846,6.258-.146,9.261a18.01,18.01,0,0,0,2.861,6.821,13.053,13.053,0,0,0,6.205,4.3,31.979,31.979,0,0,0,8.637,1.789,24.043,24.043,0,0,0,8.057-.6,10.82,10.82,0,0,0,6.086-4.172,28.719,28.719,0,0,0,4.119-8.1,40.3,40.3,0,0,0,1.161-4.451,26.6,26.6,0,0,0,.642-4.748.525.525,0,0,1,1.05,0h0Z" transform="translate(-793.096 -317.822)" fill="#010d3d"/>
    <path id="Trazado_7606" data-name="Trazado 7606" d="M810.315,330.547a20.5,20.5,0,0,0,5.014,8.872l-.921-.244c.151-.035.146-1.351.151-1.524.04-.983.049-1.971.044-2.954-.013-1.936-.12-3.853-.292-5.784-.075-.846,1.143-.9,1.4-.19a18.174,18.174,0,0,0,6.236,8.26c.354.261.718.509,1.085.744.39.248.425.408.673-.027a4.819,4.819,0,0,0,.461-2.6c-.093-1.909-.766-3.743-.952-5.647a.776.776,0,0,1,1.435-.39,45.54,45.54,0,0,0,6.52,10.019q.937,1.1,1.944,2.148c.177.186.35.381.54.549a.963.963,0,0,0,.244.2c.186.062.182.12-.013.168.128-.5.248-1,.354-1.506a30.957,30.957,0,0,0,.532-3.255,18.612,18.612,0,0,0-.053-3.441.8.8,0,0,1,1.488-.4,70.716,70.716,0,0,1,5.882,14.165l-1.466-.19a14.711,14.711,0,0,0,1.271-2.3,7.189,7.189,0,0,0,.554-2.52c.084-1.466,2.343-.988,1.878.252-.346.917-.722,1.82-1.076,2.733a19.176,19.176,0,0,1-1.245,2.64.813.813,0,0,1-1.466-.19,82.14,82.14,0,0,0-5.718-13.784l1.488-.4a15.963,15.963,0,0,1-.19,3.012c-.115.992-.288,1.971-.492,2.945-.1.461-.2.917-.3,1.377a6.906,6.906,0,0,1-.337,1.364,1.231,1.231,0,0,1-1.736.611,7.675,7.675,0,0,1-1.882-1.789q-.917-1-1.776-2.037a51.226,51.226,0,0,1-3.211-4.336,58.6,58.6,0,0,1-3.069-5.249l1.435-.39c.235,1.741.757,3.433.926,5.182a7.512,7.512,0,0,1-.133,2.458,3.651,3.651,0,0,1-1.116,2.073c-.726.536-1.431.182-2.077-.266a23.345,23.345,0,0,1-1.936-1.51,22.052,22.052,0,0,1-3.242-3.437,25.274,25.274,0,0,1-2.759-4.686l1.3-.549a58.16,58.16,0,0,1,.616,6.958,29.9,29.9,0,0,1,0,3.335c-.071.855-.452,1.847-1.417,1.989a.95.95,0,0,1-.921-.244,24.96,24.96,0,0,1-4.713-9.926.54.54,0,0,1,1.041-.288h0Z" transform="translate(-790.089 -312.868)" fill="#010d3d"/>
    <path id="Trazado_7607" data-name="Trazado 7607" d="M840.309,321.536c.833-1.918,1.67-3.831,2.463-5.767.381-.935.775-1.865,1.112-2.817a16.76,16.76,0,0,1,1.453-2.919,1.211,1.211,0,0,1,1.32-.536l2.666.478-.762,1.8a6.328,6.328,0,0,0-2.5-.948.976.976,0,0,1-.425-1.617,19.793,19.793,0,0,0,2.139-2.644l1.488,1.147a14.21,14.21,0,0,1-2.945,2.551c-.952.625-1.807-.881-.886-1.515l.089-.062-.315.314.044-.089-.12.443c.009-.128-.571-.62-.7-.753-.385-.39-.788-.762-1.2-1.121a26.092,26.092,0,0,0-2.432-1.856,46.711,46.711,0,0,0-5.359-3.056c-1.843-.917-3.88-1.843-5.842-2.7a39.684,39.684,0,0,0-6.564-2.312,16.266,16.266,0,0,0-7.4-.217l.253-1.922a9.582,9.582,0,0,1,3.145,2.675,1.033,1.033,0,0,1-.159,1.236c-.983,1.121-2.666.323-3.818-.035l-4.788-1.493-4.788-1.493c-.744-.23-1.488-.5-2.246-.691-.31-.08-1.165-.284-1.32.173l-.257-.979q2.146,1.834,4.265,3.69a1.024,1.024,0,0,1-.718,1.732c-4.345-.39-8.633-1.9-13.031-1.484a11.249,11.249,0,0,0-2.8.638,7.366,7.366,0,0,0-1.121.523c-.31.173-.589.434-.881.6.155-.089-.283-.319.031-.1.093.066.19.159.3.235.478.3.992.549,1.484.819l3.092,1.674q3.581,1.927,7.171,3.831a1.267,1.267,0,0,1,.576,1.413,1.3,1.3,0,0,1-1.2.917,30.274,30.274,0,0,0-3.083.465c-.19.04-.385.08-.571.133a.385.385,0,0,1-.186.044c-.155.106-.177.1-.075,0a.377.377,0,0,0,0-.142c-.009,0,.328.354.359.381a20.919,20.919,0,0,0,2.374,1.369q1.415.844,2.835,1.688a1.151,1.151,0,0,1,0,1.971,2.98,2.98,0,0,0-1.134.9.569.569,0,0,0-.075.186c.053.195.372.39.523.514a9.417,9.417,0,0,0,3.251,1.67,1.055,1.055,0,0,1-.558,2.033,12.055,12.055,0,0,1-2.635-1.072,7.924,7.924,0,0,1-2.215-1.657c-1.466-1.754.133-3.628,1.7-4.549v1.971c-1.236-.718-2.485-1.413-3.707-2.153a5.582,5.582,0,0,1-2.706-2.573c-.483-1.329.483-2.343,1.665-2.755a19.984,19.984,0,0,1,4.252-.935l-.629,2.33q-3.521-1.913-7.034-3.853-1.781-.983-3.552-1.971c-.961-.536-2.117-1.094-2.463-2.237-.749-2.463,2.9-3.734,4.673-4.155a18.611,18.611,0,0,1,6.914-.133c2.835.4,5.621,1.191,8.477,1.417l-.718,1.732q-2.139-1.834-4.256-3.7a.981.981,0,0,1-.257-.979c.585-1.617,2.272-1.949,3.787-1.537,1.625.438,3.224,1.045,4.828,1.568l4.872,1.594,2.489.815a9.341,9.341,0,0,0,1.032.332c.089.018.19.013.27.031.235.053.115-.133.022.035l.159,1.236a11.4,11.4,0,0,0-2.6-2.095,1.062,1.062,0,0,1,.253-1.922c5.164-1.076,10.223.611,14.9,2.7,2.228,1,4.429,2.064,6.608,3.167a42.707,42.707,0,0,1,5.926,3.521,26.43,26.43,0,0,1,2.963,2.485c.8.788,2.193,2.091.855,3.087l-.886-1.515a12.652,12.652,0,0,0,2.489-2.374c.678-.842,2.06.248,1.488,1.147a18.227,18.227,0,0,1-2.405,3.056l-.425-1.617a12.432,12.432,0,0,1,2.985,1.112.994.994,0,0,1-.5,1.838c-.9-.04-1.812-.084-2.715-.124l1.125-.859a17.569,17.569,0,0,1-1.5,3.016c-.571.846-1.085,1.727-1.617,2.6-1.094,1.812-2.148,3.641-3.2,5.474-.323.558-1.085.066-.842-.492h0Z" transform="translate(-785.039 -293.547)" fill="#010d3d"/>
    <path id="Trazado_7608" data-name="Trazado 7608" d="M849.245,364.675l-.089.788c-.013.124-.018.252-.022.381a1.559,1.559,0,0,1-.009.2c0,.031-.009.058-.009.089a1.3,1.3,0,0,1-.177.656.765.765,0,0,1-.221.279,1.243,1.243,0,0,1-.567.328.95.95,0,0,1-.509.022.982.982,0,0,1-.478-.151,1.311,1.311,0,0,1-.461-.461,1.023,1.023,0,0,1-.146-.332,1.306,1.306,0,0,1,0-.691.641.641,0,0,1,.018-.089c.013-.066.035-.133.053-.2.035-.124.071-.244.1-.368l.164-.78a.925.925,0,0,1,.213-.407.907.907,0,0,1,.337-.31l.288-.12a.925.925,0,0,1,.478-.022.6.6,0,0,1,.3.08.892.892,0,0,1,.385.248l.186.244a1.211,1.211,0,0,1,.164.607h0Z" transform="translate(-811.448 -332.5)" fill="#010d3d"/>
    <path id="Trazado_7609" data-name="Trazado 7609" d="M883.443,362.048l-.071,1.683a1.38,1.38,0,0,1-.381.921,1.441,1.441,0,0,1-.921.381,1.3,1.3,0,0,1-.921-.381l-.2-.266a1.267,1.267,0,0,1-.177-.656l.195-1.683a.973.973,0,0,1,.106-.478,1.122,1.122,0,0,1,.656-.656.885.885,0,0,1,.478-.106,1.24,1.24,0,0,1,1.24,1.24h0Z" transform="translate(-860.821 -331.016)" fill="#010d3d"/>
    <path id="Trazado_7610" data-name="Trazado 7610" d="M875.781,360.325a68.107,68.107,0,0,0-4.482,10.7c-.275.908-.523,1.829-.842,2.724a4.5,4.5,0,0,1-.213.554c.208.009-.4-.771.182-.146.275.3.554.594.837.886a11.62,11.62,0,0,0,1.874,1.55c.359.244.731.465,1.085.713a4.286,4.286,0,0,1,.93.9c.253.31.235.948-.27,1.023a2.776,2.776,0,0,1-1.448-.062,6.237,6.237,0,0,1-1.382-.726c-.8-.54-1.524-1.183-2.286-1.776-.682-.531-1.754-1.152-1.984-2.051-.275-1.072.6-2.356,1.085-3.26.514-.961,1.094-1.891,1.568-2.87s.935-1.9,1.453-2.826c1.067-1.918,1.967-3.929,2.981-5.873.315-.607,1.218-.071.912.536h0Z" transform="translate(-847.445 -330.298)" fill="#010d3d"/>
    <path id="Trazado_7611" data-name="Trazado 7611" d="M832.838,429.22a.66.66,0,0,1,0-1.32.66.66,0,0,1,0,1.32Z" transform="translate(-789.341 -368.392)" fill="#010d3d"/>
    <path id="Trazado_7612" data-name="Trazado 7612" d="M817.31,429.249c1.1,1.462,2.312,2.8,3.543,4.146.6.656,1.2,1.3,1.807,1.949.3.323.616.642.912.97.323.359.589.757.9,1.125a.779.779,0,0,1,.12.921c-.784,1.191-1.435,2.458-2.122,3.7l.071-.545a.975.975,0,0,1-.155.988.864.864,0,0,1-1.333.173,12.556,12.556,0,0,0-1.546-1.036c-.523-.341-1.028-.709-1.533-1.076a.718.718,0,1,1,.872-1.134,9.069,9.069,0,0,0,3.03,1.829l-.961.39a.956.956,0,0,1,.753-.625l-.421.323c.7-1.245,1.426-2.467,2.024-3.76l.12.921c-.363-.314-.762-.585-1.1-.926s-.66-.691-.979-1.045c-.616-.687-1.214-1.4-1.776-2.13-1.147-1.475-2.2-3.03-3.247-4.571-.434-.642.576-1.191,1.023-.6h0Z" transform="translate(-773.472 -368.998)" fill="#010d3d"/>
    <path id="Trazado_7613" data-name="Trazado 7613" d="M835.149,440.466a15.99,15.99,0,0,0-2.852-3.871c-.54-.66-1.112-1.3-1.608-2s-.974-1.471-1.417-2.228l1.249-.731a26.047,26.047,0,0,0,2.857,4.775c.531.722,1.09,1.426,1.661,2.117a8.779,8.779,0,0,1,1.71,2.334c.195.531-.474.966-.921.709a7.9,7.9,0,0,1-1.909-2.037c-.611-.757-1.209-1.524-1.781-2.308a26.453,26.453,0,0,1-2.866-4.863c-.363-.828.775-1.555,1.249-.731a33.519,33.519,0,0,0,2.954,4.473,15.182,15.182,0,0,1,2.764,4.053c.261.687-.824.966-1.09.3h0Z" transform="translate(-791.32 -370.271)" fill="#010d3d"/>
    <path id="Trazado_7614" data-name="Trazado 7614" d="M809.527,455.106a21.086,21.086,0,0,0,1.776,2.29c.221.248.514.629.877.669a.71.71,0,0,0,.607-.337,3.662,3.662,0,0,0,.487-.908c.2-.5.4-.992.6-1.488a2.679,2.679,0,0,0,.315-1.324c-.071-.474-.284-.89.04-1.329a.31.31,0,0,1,.558.075,4.912,4.912,0,0,1,.416,1.152,2.931,2.931,0,0,1-.2,1.364,24.679,24.679,0,0,1-1,2.463,2.234,2.234,0,0,1-1.51,1.364,2.2,2.2,0,0,1-1.971-1.072,22.625,22.625,0,0,1-1.785-2.463c-.314-.5.465-.948.788-.461h0Z" transform="translate(-760.666 -382.116)" fill="#010d3d"/>
    <path id="Trazado_7615" data-name="Trazado 7615" d="M829.021,460.313a5.185,5.185,0,0,1-1.692,3.455.5.5,0,0,1-.7,0,18.36,18.36,0,0,1-3-3.641c-.35-.567.527-1.072.886-.518a19.939,19.939,0,0,0,2.808,3.464h-.7a4.181,4.181,0,0,0,1.453-2.759.477.477,0,0,1,.465-.465.465.465,0,0,1,.465.465h0Z" transform="translate(-781.055 -385.923)" fill="#010d3d"/>
    <g id="Grupo_5290" data-name="Grupo 5290" transform="translate(16.311 51.613)">
      <path id="Trazado_7616" data-name="Trazado 7616" d="M852.3,415.3a.535.535,0,0,1,.412.195l1.581,1.825c2.467-1.307,4.939-2.6,7.516-3.667q1-.419,2.033-.784a3.312,3.312,0,0,1,1.661-.284,1.453,1.453,0,0,1,1.152.979,1.722,1.722,0,0,1,.066.576,2.546,2.546,0,0,1,1.466-.12,1.7,1.7,0,0,1,1.36,1.648,2.89,2.89,0,0,1-1.231,2c-.142.128-.292.252-.425.394a1.935,1.935,0,0,0-.235.27.432.432,0,0,1-.04.1c.173.093.447.159.585.221.257.111.518.226.78.337.474.208.279.89-.133,1.028a3.34,3.34,0,0,0-1.785.966.954.954,0,0,0,.137,1.267.654.654,0,0,1,.128,1.014c-.673.744-1.36,1.475-2.1,2.148a11.342,11.342,0,0,1-2.383,1.8,6.857,6.857,0,0,1-2.768.815,11.917,11.917,0,0,0-2.179-.115c.2.66.372,1.333.585,1.989a.866.866,0,0,1-.824,1.081c-.7.08-1.4.155-2.1.235a.942.942,0,0,1-.9-.687c-1.705-4.792-2.365-9.824-3.242-14.811a.5.5,0,0,1,.886-.412Z" transform="translate(-850.235 -411.46)" fill="#fff"/>
      <path id="Trazado_7617" data-name="Trazado 7617" d="M856.355,417.94A21.034,21.034,0,0,1,860,414.007a20.727,20.727,0,0,1,2.17-1.546,27.6,27.6,0,0,1,2.392-1.524c1.47-.749,3.645-1.435,5.023-.115a1.949,1.949,0,0,1,.306,2.44,4.633,4.633,0,0,1-1.931,1.634c-.957.527-1.856,1.183-2.8,1.741q-.691.405-1.4.784a6.111,6.111,0,0,1-1.577.722c-.447.093-.895-.483-.483-.833a6.826,6.826,0,0,1,1.315-.766c.447-.239.935-.509,1.4-.78a24.707,24.707,0,0,0,2.511-1.643,8.343,8.343,0,0,0,1.085-1.045c.168-.186.434-.456.376-.735-.128-.625-1.426-.438-1.829-.363a10.437,10.437,0,0,0-2.755,1.072,19.179,19.179,0,0,0-2.365,1.453,18.623,18.623,0,0,0-4.252,3.915c-.368.487-1.2.027-.833-.487h0Z" transform="translate(-853.02 -410.077)" fill="#010d3d"/>
      <path id="Trazado_7618" data-name="Trazado 7618" d="M886.192,445.991c-.182-.319-.363-.629-.563-.939a4,4,0,0,1-.252-.54,1.538,1.538,0,0,0-.213-.319,3.6,3.6,0,0,1-.589-1.143,1.541,1.541,0,0,1-.084-.43.688.688,0,0,1,.013-.213c.009-.137.018-.159.018-.066a2.26,2.26,0,0,1,.027-.385c.036-.133.062-.142.08-.235v.319c-.049-.266-.093-.536-.151-.8a1.215,1.215,0,0,1,.009-.917.512.512,0,0,1,.784-.1c.248.195.244.492.306.766.058.248.133.492.208.735l-.155-.266c.062.062.075.08.044.053-.062-.049-.013-.013.142.111a1.787,1.787,0,0,1,.213.314c-.089-.124.111.111.151.182a1.5,1.5,0,0,1,.146.35,2.738,2.738,0,0,1,.151.7v.093c0-.058,0-.058,0,0a3.038,3.038,0,0,1,.049.4,1.284,1.284,0,0,0,.053.412c.053.168.124.323.164.5a6.716,6.716,0,0,0,.319,1.041c.2.518-.616.837-.881.372h0Z" transform="translate(-882.387 -426.793)" fill="#010d3d"/>
      <path id="Trazado_7619" data-name="Trazado 7619" d="M854.713,415.356c.926-.421,1.887-1.076,2.95-.735a1.957,1.957,0,0,1,1.236,2.241,4.118,4.118,0,0,1-1.67,2.365,17.157,17.157,0,0,1-2.6,1.8,18.158,18.158,0,0,1-3.282,1.435c-.7.226-1.005-.886-.306-1.1a15.307,15.307,0,0,0,5.572-3.078c.594-.518,1.466-1.32,1.107-2.21-.407-1.005-1.891-.066-2.489.186a.535.535,0,0,1-.709-.186.523.523,0,0,1,.186-.709h0Z" transform="translate(-839.273 -412.555)" fill="#010d3d"/>
      <path id="Trazado_7620" data-name="Trazado 7620" d="M862.2,425.314c.633.106,1.71.044,1.772.9.053.722-.678,1.129-1.191,1.475-.7.469-1.4.93-2.117,1.373-.359.221-.718.443-1.076.66a4.949,4.949,0,0,0-1.28.811l-.811-1.054a7.849,7.849,0,0,1,2.848-.842c.74-.12,1.807-.275,2.073.678.2.722-.421,1.608-.793,2.179A7.314,7.314,0,0,1,860,433.3a9.331,9.331,0,0,1-2.325,1.222,20.917,20.917,0,0,1-2.711.952,7.279,7.279,0,0,1-2.622.217c-.709-.08-1.825-.288-2.055-1.085a.349.349,0,0,1,.239-.421c.563-.137,1.147.2,1.7.3a5.652,5.652,0,0,0,2.024-.053,16.438,16.438,0,0,0,4.057-1.475,6.068,6.068,0,0,0,2.591-2.6,3.262,3.262,0,0,1,.2-.39c0-.137.058-.195.164-.168h-.075a8.784,8.784,0,0,0-1.005.2c-.735.19-1.431.527-2.17.7-.859.2-1.187-1.178-.354-1.293a4.944,4.944,0,0,0,1.519-.811c.438-.261.842-.5,1.258-.762s.833-.523,1.24-.788c.235-.155.469-.306.7-.461.115-.08.235-.155.35-.235.093-.146.133-.142.111.009l.337.261L861.9,426.4c-.713-.128-.408-1.2.3-1.081h0Z" transform="translate(-844.155 -418.562)" fill="#010d3d"/>
      <path id="Trazado_7621" data-name="Trazado 7621" d="M873.909,447.487a30.351,30.351,0,0,1,.837,2.932c.115.5.217.992.31,1.488a2.5,2.5,0,0,1-.027,1.608.5.5,0,0,1-.775.1,2.688,2.688,0,0,1-.447-1.475c-.067-.487-.146-.97-.239-1.453a29.912,29.912,0,0,0-.718-2.906c-.2-.682.833-.957,1.063-.292h0Z" transform="translate(-865.348 -430.708)" fill="#010d3d"/>
      <path id="Trazado_7622" data-name="Trazado 7622" d="M885.337,428.519a39.765,39.765,0,0,1-1.528-3.9c-.4-1.351-.678-2.768-.948-4.172s-.461-2.72-.629-4.088a38.8,38.8,0,0,1-.146-4.27.535.535,0,0,1,.988-.27,15.382,15.382,0,0,0,1.829,2.91,7.027,7.027,0,0,0,1.129,1.107,10.024,10.024,0,0,0,1.5.815c.594.314.146,1.076-.421,1a5.243,5.243,0,0,1-2.959-2.06,20.571,20.571,0,0,1-1.993-3.238l.988-.27c.04,1.391.244,2.782.368,4.163a37.577,37.577,0,0,0,.576,4.066c.27,1.346.625,2.64.974,3.951s.633,2.7,1.081,4.026c.177.523-.611.709-.811.221h0Z" transform="translate(-882.086 -410.903)" fill="#010d3d"/>
      <path id="Trazado_7623" data-name="Trazado 7623" d="M854.862,449.679c2.06.651,5.054-.066,6.263,2.1,2.037,5.448,3.021,11.325,5.7,16.516a30.124,30.124,0,0,1,2.206,6.467c.9,4.558.474,17.619-7.007,13.549a6.529,6.529,0,0,1-1.608-3.1c-2.848-8.15-5.218-16.485-5.882-25.127-.328-3.1-.726-6.2-1.129-9.292C853.3,449.971,854.224,449.572,854.862,449.679Z" transform="translate(-850.942 -432.129)" fill="#64d8cc"/>
    </g>
    <path id="Trazado_7624" data-name="Trazado 7624" d="M855.969,484.989c.7,2.875,1.4,5.745,2.077,8.624a14.214,14.214,0,0,1,.514,3.907,4.62,4.62,0,0,1-1.1,3.149c-.239.213-.722.013-.589-.341.195-.518.474-.988.629-1.524a6.025,6.025,0,0,0,.226-1.639,16.929,16.929,0,0,0-.625-3.955q-.923-4.013-1.82-8.03c-.1-.447.58-.638.691-.19h0Z" transform="translate(-824.652 -400.054)" fill="#010d3d"/>
    <path id="Trazado_7625" data-name="Trazado 7625" d="M794.412,301.506a5.947,5.947,0,0,1,3.924-1.55,48.045,48.045,0,0,1,5.049-.168,53.111,53.111,0,0,1,7.99.682c-.5-.709-1.028-1.409-1.572-2.086a1.074,1.074,0,0,1-.159-1.245,1.025,1.025,0,0,1,1.16-.474c4.761,1.98,9.66,4,14.82,4.544-.261-.416-.527-.833-.793-1.253a1.07,1.07,0,0,1,.917-1.594c4.168-.239,8.185,1.143,11.994,2.671,1.98.788,3.977,1.568,5.878,2.542a35.5,35.5,0,0,1,4.668,2.985,30.277,30.277,0,0,1,4.735,4.265,1.334,1.334,0,0,1,.2,1.568c-1.595,2.582-2.551,5.421-3.907,8.119a25.325,25.325,0,0,1-2.352,3.659,10.075,10.075,0,0,0-2.122,3.366.813.813,0,0,1-1.59-.217v-.2a.522.522,0,0,1-.137-.213c-.979-2.547-2.055-5.054-3.083-7.578a12.6,12.6,0,0,0-1.741-3.366c-.062.992-.177,1.984-.31,2.959a28.362,28.362,0,0,1-1.125,4.8.855.855,0,0,1-1.236.5c-2.5-1.165-3.867-3.814-5.346-5.993q-1.887-2.79-3.681-5.629c.049.5.151.974.252,1.484a7.75,7.75,0,0,1-.075,4.358,2.268,2.268,0,0,1,.19,1.723,1.327,1.327,0,0,1-1.936.784,31.657,31.657,0,0,1-7.441-8.074c0,.89,0,1.781,0,2.671,0,.811-.12,1.617-.115,2.432s.027,1.617.066,2.427a.893.893,0,0,1-1.652.447A35.791,35.791,0,0,1,813,315.268c-.12-.292-.244-.629-.385-.979a26.382,26.382,0,0,1-1.1,4.1c-.376,1.063-.819,2.436-2.2,2.405a2.634,2.634,0,0,1-1.661-.85c-.438-.385-.877-.771-1.315-1.152a1.339,1.339,0,0,1-.208-1.6c.239-.43.5-.842.771-1.245a21.744,21.744,0,0,1-4.3-3.729,1.239,1.239,0,0,1,.864-2.082c.682-.089,1.364-.2,2.042-.319-1.355-.806-2.7-1.63-4.048-2.449-1.121-.682-2.255-1.346-3.366-2.046-1.169-.744-2.294-1.559-3.486-2.268a1,1,0,0,1-.2-1.541Z" transform="translate(-792.403 -295.255)" fill="#010d3d"/>
  </g>
</svg>
