<svg xmlns="http://www.w3.org/2000/svg" width="233.796" height="187.437" viewBox="0 0 233.796 187.437">
  <g id="IICE_LandingCompliancePenal_Nivel1_6" transform="translate(-588.089 -241.987)">
    <g id="Grupo_5269" data-name="Grupo 5269" transform="translate(588.089 241.987)">
      <g id="Grupo_5267" data-name="Grupo 5267" transform="translate(0 0)">
        <path id="Trazado_7318" data-name="Trazado 7318" d="M698.268,247.136c-33.681-3.03-55.171-3.7-88.392,0-2.727.3-19.144,2.822-19.116,4.881.513,35.5,2.746,71.371,3.089,105.559-.1,1.688,1.294,2.743,3.625,2.576,34.226.482,67.781-6.872,102.013-6.862,1.8-11.476,1.291-83.823-1.219-106.154" transform="translate(-589.919 -243.782)" fill="#fff"/>
        <path id="Trazado_7319" data-name="Trazado 7319" d="M696.439,244.533c-10.959-1.011-21.938-1.874-32.938-2.289-9.989-.378-19.988-.346-29.971.154q-8.139.406-16.259,1.172c-3.946.365-7.9.712-11.825,1.3-3.052.457-6.094.992-9.111,1.647-1.49.324-2.976.677-4.431,1.124a10.682,10.682,0,0,0-2.9,1.212,1.98,1.98,0,0,0-.85,1.011,3.847,3.847,0,0,0-.041,1.14c.013.781.025,1.559.038,2.34q.08,4.573.192,9.145.217,9.041.532,18.077c.406,12.033.894,24.063,1.323,36.1.422,11.819.787,23.641.951,35.467.019,1.335-.047,2.7.047,4.031a3.039,3.039,0,0,0,1.31,2.321,4.887,4.887,0,0,0,2.967.715c1.455-.038,2.913.016,4.371.009,5.977-.022,11.954-.268,17.919-.652,11.882-.768,23.72-2.091,35.561-3.319s23.72-2.368,35.63-2.762q4.355-.146,8.711-.148a.833.833,0,0,0,.8-.611,104.538,104.538,0,0,0,.822-13.019c.214-7.284.274-14.571.28-21.856q.014-12.948-.224-25.9c-.148-8.279-.362-16.562-.709-24.835-.265-6.365-.564-12.739-1.184-19.081-.054-.564-.113-1.124-.176-1.688a.858.858,0,0,0-.831-.831.837.837,0,0,0-.831.831c.671,5.98.967,12.008,1.241,18.02.372,8.122.6,16.253.765,24.384q.264,12.958.283,25.915c.013,7.549-.031,15.1-.214,22.649-.117,4.73-.176,9.511-.727,14.216-.019.157-.038.315-.06.472.041-.315-.025.176-.041.277l.8-.611c-11.781,0-23.54.869-35.259,2s-23.389,2.5-35.108,3.508c-5.839.5-11.69.91-17.547,1.149q-4.4.18-8.8.22-2.206.019-4.412,0c-.983-.009-2.164.18-3.039-.387-.737-.476-.636-1.231-.646-2.009q-.024-2.149-.057-4.3-.066-4.327-.164-8.654-.2-8.739-.494-17.478c-.387-11.816-.863-23.625-1.294-35.441-.431-11.895-.819-23.792-1.023-35.7q-.019-1.115-.038-2.23c-.006-.368.019-.75-.016-1.115.009.082-.009.094-.066.224.041-.094.157-.173-.016,0a1.026,1.026,0,0,1,.145-.142c.107-.076-.054.038-.06.044.041-.028.079-.06.123-.085.079-.047.154-.1.236-.145a5.912,5.912,0,0,1,1.228-.539c.6-.214,1.206-.4,1.817-.573a91.4,91.4,0,0,1,9.29-1.978q1.984-.34,3.977-.636c.236-.035.472-.069.709-.1l.167-.022c.1-.013.208-.028.309-.041.945-.12,1.893-.214,2.841-.315,5.489-.586,10.991-1.083,16.5-1.461q14.918-1.02,29.88-.737c9.967.2,20.75.888,31.1,1.729q4.251.345,8.5.712c1.039.091,1.03-1.524,0-1.622h0Z" transform="translate(-588.089 -241.987)" fill="#010d3d"/>
      </g>
      <path id="Trazado_7320" data-name="Trazado 7320" d="M856.05,298.48a2.478,2.478,0,0,0-3.537.822c-1.808,1.647.063,4.8,2.349,4.459,3.067-.375,3.842-3.618,1.187-5.284Z" transform="translate(-768.743 -280.381)" fill="#f9d0dd"/>
      <path id="Trazado_7321" data-name="Trazado 7321" d="M632.7,310.99c-.246,2.642-.29,5.291-.324,7.942s-.038,5.184-.025,7.772c.025,5.24.129,10.474.239,15.715.063,2.985.142,5.968.217,8.953a.451.451,0,0,0,.447.447c10.984-1.118,21.966-2.2,32.979-2.985s21.912-1.379,32.881-1.767a141.559,141.559,0,0,1,18.458.057c.6.057.589-.869,0-.929a127.134,127.134,0,0,0-16.612-.167q-8.229.274-16.448.7-16.448.855-32.856,2.334c-6.141.551-12.282,1.134-18.4,1.861l.447.447c-.435-10.468-.428-20.952-.362-31.426.019-2.985.069-5.974-.094-8.956a.273.273,0,0,0-.545,0h0Z" transform="translate(-618.41 -289.08)" fill="#010d3d"/>
      <path id="Trazado_7322" data-name="Trazado 7322" d="M641.98,332.28q41.475-3.524,83.01-5.76" transform="translate(-625.009 -299.899)" fill="none" stroke="#64d8cc" stroke-width="1.11" stroke-dasharray="0 6.63"/>
      <path id="Trazado_7323" data-name="Trazado 7323" d="M638.391,370.959A86.016,86.016,0,0,1,647,357.109l-.589-.076c.913,2.028,1.845,4.047,2.778,6.065a.447.447,0,0,0,.765,0c2.22-3.527,4.384-7.092,6.569-10.644h-.734q1.781,2.811,3.546,5.634a.433.433,0,0,0,.781-.1,34.2,34.2,0,0,1,7.64-12.282l-.687-.088c1.219,2.645,2.434,5.3,3.681,7.927a.445.445,0,0,0,.762,0c1.234-2.009,2.438-4.025,3.757-5.984s2.642-3.905,3.9-5.9l-.548.069c2.982,3.527,6.16,6.881,9.089,10.452.372.453,1.027-.2.646-.646-2.989-3.515-6.235-6.8-9.24-10.3a.353.353,0,0,0-.548.069c-1.244,2.006-2.5,3.99-3.836,5.936s-2.715,3.864-3.981,5.851h.762c-1.206-2.652-2.45-5.288-3.688-7.923a.44.44,0,0,0-.687-.088,35.636,35.636,0,0,0-7.845,12.672l.781-.1q-1.781-2.811-3.552-5.628a.43.43,0,0,0-.734,0c-2.2,3.54-4.431,7.064-6.6,10.625h.765c-.961-2-1.918-4-2.894-6a.377.377,0,0,0-.646,0,75.082,75.082,0,0,0-8.355,14.105c-.1.227.22.425.337.2h0Z" transform="translate(-622.31 -309.911)" fill="#ef8aab"/>
      <path id="Trazado_7324" data-name="Trazado 7324" d="M796.069,328.809c.942-1.855,1.776-3.77,2.689-5.64.447-.913.92-1.814,1.389-2.715s.957-1.921,1.524-2.815h-.661c.86,1.2,1.8,2.349,2.671,3.543s1.719,2.415,2.529,3.659a.541.541,0,0,0,.923,0c1.606-2.806,3.171-5.637,4.752-8.459s3.105-5.678,4.749-8.459c.35-.6-.6-1.146-.923-.539-1.521,2.85-3.165,5.643-4.752,8.459s-3.187,5.628-4.746,8.462h.923q-1.266-1.88-2.636-3.681a34.775,34.775,0,0,0-2.881-3.445.385.385,0,0,0-.6.079c-.428.976-.96,1.915-1.43,2.872s-.9,1.883-1.351,2.825c-.894,1.871-1.8,3.766-2.51,5.716-.076.2.252.34.35.148h0Z" transform="translate(-730.329 -286.609)" fill="#ef8aab"/>
      <path id="Trazado_7325" data-name="Trazado 7325" d="M641.009,464.794a19.127,19.127,0,0,0-.176,3.6c-.006,1.187,0,2.447,0,3.672a.5.5,0,0,0,.5.5l6.938-.312a.51.51,0,0,0,.482-.365,25.218,25.218,0,0,0,.013-7.634.491.491,0,0,0-.35-.35,13.591,13.591,0,0,0-6.632.2.5.5,0,0,0,.268.967,12.5,12.5,0,0,1,6.1-.2l-.35-.35a23.648,23.648,0,0,1-.009,7.1l.482-.365-6.938.315.5.5c0-1.225,0-2.447-.013-3.672a19.211,19.211,0,0,0-.192-3.6.322.322,0,0,0-.617,0h0Z" transform="translate(-624.22 -393.8)" fill="#010d3d"/>
      <path id="Trazado_7326" data-name="Trazado 7326" d="M681.953,461.946a16.745,16.745,0,0,0,1.94-.173c.671-.072,1.345-.142,2.016-.22q1.937-.231,3.874-.457a34.506,34.506,0,0,1,3.955-.362c1.313,0,2.589-.091,3.886-.113.75-.013,1.5-.009,2.252.019.362.013.724.031,1.086.054a3.843,3.843,0,0,0,1.124,0,.441.441,0,0,0,.1-.8,5.573,5.573,0,0,0-1.927-.239c-.627-.028-1.294-.038-1.943-.035a28.433,28.433,0,0,0-4.009.217c-2.639.387-5.3.658-7.942,1-.724.094-1.452.192-2.176.3a20.271,20.271,0,0,0-2.305.359.235.235,0,0,0,.063.46h0Z" transform="translate(-652.233 -391.081)" fill="#010d3d"/>
      <path id="Trazado_7327" data-name="Trazado 7327" d="M755.335,459.135c5.168-.255,10.355-.236,15.526-.139.586.013.579-.879,0-.907a103.908,103.908,0,0,0-15.526.523c-.328.035-.34.539,0,.523Z" transform="translate(-702.494 -389.968)" fill="#010d3d"/>
      <path id="Trazado_7328" data-name="Trazado 7328" d="M683.4,473.877c.68.019,1.36-.044,2.044-.025.636.016,1.272.063,1.908.1s1.253.038,1.877.013a8.355,8.355,0,0,0,1.915-.23c.422-.123.362-.841-.107-.8-.652.06-1.291.176-1.943.211s-1.253.035-1.88.054-1.275.05-1.912.094a8.551,8.551,0,0,0-1.94.274.156.156,0,0,0,.041.305h0Z" transform="translate(-653.283 -400.203)" fill="#010d3d"/>
      <path id="Trazado_7329" data-name="Trazado 7329" d="M717.023,469.04a19.92,19.92,0,0,0,4.207-.321c1.373-.157,2.806-.29,4.207-.438s2.765-.324,4.151-.457a12.39,12.39,0,0,1,4.04.135c.513.12.734-.68.217-.79a12.946,12.946,0,0,0-4.11-.12c-1.373.142-2.774.343-4.157.529s-2.9.413-4.349.6c-.7.088-1.4.176-2.094.271a10.559,10.559,0,0,0-2.135.428.084.084,0,0,0,.022.164h0Z" transform="translate(-676.363 -396.1)" fill="#010d3d"/>
      <path id="Trazado_7330" data-name="Trazado 7330" d="M782.817,465.527c.025.028.173.12.063.019.069.063.076.139.173.192a2.178,2.178,0,0,0,.819.142,26.034,26.034,0,0,0,2.715,0c2.308-.05,4.617-.123,6.928-.107a.4.4,0,0,0,0-.8c-2.208.031-4.412.154-6.62.227-.9.028-1.792.047-2.689.063-.29.006-.579.013-.869.025a.817.817,0,0,0-.337.057c-.139.069-.019.057-.038.044a.1.1,0,0,0-.145.145h0Z" transform="translate(-721.473 -394.748)" fill="#010d3d"/>
      <path id="Trazado_7331" data-name="Trazado 7331" d="M684.081,483.688c.271.3.929.236,1.294.249.542.022,1.087.022,1.628.009,1.093-.025,2.186-.091,3.278-.176,2.507-.2,5.014-.431,7.523-.576.526-.031.529-.857,0-.825-2.513.157-5.017.413-7.523.63-1.093.094-2.182.189-3.278.258-.523.035-1.046.063-1.568.091-.381.019-1.061-.066-1.354.23a.079.079,0,0,0,0,.11h0Z" transform="translate(-653.836 -406.666)" fill="#010d3d"/>
      <path id="Trazado_7332" data-name="Trazado 7332" d="M738.565,479.067a3.585,3.585,0,0,1-1.323-.041c-.343-.1-.453.463-.069.5a28.817,28.817,0,0,0,4.718-.129l4.718-.3c.579-.038.583-.945,0-.907l-4.8.331a28.661,28.661,0,0,0-4.708.5l.2.469a3.591,3.591,0,0,1,1.272-.35c.044-.006.035-.085-.009-.079Z" transform="translate(-690.057 -403.809)" fill="#010d3d"/>
      <path id="Trazado_7333" data-name="Trazado 7333" d="M641.439,512.744a19.127,19.127,0,0,0-.176,3.6c-.006,1.187,0,2.447,0,3.672a.5.5,0,0,0,.5.5l6.938-.312a.51.51,0,0,0,.482-.365,25.218,25.218,0,0,0,.013-7.634.491.491,0,0,0-.35-.35,13.59,13.59,0,0,0-6.632.2.5.5,0,0,0,.268.967,12.5,12.5,0,0,1,6.1-.2l-.35-.35a23.646,23.646,0,0,1-.009,7.1l.482-.365-6.938.315.5.5c0-1.225,0-2.447-.013-3.672a19.211,19.211,0,0,0-.192-3.6.322.322,0,0,0-.617,0h0Z" transform="translate(-624.515 -426.65)" fill="#010d3d"/>
      <path id="Trazado_7334" data-name="Trazado 7334" d="M682.393,511.08a14.248,14.248,0,0,0,1.83-.129l2.922-.249c1.165-.094,2.327-.189,3.5-.255.617-.035,1.222.016,1.836,0s1.253-.054,1.88-.079,1.31-.044,1.962-.05c.309,0,.614-.006.923,0a2.425,2.425,0,0,0,.942-.069c.293-.12.488-.624.1-.8a3.955,3.955,0,0,0-1.656-.129c-.592.006-1.184.022-1.773.041s-1.206.044-1.808.082c-.639.041-1.26.173-1.9.23-2.22.2-4.447.353-6.664.624a13.14,13.14,0,0,0-2.164.321.235.235,0,0,0,.063.46h0Z" transform="translate(-652.535 -425.114)" fill="#010d3d"/>
      <path id="Trazado_7335" data-name="Trazado 7335" d="M741.823,507.383c3.086-.186,6.176-.343,9.265-.5,3.685-.189,7.369-.4,11.057-.523.847-.028,1.7-.05,2.545-.057.356,0,.709,0,1.064,0,.157,0,.318.016.475.006a.851.851,0,0,0,.5-.239.3.3,0,0,0,0-.416c-.444-.406-1.212-.271-1.782-.271-.727,0-1.455.013-2.182.028q-2.6.061-5.2.211c-3.7.208-7.4.485-11.095.794-1.553.129-3.1.3-4.648.447-.331.031-.34.542,0,.523h0Z" transform="translate(-693.236 -422.419)" fill="#010d3d"/>
      <path id="Trazado_7336" data-name="Trazado 7336" d="M683.839,521.827c.68.019,1.36-.044,2.044-.025.636.016,1.272.063,1.908.1s1.253.038,1.877.013a8.354,8.354,0,0,0,1.915-.23c.422-.123.362-.841-.107-.8-.652.06-1.291.176-1.943.211s-1.253.035-1.88.054-1.275.05-1.912.094a8.549,8.549,0,0,0-1.94.274.156.156,0,0,0,.041.305h0Z" transform="translate(-653.584 -433.053)" fill="#010d3d"/>
      <path id="Trazado_7337" data-name="Trazado 7337" d="M717.459,515.628c1.291.009,2.57-.11,3.858-.22,2.009-.173,4.018-.356,6.028-.51q6.524-.505,13.06-.942c1.464-.094,2.932-.208,4.4-.227a.41.41,0,0,0,0-.819c-3.263.069-6.538.422-9.788.7-4.381.368-8.755.8-13.126,1.231a30.586,30.586,0,0,0-4.45.627.084.084,0,0,0,.022.164h0Z" transform="translate(-676.664 -427.59)" fill="#010d3d"/>
      <path id="Trazado_7338" data-name="Trazado 7338" d="M684.528,530.506a2.867,2.867,0,0,0,1.329.2c.6.006,1.206,0,1.808-.013,1.505-.031,3.007-.113,4.51-.2,3.348-.2,6.689-.472,10.033-.718,1.486-.11,2.97-.217,4.456-.305.526-.031.529-.857,0-.825-6.169.378-12.329.938-18.492,1.376-.7.05-1.4.1-2.11.132a4.172,4.172,0,0,0-1.534.214.077.077,0,0,0,0,.132h0Z" transform="translate(-654.131 -438.371)" fill="#010d3d"/>
      <path id="Trazado_7339" data-name="Trazado 7339" d="M768.5,526.027a3.586,3.586,0,0,1-1.323-.041c-.343-.1-.453.463-.069.5a28.81,28.81,0,0,0,4.718-.129l4.718-.3c.579-.038.583-.945,0-.907l-4.8.331a28.656,28.656,0,0,0-4.708.5l.2.469a3.591,3.591,0,0,1,1.272-.35c.044-.006.035-.085-.009-.079Z" transform="translate(-710.568 -435.98)" fill="#010d3d"/>
      <path id="Trazado_7340" data-name="Trazado 7340" d="M642.859,557.814a19.132,19.132,0,0,0-.176,3.6c-.006,1.187,0,2.447,0,3.672a.5.5,0,0,0,.5.5l6.938-.312a.51.51,0,0,0,.482-.365,25.221,25.221,0,0,0,.013-7.634.491.491,0,0,0-.35-.349,13.59,13.59,0,0,0-6.632.2.5.5,0,0,0,.268.967,12.5,12.5,0,0,1,6.1-.2l-.35-.35a23.651,23.651,0,0,1-.009,7.1l.482-.365-6.938.315.5.5c0-1.225,0-2.447-.013-3.672a19.21,19.21,0,0,0-.192-3.6.322.322,0,0,0-.617,0h0Z" transform="translate(-625.488 -457.526)" fill="#010d3d"/>
      <path id="Trazado_7341" data-name="Trazado 7341" d="M683.813,554.966a16.752,16.752,0,0,0,1.94-.173c.671-.072,1.345-.142,2.016-.22q1.937-.231,3.874-.457a34.5,34.5,0,0,1,3.955-.362c1.313,0,2.589-.091,3.886-.113.75-.013,1.5-.009,2.252.019.362.013.724.031,1.086.054a3.843,3.843,0,0,0,1.124,0,.441.441,0,0,0,.1-.8,5.575,5.575,0,0,0-1.927-.239c-.627-.028-1.294-.038-1.943-.035a28.433,28.433,0,0,0-4.009.217c-2.639.387-5.3.658-7.942,1-.724.094-1.452.192-2.176.3a20.271,20.271,0,0,0-2.305.359.235.235,0,0,0,.063.46h0Z" transform="translate(-653.508 -454.807)" fill="#010d3d"/>
      <path id="Trazado_7342" data-name="Trazado 7342" d="M757.185,552.145c5.168-.255,10.355-.236,15.526-.139.586.013.579-.879,0-.907a103.907,103.907,0,0,0-15.526.523c-.328.035-.34.538,0,.523h0Z" transform="translate(-703.762 -453.687)" fill="#010d3d"/>
      <path id="Trazado_7343" data-name="Trazado 7343" d="M685.259,566.9c.68.019,1.36-.044,2.044-.025.636.016,1.272.063,1.908.1s1.253.038,1.877.013a8.361,8.361,0,0,0,1.915-.23c.422-.123.362-.841-.107-.8-.652.06-1.291.176-1.943.211s-1.253.035-1.88.054-1.275.05-1.912.094a8.55,8.55,0,0,0-1.94.274.156.156,0,0,0,.041.305h0Z" transform="translate(-654.557 -463.929)" fill="#010d3d"/>
      <path id="Trazado_7344" data-name="Trazado 7344" d="M718.873,562.06a19.918,19.918,0,0,0,4.207-.321c1.373-.157,2.806-.29,4.207-.438s2.765-.324,4.151-.457a12.391,12.391,0,0,1,4.04.135c.513.12.734-.68.217-.79a12.946,12.946,0,0,0-4.11-.12c-1.373.142-2.774.343-4.157.529s-2.9.413-4.349.6c-.7.088-1.4.176-2.094.271a10.564,10.564,0,0,0-2.135.428.084.084,0,0,0,.022.164Z" transform="translate(-677.63 -459.826)" fill="#010d3d"/>
      <path id="Trazado_7345" data-name="Trazado 7345" d="M784.667,558.537c.025.028.173.12.063.019.069.063.076.139.173.192a2.177,2.177,0,0,0,.819.142,26.016,26.016,0,0,0,2.715,0c2.308-.05,4.617-.123,6.928-.107a.4.4,0,0,0,0-.8c-2.208.031-4.412.154-6.62.227-.9.028-1.792.047-2.689.063-.29.006-.579.013-.869.025a.818.818,0,0,0-.337.057c-.139.069-.019.057-.038.044a.1.1,0,0,0-.145.145h0Z" transform="translate(-722.74 -458.467)" fill="#010d3d"/>
      <path id="Trazado_7346" data-name="Trazado 7346" d="M685.931,576.708c.271.3.929.236,1.294.249.542.022,1.086.022,1.628.009,1.093-.025,2.186-.091,3.278-.176,2.507-.2,5.014-.431,7.523-.576.526-.031.529-.857,0-.825-2.513.157-5.017.413-7.523.63-1.093.094-2.182.189-3.278.258-.523.035-1.046.063-1.568.091-.381.019-1.061-.066-1.354.23a.079.079,0,0,0,0,.11h0Z" transform="translate(-655.103 -470.392)" fill="#010d3d"/>
      <path id="Trazado_7347" data-name="Trazado 7347" d="M740.415,572.087a3.588,3.588,0,0,1-1.323-.041c-.343-.1-.453.463-.069.5a28.817,28.817,0,0,0,4.718-.129l4.718-.3c.579-.038.583-.945,0-.907l-4.8.331a28.662,28.662,0,0,0-4.708.5l.2.469a3.589,3.589,0,0,1,1.272-.35c.044-.006.035-.085-.009-.079Z" transform="translate(-691.325 -467.535)" fill="#010d3d"/>
      <path id="Trazado_7348" data-name="Trazado 7348" d="M648.42,464.167a2.518,2.518,0,0,0,.268,1.571l.523,1.367a.994.994,0,0,0,1.641.431c1.833-1.833,3.625-3.71,5.429-5.571a1.022,1.022,0,0,0,0-1.42,1.01,1.01,0,0,0-1.42,0c-1.8,1.864-3.625,3.71-5.4,5.6l1.54.2-.592-1.338a2.465,2.465,0,0,0-.9-1.285.753.753,0,0,0-1.09.444h0Z" transform="translate(-629.383 -391.517)" fill="#64d8cc"/>
      <path id="Trazado_7349" data-name="Trazado 7349" d="M650.11,513.477l-.028.013a.426.426,0,0,0-.211.368,5.564,5.564,0,0,0,.113,1.332c.079.387.246.759.283,1.14a.979.979,0,0,0,1.644.68c.989-.772,1.883-1.7,2.8-2.548L657.5,511.9a1,1,0,1,0-1.42-1.42l-2.775,2.576c-.92.853-1.912,1.669-2.756,2.595h1.36a3.951,3.951,0,0,1-.6-.954c-.2-.362-.412-.712-.646-1.052a.423.423,0,0,0-.368-.211.537.537,0,0,0-.186.044h0Z" transform="translate(-630.411 -425.726)" fill="#64d8cc"/>
      <path id="Trazado_7350" data-name="Trazado 7350" d="M653.3,556.689a5.5,5.5,0,0,0,.167,1.5c.057.246.091.491.161.737s.167.472.211.718a.952.952,0,0,0,1.389.567,12.3,12.3,0,0,0,1.647-1.594l1.423-1.477,2.945-3.052a1.025,1.025,0,0,0,0-1.42,1,1,0,0,0-1.42,0l-2.935,3.061-1.42,1.48a12.1,12.1,0,0,0-1.537,1.7l1.486-.192a3,3,0,0,1-.3-.491c-.117-.2-.255-.381-.368-.579a12.417,12.417,0,0,0-.7-1.165.408.408,0,0,0-.753.2h0Z" transform="translate(-632.758 -454.628)" fill="#64d8cc"/>
      <g id="Grupo_5268" data-name="Grupo 5268" transform="translate(33.398 3.632)">
        <path id="Trazado_7351" data-name="Trazado 7351" d="M694.14,258.779l.283,4.176.513-.022-.283-4.173Z" transform="translate(-694.14 -257.11)" fill="#64d8cc"/>
        <path id="Trazado_7352" data-name="Trazado 7352" d="M700.782,262.1a1.343,1.343,0,0,0-.646.18.947.947,0,0,0-.4.46l-.085-.526-.482.019a6.428,6.428,0,0,1,.107.825l.145,2.123.507-.019-.113-1.688a.873.873,0,0,1,.217-.69.942.942,0,0,1,.683-.28.737.737,0,0,1,.564.17.893.893,0,0,1,.214.6l.126,1.83.507-.019L702,263.227a1.048,1.048,0,0,0-1.209-1.121Z" transform="translate(-697.586 -259.398)" fill="#64d8cc"/>
        <path id="Trazado_7353" data-name="Trazado 7353" d="M711.406,258.885l-.768.031-.028-.394a.587.587,0,0,1,.11-.46.534.534,0,0,1,.381-.148,1.235,1.235,0,0,1,.328.035l-.028-.4a1.764,1.764,0,0,0-.428-.038.938.938,0,0,0-.674.265.9.9,0,0,0-.2.709l.031.45-.611.025.025.375.611-.025.176,2.573.507-.019-.176-2.573.768-.031-.025-.375Z" transform="translate(-704.676 -256.252)" fill="#64d8cc"/>
        <path id="Trazado_7354" data-name="Trazado 7354" d="M719.951,262.088a1.347,1.347,0,0,0-.557-.513,1.63,1.63,0,0,0-.794-.157,1.58,1.58,0,0,0-.768.217,1.239,1.239,0,0,0-.485.554,1.66,1.66,0,0,0-.129.816,1.756,1.756,0,0,0,.239.8,1.346,1.346,0,0,0,.557.513,1.721,1.721,0,0,0,1.562-.06,1.239,1.239,0,0,0,.485-.554,1.659,1.659,0,0,0,.129-.816,1.731,1.731,0,0,0-.239-.8Zm-.469,1.679a.87.87,0,0,1-.7.318.929.929,0,0,1-.74-.261,1.282,1.282,0,0,1-.312-.838,1.215,1.215,0,0,1,.2-.847.875.875,0,0,1,.7-.324.918.918,0,0,1,.731.268,1.263,1.263,0,0,1,.312.825,1.232,1.232,0,0,1-.192.857Z" transform="translate(-709.946 -258.93)" fill="#64d8cc"/>
        <path id="Trazado_7355" data-name="Trazado 7355" d="M730.2,260.95a1.113,1.113,0,0,0-.589.183.887.887,0,0,0-.35.472l-.088-.545-.482.019a6.427,6.427,0,0,1,.107.825l.145,2.123.507-.019-.113-1.682a.945.945,0,0,1,.176-.655.812.812,0,0,1,.658-.293,1.008,1.008,0,0,1,.334.035l-.016-.435a1.212,1.212,0,0,0-.29-.025Z" transform="translate(-717.809 -258.61)" fill="#64d8cc"/>
        <path id="Trazado_7356" data-name="Trazado 7356" d="M739.41,260.42a1.253,1.253,0,0,0-.617.18,1,1,0,0,0-.394.435.853.853,0,0,0-.378-.419,1.2,1.2,0,0,0-.62-.117,1.13,1.13,0,0,0-.592.176.918.918,0,0,0-.362.45l-.085-.513-.482.019a6.438,6.438,0,0,1,.107.825l.145,2.123.507-.019-.113-1.682a.982.982,0,0,1,.18-.7.782.782,0,0,1,.611-.277.626.626,0,0,1,.513.17.945.945,0,0,1,.2.6l.126,1.83.507-.019-.113-1.682a.982.982,0,0,1,.18-.7.77.77,0,0,1,.608-.277.629.629,0,0,1,.51.167.979.979,0,0,1,.2.6l.126,1.83.507-.019-.126-1.852q-.08-1.167-1.121-1.127Z" transform="translate(-722.735 -258.247)" fill="#64d8cc"/>
        <path id="Trazado_7357" data-name="Trazado 7357" d="M754.838,262.661a1.074,1.074,0,0,1-.809-.255,1.247,1.247,0,0,1-.337-.838l2.305-.091-.006-.088a1.549,1.549,0,0,0-.428-1.046,1.314,1.314,0,0,0-1.008-.346,1.5,1.5,0,0,0-.756.224,1.289,1.289,0,0,0-.488.564,1.652,1.652,0,0,0-.132.809,1.517,1.517,0,0,0,.494,1.1,1.627,1.627,0,0,0,1.184.362,2.107,2.107,0,0,0,.652-.132,1.456,1.456,0,0,0,.507-.309l-.192-.34a1.6,1.6,0,0,1-.989.384Zm-.875-2.047a.907.907,0,0,1,.624-.249.856.856,0,0,1,.63.192,1.009,1.009,0,0,1,.3.624l-1.83.072A1.007,1.007,0,0,1,753.963,260.614Z" transform="translate(-734.582 -257.956)" fill="#64d8cc"/>
        <path id="Trazado_7358" data-name="Trazado 7358" d="M771.5,259.415l.035.51a1.068,1.068,0,0,0-.447-.413,1.461,1.461,0,0,0-1.37.094,1.249,1.249,0,0,0-.453.561,1.73,1.73,0,0,0-.12.813,1.788,1.788,0,0,0,.227.794,1.313,1.313,0,0,0,.523.51,1.416,1.416,0,0,0,.746.157,1.318,1.318,0,0,0,.636-.176.923.923,0,0,0,.387-.441l.038.532.5-.019-.2-2.951-.5.019Zm-.094,2.312a.857.857,0,0,1-.693.324.931.931,0,0,1-.743-.265,1.254,1.254,0,0,1-.312-.822,1.212,1.212,0,0,1,.2-.85.881.881,0,0,1,.7-.331.9.9,0,0,1,.731.265,1.28,1.28,0,0,1,.305.828A1.231,1.231,0,0,1,771.409,261.727Z" transform="translate(-745.522 -257.539)" fill="#64d8cc"/>
        <path id="Trazado_7359" data-name="Trazado 7359" d="M782.792,258.87a1.343,1.343,0,0,0-.646.18.948.948,0,0,0-.4.46l-.085-.526-.482.019a6.427,6.427,0,0,1,.107.825l.145,2.123.507-.019-.113-1.688a.873.873,0,0,1,.217-.69.955.955,0,0,1,.683-.28.736.736,0,0,1,.564.17.894.894,0,0,1,.217.6l.126,1.83.5-.019L784.011,260a1.048,1.048,0,0,0-1.209-1.121Z" transform="translate(-753.769 -257.185)" fill="#64d8cc"/>
        <path id="Trazado_7360" data-name="Trazado 7360" d="M795.015,258.522l.113,1.666a.876.876,0,0,1-.211.68.887.887,0,0,1-.658.28.719.719,0,0,1-.545-.167.846.846,0,0,1-.214-.579l-.123-1.817-.507.019.126,1.83a1.223,1.223,0,0,0,.346.857,1.161,1.161,0,0,0,.863.261,1.261,1.261,0,0,0,.6-.164.955.955,0,0,0,.391-.428l.035.51.494-.019-.2-2.951-.507.019Z" transform="translate(-761.778 -256.932)" fill="#64d8cc"/>
        <path id="Trazado_7361" data-name="Trazado 7361" d="M806.443,258.035l.035.51a1.068,1.068,0,0,0-.447-.413,1.334,1.334,0,0,0-.655-.126,1.317,1.317,0,0,0-.715.224,1.25,1.25,0,0,0-.453.561,1.729,1.729,0,0,0-.12.812,1.789,1.789,0,0,0,.227.794,1.313,1.313,0,0,0,.523.51,1.455,1.455,0,0,0,.746.161,1.319,1.319,0,0,0,.636-.176.923.923,0,0,0,.387-.441l.038.532.5-.019-.2-2.951-.5.019Zm-.094,2.312a.857.857,0,0,1-.693.324.931.931,0,0,1-.743-.265,1.255,1.255,0,0,1-.312-.822,1.212,1.212,0,0,1,.2-.85.881.881,0,0,1,.7-.331.9.9,0,0,1,.731.265,1.28,1.28,0,0,1,.305.828,1.236,1.236,0,0,1-.192.85Z" transform="translate(-769.459 -256.593)" fill="#64d8cc"/>
        <path id="Trazado_7362" data-name="Trazado 7362" d="M816.494,253.52l-.5.019.293,4.314.507-.019Z" transform="translate(-777.617 -253.52)" fill="#64d8cc"/>
      </g>
    </g>
    <g id="Grupo_5272" data-name="Grupo 5272" transform="translate(692.995 277.836)">
      <path id="Trazado_7363" data-name="Trazado 7363" d="M984.848,400.681a6.9,6.9,0,0,0-.2-4.245,8.587,8.587,0,0,0-3.367-4.979,6.6,6.6,0,0,0-3.423-8.613c.724-2.57,1.137-5.558-.135-7.949.331-.46.652-.926.983-1.389,2.743.025,4.264-3.518,4.6-5.845a6.469,6.469,0,0,0-.781-4.547,4.96,4.96,0,0,0-3.023-2.053,4.4,4.4,0,0,0-2.038.031c-.013-.091-.025-.176-.041-.268a8.541,8.541,0,0,0-.929-2.006,5.551,5.551,0,0,0-3.5-2.686,7.645,7.645,0,0,0-8.251,2.686,6.962,6.962,0,0,0-1.234,2.869,7.415,7.415,0,0,0-6.207-1.379,6.825,6.825,0,0,0-5.092,6.324,7.431,7.431,0,0,0,.258,2.57,8.806,8.806,0,0,0-7.864,3.206,10.922,10.922,0,0,0-1.981,9.857,11.2,11.2,0,0,0,1.861,3.795,6.956,6.956,0,0,0-3.124,4.182c-.784,2.482-.5,5.366,1.723,7a4.381,4.381,0,0,0,1.65.746,10.375,10.375,0,0,0-.92,5.889c.34,2.368,1.76,4.736,4.2,5.354a4.607,4.607,0,0,0,2.016.072c-.22,1.039-.551,2.06-.724,3.111a6.753,6.753,0,0,0,.416,3.918,3.851,3.851,0,0,0,3.178,2.312,6.288,6.288,0,0,0,4.122-1.285,7.771,7.771,0,0,0,1.883-1.971,7.342,7.342,0,0,0,4.538,2.859,6.533,6.533,0,0,0,6.648-2.916,6.148,6.148,0,0,0,.516-.973c.1.088.211.17.328.252a4.244,4.244,0,0,0,3.442.649,4.506,4.506,0,0,0,3.168-3.738,5.836,5.836,0,0,0,5.2-1.94,6.508,6.508,0,0,0,.589-6.988,3.739,3.739,0,0,0,1.512-1.908Z" transform="translate(-934.749 -355.821)" fill="#00b2e3"/>
      <path id="Trazado_7364" data-name="Trazado 7364" d="M934.036,528.939c-.413-.3-.85-.57-1.279-.844a14.683,14.683,0,0,0-6.377-2.57.746.746,0,0,0-.564.23c-.277-.11-.542-.22-.806-.34a.818.818,0,0,0-.964.123l-.019.025a.886.886,0,0,0-.157.318l-.022-.009v.016a.8.8,0,0,0,.359.9,20.821,20.821,0,0,0,2.806,1.146c-.038.072-.076.145-.11.217-.107.132-.227.252-.343.378a2.378,2.378,0,0,0-.639,1,1.408,1.408,0,0,0,0,.687c.025.107.079.208.107.315a.181.181,0,0,1-.016.025c-.025.035-.025.035-.019.028l-.006.009c-.031.038-.066.072-.1.11-.069.072-.142.139-.214.211a1.794,1.794,0,0,0-.375.52,1.267,1.267,0,0,0,.132,1.414,1,1,0,0,0,.359.23,1.432,1.432,0,0,0,.394,1.351,1.746,1.746,0,0,0,1.468.494,2.963,2.963,0,0,0,.806-.214c.252-.1.513-.271.768-.35a2.125,2.125,0,0,1,.529-.079c.031,0,.337-.006.239-.019a2.448,2.448,0,0,1,.441.113,2.443,2.443,0,0,0,1.572.038,2.652,2.652,0,0,0,1.19-.951,10.374,10.374,0,0,0,1.216-2.7,2.433,2.433,0,0,0,.211-.838,1.211,1.211,0,0,0-.586-.973Z" transform="translate(-922.996 -471.939)" fill="#fff"/>
      <path id="Trazado_7365" data-name="Trazado 7365" d="M996.241,726.565c0-.069.009-.135.016-.2a.835.835,0,0,0-.831-.831.894.894,0,0,0-.394.11c-.009,0-.016-.006-.025-.006a.868.868,0,0,0-.309.025,2.152,2.152,0,0,0-1.42.586c-.866.816-.787,2.113-.8,3.2a64.569,64.569,0,0,1-1.679,13.888,20.184,20.184,0,0,1-2.192,6.207,18.987,18.987,0,0,1-1.918,2.5c-.11.129-.224.261-.334.4a16.015,16.015,0,0,0-2.913,2.926.829.829,0,0,0,.107.979c-.019.028-.038.053-.057.082-.217.315.246.624.507.391.079-.069.151-.142.23-.211a.793.793,0,0,0,.35-.107l3.111-1.852c.913-.545,1.845-1.068,2.708-1.691a9.025,9.025,0,0,0,2.267-2.242,8.928,8.928,0,0,0,1.2-3.089c.5-2.286.838-4.623,1.178-6.938q.529-3.614.916-7.246.189-1.786.34-3.578c.05-.614.1-1.228.145-1.842a2.767,2.767,0,0,0-.208-1.455Z" transform="translate(-963.762 -609.099)" fill="#fff"/>
      <path id="Trazado_7366" data-name="Trazado 7366" d="M1066.921,749.744a26.477,26.477,0,0,1-2.019-1.927,14.108,14.108,0,0,1-2.563-4.768,17.864,17.864,0,0,1-.532-2.123c-.031-.183-.066-.368-.1-.551a43.438,43.438,0,0,1-.019-10.351,16.9,16.9,0,0,0-.579-7.341.827.827,0,0,0-1.594,0q-.113.534-.208,1.077a.447.447,0,0,0-.872-.057c-.038.23-.079.46-.117.69a.916.916,0,0,0-.419.709,33.271,33.271,0,0,0-.161,6.648,44.984,44.984,0,0,0,1.134,6.654,26.879,26.879,0,0,1,.586,3.168,26.607,26.607,0,0,1,.082,3.36,31.479,31.479,0,0,0-.057,3.269,3.041,3.041,0,0,0,.507,1.594,5.406,5.406,0,0,0,1.212,1.121c1.845,1.37,3.99,2.708,6.387,2.2a.844.844,0,0,0,.608-.8,3.372,3.372,0,0,0-1.276-2.576Z" transform="translate(-1014.677 -606.735)" fill="#fff"/>
      <path id="Trazado_7367" data-name="Trazado 7367" d="M986.179,806.273a.826.826,0,0,0-.2-.387.7.7,0,0,0-.22-.176.838.838,0,0,0-.838.013.968.968,0,0,0-.422.63c-.006.028-.009.057-.013.082l-.816.482a6.435,6.435,0,0,0-.935.608,2.511,2.511,0,0,0-.312.18c-.337.227-.664.472-.992.721-.7.526-1.379,1.074-2.069,1.612-.258.2-.457.356-.731.564a.853.853,0,0,0-.57.088c-.12.066-.242.129-.365.186l-.167.076c-.05.022-.057.025-.013.006l-.085.035c-.258.094-.516.18-.784.249-.047.013-.1.022-.145.031a.837.837,0,0,0-1.1-.268,7.579,7.579,0,0,0-1.48,1.09c-.176.145-.35.293-.52.441a1.139,1.139,0,0,0-.346.5c-.047.057-.091.113-.135.17-.359.469.06,1.049.494,1.219a3.328,3.328,0,0,0,3.3-.614,24.011,24.011,0,0,0,3.681-2.494c.321-.252.642-.507.964-.759l.482-.378c.031-.025.066-.05.1-.076l.047-.035c.082-.063.164-.123.242-.186.324-.246.655-.488.989-.721.057-.038.11-.082.164-.123.016.022.028.044.047.066a1.181,1.181,0,0,0,1.468.29,2.465,2.465,0,0,0,.866-1.061,4.116,4.116,0,0,0,.381-1.42.746.746,0,0,0-.009-.189c.006-.013.016-.019.019-.031a.3.3,0,0,0,.041-.154.436.436,0,0,0-.013-.246Z" transform="translate(-956.537 -663.957)" fill="#010d3d"/>
      <path id="Trazado_7368" data-name="Trazado 7368" d="M1070.841,807.246a6.75,6.75,0,0,0-1.31-.709,1.4,1.4,0,0,0-.973-.132,2.032,2.032,0,0,0-.624.431,1.615,1.615,0,0,1-1.023.312c-.022-.006-.044-.009-.063-.016-.4-.154-.809-.312-1.212-.463-.113-.044-.23-.085-.35-.129l-.091-.044a1.018,1.018,0,0,0-.293-.091c-.224-.079-.453-.161-.68-.249a12.8,12.8,0,0,1-1.313-.869c-.2-.151-.387-.312-.57-.479s-.409-.328-.6-.516a4.329,4.329,0,0,1-.482-.589,4.232,4.232,0,0,0-.46-.664.394.394,0,0,0-.309-.107.678.678,0,0,0-1.162.258,2.514,2.514,0,0,0,.243,1.556c.038.082.079.167.123.252a1.563,1.563,0,0,0,.1.189,3.132,3.132,0,0,0,.513.7,1.419,1.419,0,0,0,.938.412c.025.01.047.022.072.031a.538.538,0,0,0,.579-.116,8.863,8.863,0,0,0,2.075,1.216.693.693,0,0,0,.217.372,8.876,8.876,0,0,0,3.505,1.6c.287.085.573.173.857.274l.227.085.047.019.022.009c.145.063.283.132.425.2a4.257,4.257,0,0,0,2.107.655.777.777,0,0,0,.737-.561,2.87,2.87,0,0,0-1.282-2.834Z" transform="translate(-1015.807 -661.966)" fill="#010d3d"/>
      <path id="Trazado_7369" data-name="Trazado 7369" d="M1023.953,616.675a24.081,24.081,0,0,0-1.228-7.2c-1.326-3.659-4.327-7.177-8.358-7.788a12.39,12.39,0,0,0-7.174,1.423,12.11,12.11,0,0,0-2.948,1.811,6.449,6.449,0,0,0-1.723,2.907c-.372,1.165-.624,2.371-.92,3.555-.315,1.269-.633,2.535-.945,3.8a57.859,57.859,0,0,0-1.449,7.609c-.019.176-.031.346-.047.523-.482,3.215-.894,6.44-1.468,9.643a61.3,61.3,0,0,1-1.518,6.591.636.636,0,0,0,.435.762,38.856,38.856,0,0,0,10.38,2.475,39.548,39.548,0,0,0,10.663-.409,37.634,37.634,0,0,0,5.81-1.5.641.641,0,0,0,.457-.6q.033-7.969.066-15.935c.013-2.557.076-5.124-.031-7.681Z" transform="translate(-972.551 -524.192)" fill="#010d3d"/>
      <path id="Trazado_7370" data-name="Trazado 7370" d="M1029.1,518.311c-.06-.743-.135-1.49-.227-2.23-.05-.409-.1-.819-.164-1.225a3.222,3.222,0,0,0-.287-1.1c-.463-.8-1.4-.683-2.2-.7-.428-.009-.857-.016-1.282-.019a6.549,6.549,0,0,0-1.36.006c-.743.013-1.486.041-2.227.1-.472.038-1.014.117-1.146.664a.769.769,0,0,0,.088.567.751.751,0,0,0,.028.3,39.668,39.668,0,0,0,5.165,10.638q.973,1.412,2.063,2.74a.822.822,0,0,0,.907.17.861.861,0,0,0,.51-.759,49.361,49.361,0,0,0,.135-9.152Z" transform="translate(-989.022 -463.505)" fill="#f9d0dd"/>
      <path id="Trazado_7371" data-name="Trazado 7371" d="M989.883,539.921a1.68,1.68,0,0,0,.315-.142,1.559,1.559,0,0,1,.063-.315c.06-.173.126-.346.192-.516.135-.34.277-.677.416-1.017a10.841,10.841,0,0,0,.592-1.871,14.768,14.768,0,0,0-.548-6.872c-.469-1.653-1.105-3.253-1.707-4.862a54.786,54.786,0,0,1-5.9-10.723c-.74-2.085-2.016-1.767-3.8-2.264-3.291-.718-13.224-.413-15.441,2.164-2.664,5.571-5.032,11.306-7.558,16.946-1.382-3.146-3.067-6.141-4.61-9.208a.6.6,0,0,0-.813-.214,18.755,18.755,0,0,0-4.214,4.091c-.724,1.086.151,2.349.444,3.448a41.729,41.729,0,0,0,6.894,12.219,1.113,1.113,0,0,0,1.723.853c4.11-3.823,6.818-8.966,9.095-14.039,3.064,7.549,3.08,8.915,2.028,16.974-.242,1.874-.548,3.744-.907,5.6a.6.6,0,0,0,.753.721,8.452,8.452,0,0,0,2.73.368,37.592,37.592,0,0,0,11.347-1.392c.753-.328,1.086-1.713,1.477-2.371a2.421,2.421,0,0,0,3.209,1.886c1.631-.2,2.664-.321,4.3-.523.315-.038.63-.239.589-.589-.494-3.943-.494-5.347-.671-8.355ZM977.5,524.194c-.06.687-.107,1.4-.2,2.091-2.138-4.582-4.6-9.029-6.166-13.863a38.152,38.152,0,0,1,6-.274A69.358,69.358,0,0,1,977.5,524.194Z" transform="translate(-938.596 -462.132)" fill="#fff"/>
      <path id="Trazado_7372" data-name="Trazado 7372" d="M1006.639,407.992a19.939,19.939,0,0,1-1.647-2.913,12.864,12.864,0,0,1-.775-3.508c-.164-1.423-.328-2.844-.435-4.27-.107-1.445-.1-2.9-.2-4.343-.019-.293-.428-.554-.655-.271-.576.724-1.864,1.8-2.822,1.083-.768-.573-.6-1.836-.438-2.648a.24.24,0,0,0-.463-.126,9.219,9.219,0,0,1-2.768,3.8,8.891,8.891,0,0,1-2.028,1.235,3.611,3.611,0,0,1-1.279.391,1.355,1.355,0,0,1-1.014-.447,3.64,3.64,0,0,1-.57-2.9c.025-.324-.463-.312-.5,0a8.82,8.82,0,0,1-1.962,4.62,3.119,3.119,0,0,1-1.953,1.269,1.405,1.405,0,0,1-1.518-.926c-.072-.277-.447-.192-.472.063a26.1,26.1,0,0,1-1,5.086c-.246.819-.529,1.622-.847,2.415-.047.12-.306.813-.469.658-.031-.028-.047-.139-.057-.173-.035-.126-.066-.255-.1-.384-.057-.224-.117-.45-.176-.674a.255.255,0,0,0-.047-.1,2,2,0,0,0-.52-1.19c.063.063.132.1-.088-.12a1.025,1.025,0,0,0-.255-.176,3.134,3.134,0,0,0-.394-.176,2.7,2.7,0,0,0-3.436,1.556,7.427,7.427,0,0,0-.538,1.616,6.333,6.333,0,0,0-.142,1.962,3.227,3.227,0,0,0,.7,1.77,3.039,3.039,0,0,0,1.32.942,2.165,2.165,0,0,0,1.77-.217,21.946,21.946,0,0,0,.52,2.312c.3,1.241.564,2.491.882,3.729a11.427,11.427,0,0,0,1.219,3.137,8.885,8.885,0,0,0,1.845,2.182,11.935,11.935,0,0,0,5.24,2.513,14.786,14.786,0,0,0,6.475-.2,21.02,21.02,0,0,0,3.011-.986.516.516,0,0,0,.066.214.548.548,0,0,0,.74.192,15.3,15.3,0,0,0,4.8-3.792,15.881,15.881,0,0,0,1.751-2.513,10.62,10.62,0,0,0,1.253-3.124c.45-2.415-.784-4.614-2.034-6.576Zm-25.858-3.225h0a.032.032,0,0,0-.009,0s-.009,0-.013-.009A.09.09,0,0,1,980.781,404.767Zm-.312-.094h-.019a.245.245,0,0,1-.041,0Z" transform="translate(-959.46 -379.804)" fill="#fff"/>
      <path id="Trazado_7373" data-name="Trazado 7373" d="M1026.767,496.976c-.22-.646-.45-1.291-.674-1.937q-.761-2.187-1.524-4.371a.839.839,0,0,0-.91-.6.822.822,0,0,0-.721.816.359.359,0,0,0,.009.057.837.837,0,0,0-.712.057.861.861,0,0,0-.2.18.4.4,0,0,0-.589.236,2.83,2.83,0,0,0-.057.488,4.5,4.5,0,0,0,.094.539c.057.328.117.649.2.973.157.642.35,1.272.561,1.9s.45,1.241.7,1.855.491,1.263.794,1.864a1.835,1.835,0,0,0,1.524,1.121,1.741,1.741,0,0,0,1.559-1.017,2.838,2.838,0,0,0-.044-2.16Z" transform="translate(-989.838 -447.789)" fill="#fff"/>
      <path id="Trazado_7374" data-name="Trazado 7374" d="M980.415,430.2a1.893,1.893,0,0,0-.2-.737,1.921,1.921,0,0,0-.469-.762,2.661,2.661,0,0,0-1.609-.573,3.28,3.28,0,0,0-2.9,2.053,5.4,5.4,0,0,0-.167,3.937,6.635,6.635,0,0,0,.866,1.7,4.557,4.557,0,0,0,1.351,1.37c1.562.929,2.819-1.023,2.749-2.425a.221.221,0,0,0-.409-.11c-.34.611-.406,1.417-.976,1.886-.661.545-1.36-.013-1.827-.529a4.806,4.806,0,0,1-1.093-3.593,3.719,3.719,0,0,1,1.675-3.052,1.622,1.622,0,0,1,1.357-.022,7.408,7.408,0,0,1,.661.4,1.3,1.3,0,0,1,.5.586.267.267,0,0,0,.494-.132h0Z" transform="translate(-957.906 -405.355)" fill="#010d3d"/>
      <path id="Trazado_7375" data-name="Trazado 7375" d="M989.189,414.208c-.028.526-.126,1.055-.12,1.581.006.576.028,1.146.085,1.716a23.147,23.147,0,0,0,.529,3.25,12.512,12.512,0,0,0,2.882,5.612c3.146,3.373,7.889,4.163,12.288,3.568,4.135-.561,8.386-2.176,10.821-5.754a10.806,10.806,0,0,0,1.877-5.7,8.14,8.14,0,0,0-.476-3.02,18.916,18.916,0,0,0-1.556-2.945,22.344,22.344,0,0,1-2.623-7.174c-.246-1.285-.416-2.579-.548-3.88a26.977,26.977,0,0,0-.488-3.829c-.082-.324-.523-.224-.551.076a17.156,17.156,0,0,0,.11,3.338c.11,1.112.239,2.208.413,3.3a27.322,27.322,0,0,0,1.653,6.21c.822,1.984,2.192,3.719,2.746,5.8a8.609,8.609,0,0,1-.46,5.517c-1.581,3.779-5.269,5.864-9.108,6.733-4.135.935-8.808.762-12.241-2a10.734,10.734,0,0,1-3.521-5.527,20.492,20.492,0,0,1-.642-3.322c-.066-.57-.123-1.143-.183-1.716-.066-.62-.2-1.225-.271-1.845a.307.307,0,0,0-.614,0h0Z" transform="translate(-967.697 -384.328)" fill="#010d3d"/>
      <path id="Trazado_7376" data-name="Trazado 7376" d="M1042.806,427.458l-.009-.006-.06.079h.06l-.183-.1a4.8,4.8,0,0,1,.252,1.027c.107.441.233.882.362,1.316.249.85.545,1.691.806,2.538s.51,1.65.753,2.478c.255.879.63,1.732.866,2.611l.283-.5a5.57,5.57,0,0,1-3.864-.816c-.432-.271-.828.416-.4.68a6.552,6.552,0,0,0,4.475.913.41.41,0,0,0,.283-.5c-.129-.488-.186-1-.3-1.5s-.233-.938-.369-1.4c-.277-.951-.561-1.9-.869-2.841s-.608-1.83-.976-2.724c-.145-.346-.624-1.968-1.228-1.575a.214.214,0,0,0-.044.331c.025.025.053.05.079.072a.053.053,0,0,0,.063.009l.038-.016c.041-.019.016-.079-.022-.079h0Z" transform="translate(-1003.609 -404.636)" fill="#010d3d"/>
      <path id="Trazado_7377" data-name="Trazado 7377" d="M1053.54,425.212a.263.263,0,0,0-.066-.387.222.222,0,0,0-.12-.035c-.016,0-.016.025,0,.022a.239.239,0,0,1,.17.384c-.009.009.006.022.013.013h0Z" transform="translate(-1011.73 -403.07)" fill="#64d8cc"/>
      <g id="Grupo_5270" data-name="Grupo 5270" transform="translate(21.329 20.737)">
        <path id="Trazado_7378" data-name="Trazado 7378" d="M1016.825,422.171a7.131,7.131,0,0,0,.035,5.725,3.771,3.771,0,0,0,1.6,1.953,3.819,3.819,0,0,0,2.378.409,4.67,4.67,0,0,0,3.54-3.127,7.537,7.537,0,0,0,.526-2.724,12.01,12.01,0,0,0-.041-1.468c-.041-.394-.126-.828-.573-.932a11.7,11.7,0,0,0-1.628-.176c-.6-.057-1.212-.063-1.817-.082q-1.852-.066-3.707-.079a.51.51,0,0,0,0,1.02c1.83.047,3.691.145,5.521.06.438-.019.872-.054,1.307-.076a.964.964,0,0,1,.23-.013c-.126-.123-.094.129-.1.145a3.189,3.189,0,0,0,.016.734,9.069,9.069,0,0,1-.293,2.453,4.274,4.274,0,0,1-2.6,3.017,2.878,2.878,0,0,1-1.855,0,2.462,2.462,0,0,1-1.342-1.288,6.792,6.792,0,0,1-.63-2.56,19.912,19.912,0,0,1,.132-2.809.378.378,0,0,0-.7-.189h0Z" transform="translate(-1007.641 -421.67)" fill="#343d64"/>
        <path id="Trazado_7379" data-name="Trazado 7379" d="M997.959,424.051a7.76,7.76,0,0,0-2.267.176c-.731.126-1.471.283-2.2.425s-1.471.277-2.2.416c-.353.066-.712.126-1.058.224a3.386,3.386,0,0,0-1.115.378.378.378,0,0,0,.088.68,3.3,3.3,0,0,0,1.165-.013,10.441,10.441,0,0,0,1.064-.151c.762-.129,1.524-.274,2.283-.425s1.521-.29,2.271-.466a7.069,7.069,0,0,0,2.107-.75.268.268,0,0,0-.132-.494h0Z" transform="translate(-988.935 -423.28)" fill="#343d64"/>
        <path id="Trazado_7380" data-name="Trazado 7380" d="M1042.171,425.049l.145-.085c.028-.016.06-.031.091-.047-.082.041.035-.013.079-.035l.076-.038c.069-.038-.035.009.009-.006.06-.019.117-.041.176-.06s.11-.025.167-.038c-.057.009-.057.006,0,0a.76.76,0,0,0,.085,0,3.48,3.48,0,0,1,.362,0c.041,0,.094-.016-.009,0a.791.791,0,0,1,.085.013c.057.009.113.022.167.035a1.7,1.7,0,0,1,.179.057c.016.006.107.047.038.013s.028.016.035.019c.05.025.1.054.148.082l.072.047c.066.041.038.006-.006-.006.047.016.107.091.139.126a1.189,1.189,0,0,0,.211.186.5.5,0,0,0,.6-.079.529.529,0,0,0,.079-.6,1.248,1.248,0,0,0-.422-.419,1.867,1.867,0,0,0-.353-.2,2.425,2.425,0,0,0-.964-.224,1.912,1.912,0,0,0-1.65.806.339.339,0,0,0,.46.46h0Z" transform="translate(-1025.059 -423.115)" fill="#343d64"/>
        <path id="Trazado_7381" data-name="Trazado 7381" d="M1051.523,422.993a28.462,28.462,0,0,0,.337,4.138,3.736,3.736,0,0,0,1.644,2.938,3.1,3.1,0,0,0,3.14-.069,4.028,4.028,0,0,0,1.723-2.932,8.814,8.814,0,0,0-.3-4.422.519.519,0,0,0-.627-.356,3.333,3.333,0,0,1-1.628-.11,12.264,12.264,0,0,0-1.886-.208,6.31,6.31,0,0,0-1.757.091.727.727,0,0,0-.346,1.241.586.586,0,0,0,.806,0,.574.574,0,0,0,0-.806l-.05-.038.148.252.009.022-.079.287.035-.06-.2.2c-.057-.009-.047-.013.035-.013.047,0,.094-.009.139-.013.116-.009.233-.016.349-.022.233-.013.466-.019.7-.016.466,0,.935.025,1.4.066a6.468,6.468,0,0,0,2.6.107l-.627-.356a10.006,10.006,0,0,1,.139,4.113c-.22,1.1-.832,2.22-2.085,2.293a1.9,1.9,0,0,1-1.42-.5,2.842,2.842,0,0,1-.705-1.575c-.283-1.449-.485-2.916-.9-4.333a.3.3,0,0,0-.586.079h0Z" transform="translate(-1031.81 -421.866)" fill="#343d64"/>
      </g>
      <path id="Trazado_7382" data-name="Trazado 7382" d="M1022.039,499.083a8.167,8.167,0,0,0,.3,1.861,15.552,15.552,0,0,0,.529,1.8c.214.6.463,1.216.712,1.817a10.568,10.568,0,0,0,.778,1.719,2.208,2.208,0,0,0,1.531.712,1.256,1.256,0,0,0,.832.013,1.5,1.5,0,0,0,.516-.592,8.955,8.955,0,0,0,1.017-1.537,2.562,2.562,0,0,0-.23-1.682c-.22-.724-.472-1.439-.721-2.157-.126-.359-.255-.715-.384-1.071a4.94,4.94,0,0,0-.425-1.036.505.505,0,0,0-.545-.22l-.047.006a.438.438,0,0,0-.3.529,13.459,13.459,0,0,0,.655,1.924c.255.69.5,1.383.784,2.06a10.273,10.273,0,0,1,.391.973c.1.35-.066.539-.268.819s-.4.554-.6.825c-.044.057-.176.309-.255.328.176-.044-.318-.2-.365-.224-.261-.1-.554-.139-.69-.4-.151-.29-.274-.6-.4-.9-.268-.617-.52-1.244-.756-1.874s-.453-1.269-.724-1.883a15.565,15.565,0,0,0-.853-1.943.255.255,0,0,0-.472.129h0Z" transform="translate(-990.284 -453.706)" fill="#010d3d"/>
      <path id="Trazado_7383" data-name="Trazado 7383" d="M993.62,511.861a3.844,3.844,0,0,0-1.257-.167,10.887,10.887,0,0,0-1.36.035,17.186,17.186,0,0,0-2.623.428,4.934,4.934,0,0,0-2.072.964,5.26,5.26,0,0,0-1.25,1.735c-.75,1.549-1.313,3.2-1.949,4.8l-2.094,5.259c-.794,1.987-1.537,4-2.381,5.968a.383.383,0,1,0,.7.3c.614-1.669,1.319-3.313,1.978-4.966l1.981-4.966c.661-1.656,1.316-3.31,1.981-4.966.557-1.4,1.2-2.727,2.724-3.228a14.684,14.684,0,0,1,2.781-.573c.479-.06.957-.1,1.436-.142a7.191,7.191,0,0,0,1.408-.151.17.17,0,0,0,0-.324h0Z" transform="translate(-960.52 -462.601)" fill="#010d3d"/>
      <path id="Trazado_7384" data-name="Trazado 7384" d="M961.528,544.369c.573.857,1.206,1.666,1.76,2.538s1.033,1.792,1.5,2.711a28.415,28.415,0,0,1,1.256,2.815c.176.463.334.929.5,1.4a5.937,5.937,0,0,0,.633,1.464.38.38,0,0,0,.7-.192,4.4,4.4,0,0,0-.258-1.571c-.145-.516-.337-1.023-.529-1.527a28.771,28.771,0,0,0-1.3-2.9,25.176,25.176,0,0,0-1.666-2.693,17.133,17.133,0,0,0-1.993-2.513c-.3-.3-.857.094-.6.466h0Z" transform="translate(-948.788 -484.597)" fill="#010d3d"/>
      <path id="Trazado_7385" data-name="Trazado 7385" d="M952.036,543.135a1.092,1.092,0,0,0-.586-.778.38.38,0,0,0-.447.057c-.63.652-1.2,1.367-1.8,2.044s-1.184,1.376-1.745,2.088a2.5,2.5,0,0,0-.825,2.116,15.958,15.958,0,0,0,.724,2.3,32.4,32.4,0,0,0,4.374,8.242,37.008,37.008,0,0,0,3.448,4.04.371.371,0,0,0,.52,0,44.093,44.093,0,0,0,8.912-12.654c.6-1.316,1.124-2.68,1.628-4.034.139-.375-.463-.539-.6-.164a42.873,42.873,0,0,1-3.3,6.878,46.663,46.663,0,0,1-4.264,6.235,41.207,41.207,0,0,1-2.894,3.219h.52a32.925,32.925,0,0,1-5.24-7.133,34.8,34.8,0,0,1-1.871-3.949c-.268-.674-.51-1.36-.734-2.05-.11-.34-.227-.683-.309-1.033a1.2,1.2,0,0,1,.337-1.112c.586-.778,1.2-1.534,1.8-2.3s1.241-1.464,1.849-2.211l-.359.094a.645.645,0,0,1,.324.334c.157.318.611.085.545-.23h0Z" transform="translate(-938.6 -483.58)" fill="#010d3d"/>
      <path id="Trazado_7386" data-name="Trazado 7386" d="M1004.438,563.91c.561,1.5,1.184,2.97,1.764,4.462a14.832,14.832,0,0,1,1.046,4.617c.167,3.244-.646,6.462-1.093,9.656-.11.784-.217,1.565-.287,2.356a5.35,5.35,0,0,0,.041,2.324c.542,1.31,2.343.872,3.407.734l5.2-.671c1.383-.176,2.768-.324,4.138-.586.551-.1,1.1-.22,1.65-.343a1.131,1.131,0,0,0,.652-.277,5.078,5.078,0,0,0,1.5-2.8l-.79.214c.472.718,1.09,1.326,1.562,2.044.29.444,1.008.031.718-.419-.466-.721-1.08-1.332-1.543-2.056a.428.428,0,0,0-.79.214,4.466,4.466,0,0,1-1.238,2.208c-.129.167.154-.022.085-.038a1.087,1.087,0,0,0-.343.066l-1.345.268c-2.856.567-5.782.828-8.667,1.206-.731.094-1.471.233-2.208.277-.532.031-1.137,0-1.172-.646a13.71,13.71,0,0,1,.151-2.3c.088-.75.208-1.5.346-2.239.561-2.995,1.313-5.98,1.184-9.054a15.3,15.3,0,0,0-1.061-4.925,20.731,20.731,0,0,0-2.541-4.447c-.12-.167-.441-.072-.359.151h0Z" transform="translate(-978.22 -498.214)" fill="#010d3d"/>
      <path id="Trazado_7387" data-name="Trazado 7387" d="M1065.192,594.746c.211.11.274.277.513.324a7.885,7.885,0,0,0,.816.091,12.589,12.589,0,0,0,1.757-.035,15.712,15.712,0,0,0,3.436-.6.5.5,0,0,0,.359-.472c-.293-2.787-.69-5.558-1.112-8.33-.208-1.367-.441-2.73-.69-4.091q-.189-1.035-.394-2.063a12.686,12.686,0,0,0-.475-2.151c-.1-.249-.51-.242-.5.066a12.984,12.984,0,0,0,.362,2.019c.129.658.268,1.376.394,2.066q.378,2.041.693,4.094a68.708,68.708,0,0,1,.737,8.39l.359-.472c-1.061.277-2.138.523-3.222.705-.57.094-1.14.129-1.713.18-.249.022-.491.028-.74.035s-.343.157-.586.214a.015.015,0,0,0,0,.028h0Z" transform="translate(-1019.836 -507.516)" fill="#010d3d"/>
      <path id="Trazado_7388" data-name="Trazado 7388" d="M1056.71,526.47a15.864,15.864,0,0,0,1.137,2.2c.406.709.816,1.505,1.244,2.249s.838,1.493,1.266,2.236.863,1.4,1.216,2.145a3.536,3.536,0,0,1,.211,2.252,5.561,5.561,0,0,0,.031,2.368c.2.809.469,1.524.7,2.286.242.819.457,1.65.664,2.478.45,1.8.875,3.606,1.354,5.4a.087.087,0,0,0,.17-.022,40.3,40.3,0,0,0-1.669-9.873,7.045,7.045,0,0,1-.261-1.127,4.635,4.635,0,0,1,.1-1.285,4.5,4.5,0,0,0-.044-2.321,10.994,10.994,0,0,0-1.112-2.094c-.46-.753-.938-1.5-1.4-2.249-.513-.844-1.061-1.666-1.581-2.5a18.311,18.311,0,0,0-1.6-2.387.257.257,0,0,0-.425.249h0Z" transform="translate(-1014.027 -472.511)" fill="#010d3d"/>
      <path id="Trazado_7389" data-name="Trazado 7389" d="M1038.956,510.477a4.212,4.212,0,0,0,1.8.34q.954.076,1.908.148a8,8,0,0,1,1.669.157,2.152,2.152,0,0,1,1.13,1.077.316.316,0,0,0,.545-.318,2.925,2.925,0,0,0-1.052-1.31,3.966,3.966,0,0,0-1.7-.384c-.7-.057-1.4-.085-2.107-.12a5.048,5.048,0,0,0-2.154.085.182.182,0,0,0-.044.328h0Z" transform="translate(-1001.813 -461.441)" fill="#010d3d"/>
      <path id="Trazado_7390" data-name="Trazado 7390" d="M1088.038,562.61h-.11s-.013.019,0,.019h.11s.013-.019,0-.019Z" transform="translate(-1035.42 -497.487)" fill="#010d3d"/>
      <path id="Trazado_7391" data-name="Trazado 7391" d="M1046.748,570.169c-.025.047-.047.094-.072.142a.885.885,0,0,0-.079.346,1.273,1.273,0,0,0,0,.328c.047.381.142.863.58.97a.561.561,0,0,0,.545-.145.619.619,0,0,0,.161-.328.539.539,0,0,0-.063-.35.557.557,0,0,0-.328-.252.494.494,0,0,0-.538.22h0l.076-.094-.006.006.1-.079a.046.046,0,0,0-.01.006l.123-.054h-.006l.139-.019h-.006l.142.019h-.006l.129.054h-.006l.11.082a.557.557,0,0,0-.189-.123.936.936,0,0,0-.23-.05l.148.019-.013-.006.132.057-.013-.006.113.088-.035-.035.088.113a.972.972,0,0,1-.091-.18l.054.129a2.334,2.334,0,0,1-.151-.545l.016.126a.8.8,0,0,0-.088-.337l.044.107c-.013-.038-.022-.079-.031-.12a.4.4,0,0,0-.334-.286.4.4,0,0,0-.4.192h0Z" transform="translate(-1007.101 -502.53)" fill="#010d3d"/>
      <path id="Trazado_7392" data-name="Trazado 7392" d="M1050.533,587.429c-.013.079-.025.157-.041.239a2.206,2.206,0,0,0-.022.381c0,.085.013.173.019.258l.01.129a.206.206,0,0,0,.006.063.648.648,0,0,0,.088.312.57.57,0,0,0,.2.2.561.561,0,0,0,.813-.331,1.168,1.168,0,0,0-.028-.51c-.016-.088-.025-.176-.047-.265-.01-.041-.019-.082-.031-.126a1.181,1.181,0,0,0-.079-.224c-.031-.076-.066-.154-.1-.23l-.066-.088-.088-.066a.419.419,0,0,0-.274-.05.408.408,0,0,0-.2.085.4.4,0,0,0-.154.224h0Z" transform="translate(-1009.762 -514.276)" fill="#010d3d"/>
      <path id="Trazado_7393" data-name="Trazado 7393" d="M1054.4,605.545a.509.509,0,0,0-.079.161c-.006.028-.013.06-.022.088l.05-.117a.793.793,0,0,0-.031.076.253.253,0,0,0-.035.126.622.622,0,0,0-.009.107c0,.031,0,.063,0,.1a1.8,1.8,0,0,0,.013.183,3.355,3.355,0,0,0,.057.5.576.576,0,0,0,.255.334l.132.057a.45.45,0,0,0,.224.009.525.525,0,0,0,.321-.154.545.545,0,0,0,.164-.394,3.317,3.317,0,0,0-.085-.5,1.827,1.827,0,0,0-.041-.18c-.009-.031-.019-.06-.031-.091,0-.013-.009-.025-.013-.038a.664.664,0,0,0-.139-.233l.079.1c-.019-.025-.028-.054-.044-.079a.6.6,0,0,0-.117-.135.432.432,0,0,0-.343-.113.4.4,0,0,0-.3.2h0Z" transform="translate(-1012.365 -526.768)" fill="#010d3d"/>
      <path id="Trazado_7394" data-name="Trazado 7394" d="M1056.444,615.946l-.028.025.088-.069a.4.4,0,0,0-.145.126.244.244,0,0,0-.06.1.5.5,0,0,0-.025.06.271.271,0,0,0-.009.05.55.55,0,0,1-.022.1l.05-.12s-.009.022-.016.035l-.054.123a.469.469,0,0,0-.022.148.518.518,0,0,1-.01.069c-.006.047-.009.1-.016.145l.019-.145-.006.019a.575.575,0,0,0,0,.293.537.537,0,0,0,.142.246.567.567,0,0,0,.391.161.454.454,0,0,0,.214-.047.416.416,0,0,0,.179-.113.537.537,0,0,0,.142-.246.578.578,0,0,0,0-.293l-.006-.019.019.145c-.006-.047-.013-.1-.016-.145a.516.516,0,0,0-.009-.069.469.469,0,0,0-.022-.148l-.054-.123s-.009-.022-.016-.035l.05.12c-.009-.031-.016-.066-.022-.1a.249.249,0,0,0-.01-.047v-.009l-.05-.11a.338.338,0,0,0-.12-.129.175.175,0,0,0-.063-.044l.088.069-.028-.025a.417.417,0,0,0-.277-.117l-.1.013a.4.4,0,0,0-.173.1h0Z" transform="translate(-1013.667 -533.947)" fill="#010d3d"/>
      <path id="Trazado_7395" data-name="Trazado 7395" d="M1025.466,513.484c-.148-.305-.557-.151-.6.145a2.179,2.179,0,0,0,.271.907l.381,1.02c.535,1.433,1.071,2.869,1.575,4.314s1,2.891,1.5,4.336a38.495,38.495,0,0,0,1.675,4.311.4.4,0,0,0,.746-.2,20.548,20.548,0,0,1,.151-2.148c.054-.712.1-1.433.129-2.151.063-1.411.031-2.825.01-4.236s-.12-2.819-.2-4.229c-.05-.866.1-2.4-.916-2.778-.362-.135-.51.438-.157.576.447.176.4,1.064.438,1.436.066.614.132,1.225.17,1.842.082,1.282.132,2.567.132,3.848s-.076,2.567-.151,3.848c-.035.614-.082,1.231-.135,1.845a12.281,12.281,0,0,1-.255,2.041h.775a71.356,71.356,0,0,0-2.916-7.325c-.5-1.2-1-2.4-1.483-3.615-.239-.6-.475-1.209-.715-1.814l-.343-.872-.17-.435a3.248,3.248,0,0,0-.176-.51.153.153,0,0,0,.265-.154h0Z" transform="translate(-992.221 -463.333)" fill="#010d3d"/>
      <path id="Trazado_7396" data-name="Trazado 7396" d="M932.651,530.541c.161-.255.217-.539.368-.806a5.872,5.872,0,0,0,.447-.835,1.777,1.777,0,0,0-.45-1.82,8.421,8.421,0,0,0-1.836-1.326c-.712-.45-1.436-.882-2.186-1.272a13.264,13.264,0,0,0-4.677-1.553,5.939,5.939,0,0,0-2.334.1,1.109,1.109,0,0,0-.664,1.575c.334.768,1.326,1.137,2.006,1.531l1.417.822a4.424,4.424,0,0,0,1.408.709.349.349,0,0,0,.337-.576,3.064,3.064,0,0,0-.907-.633l-1.014-.586c-.652-.378-1.316-.74-1.956-1.14-.214-.135-.516-.324-.529-.608-.016-.334.447-.315.69-.337a7.868,7.868,0,0,1,2.034.085,13.283,13.283,0,0,1,3.88,1.423c.62.328,1.228.683,1.83,1.049a12.769,12.769,0,0,1,1.707,1.118,1.8,1.8,0,0,1,.576.709,1.1,1.1,0,0,1-.151.9,4.925,4.925,0,0,0-.372.794.658.658,0,0,0,.107.7.173.173,0,0,0,.271-.035h0Z" transform="translate(-921.206 -470.258)" fill="#010d3d"/>
      <path id="Trazado_7397" data-name="Trazado 7397" d="M935.326,534.231a1.378,1.378,0,0,0-.951-.835,2.2,2.2,0,0,0-1.531.126,4.733,4.733,0,0,0-2.132,2.614,1.788,1.788,0,0,0,.164,1.675,1.328,1.328,0,0,0,1.54.469,9.947,9.947,0,0,0,1.719-.97l.387-.236a1.119,1.119,0,0,0,.2-.12c.038-.057-.063-.2-.142-.1a1.149,1.149,0,0,0-.009.236,2.024,2.024,0,0,0,.006.365,1.853,1.853,0,0,0,.9,1.348,1.622,1.622,0,0,0,1.656.076.445.445,0,0,0-.34-.809.955.955,0,0,1-1.241-.869c.013-.425.019-.894-.4-1.143-.5-.3-1.011.069-1.439.318-.482.28-.951.583-1.439.85-.318.173-.579.173-.693-.217a1.765,1.765,0,0,1,.349-1.219,4.57,4.57,0,0,1,.791-1.09,1.94,1.94,0,0,1,2.4-.321c.088.057.23-.038.189-.145h0Z" transform="translate(-927.628 -477.416)" fill="#010d3d"/>
      <path id="Trazado_7398" data-name="Trazado 7398" d="M928.612,535.318a1.11,1.11,0,0,0-1.3.781,1.344,1.344,0,0,0,.652,1.556l.088-.687a2.136,2.136,0,0,0-1.656,1.675,1.571,1.571,0,0,0,1.2,1.751l-.107-.825a1.486,1.486,0,0,0-.652,1.773,2.158,2.158,0,0,0,1.682,1.329,2.7,2.7,0,0,0,2.258-.387,1.517,1.517,0,0,0,.321-2l-.453.79a1.914,1.914,0,0,0,1.905-1.792c.05-.658-.964-.649-1.02,0a.865.865,0,0,1-.882.743.532.532,0,0,0-.372.894c.176.23-.085.586-.268.7a1.751,1.751,0,0,1-1.282.117,1.351,1.351,0,0,1-.954-.589.61.61,0,0,1,.173-.8.455.455,0,0,0-.227-.841c-.431-.031-.592-.542-.5-.888a1.5,1.5,0,0,1,1.036-.926c.28-.094.4-.535.088-.687a.682.682,0,0,1-.416-.734.985.985,0,0,1,.687-.655.155.155,0,0,0,0-.3h0Z" transform="translate(-924.753 -478.768)" fill="#010d3d"/>
      <path id="Trazado_7399" data-name="Trazado 7399" d="M940.406,552.737c-.019.164.126.315.227.428a2.446,2.446,0,0,0,.249.23,2.766,2.766,0,0,0,.762.419,2.439,2.439,0,0,0,1.619.028.567.567,0,0,0-.3-1.093,2.247,2.247,0,0,1-.318.082.587.587,0,0,0-.072.013c.025-.006.12-.013.041-.006-.053,0-.11.009-.164.009a5.633,5.633,0,0,1-.652-.019c-.066-.006.091.022.025,0-.022-.006-.047-.009-.072-.016-.054-.013-.107-.025-.157-.041-.1-.028-.208-.063-.309-.1a.567.567,0,0,1-.066-.025c.054.022.009,0-.019-.009-.044-.022-.088-.044-.129-.066s-.094-.05-.142-.079a.4.4,0,0,0-.3-.047.3.3,0,0,0-.217.287h0Z" transform="translate(-934.359 -490.518)" fill="#010d3d"/>
      <path id="Trazado_7400" data-name="Trazado 7400" d="M979.461,751.64a37.48,37.48,0,0,1-3.811,4.154c-.7.627-1.414,1.244-2.17,1.8a9.3,9.3,0,0,0-2.06,1.675,2.067,2.067,0,0,0-.239,2.179,2.013,2.013,0,0,0,2.3.734,11.921,11.921,0,0,0,4.957-2.447,16.673,16.673,0,0,0,4.018-4.387l-.979-.573a1.584,1.584,0,0,0,.709,2.141,2.052,2.052,0,0,0,2.482-.765,5.488,5.488,0,0,0,.743-3.039c.066-1.162.028-2.324.148-3.483a49.9,49.9,0,0,1,1.634-6.7,67.326,67.326,0,0,0,1.282-6.8c.362-2.589.592-5.193.822-7.8.063-.7-1.017-.687-1.083,0-.384,4.044-.721,8.131-1.505,12.125-.4,2.019-.967,3.984-1.505,5.968a21.241,21.241,0,0,0-.6,2.907c-.123.986-.154,2.019-.2,3.026a5.765,5.765,0,0,1-.639,3.13,1.026,1.026,0,0,1-.951.46c-.239-.057-.482-.356-.35-.6a.568.568,0,0,0-.979-.573,14.845,14.845,0,0,1-7.076,5.971,6.089,6.089,0,0,1-1.225.337c-.28.044-.765.142-.964-.129-.365-.494.167-1.118.52-1.417.6-.513,1.291-.929,1.915-1.42a20.635,20.635,0,0,0,1.871-1.647,19.714,19.714,0,0,0,3.448-4.44c.167-.305-.261-.683-.5-.391Z" transform="translate(-955.298 -610.665)" fill="#010d3d"/>
      <path id="Trazado_7401" data-name="Trazado 7401" d="M997.824,748.59c2.019-2.611,2.9-5.921,3.568-9.108.724-3.477,1.212-7.01,1.59-10.537.11-1.023.208-2.05.293-3.074.041-.488.079-.976.113-1.461a3.487,3.487,0,0,0-.038-1.584.462.462,0,0,0-.831-.107,2.736,2.736,0,0,0-.243,1.231c-.031.463-.063.926-.1,1.386q-.1,1.346-.239,2.693-.269,2.688-.652,5.366a67.072,67.072,0,0,1-2,9.813c-.526,1.745-1.2,3.461-1.867,5.152-.085.217.255.422.4.233h0Z" transform="translate(-973.41 -607.023)" fill="#010d3d"/>
      <path id="Trazado_7402" data-name="Trazado 7402" d="M983.064,807.771a.708.708,0,0,0,.457.841,2.1,2.1,0,0,0,1.521-.154,12.809,12.809,0,0,0,2.982-1.757q1.545-1.134,3.083-2.277c.45-.337.9-.677,1.32-1.052.365-.321.907-.734.929-1.253a.332.332,0,0,0-.416-.318c-.4.135-.646.573-.938.863a11.511,11.511,0,0,1-1.08.913c-.85.642-1.71,1.266-2.567,1.9-.778.576-1.549,1.172-2.378,1.675a8.781,8.781,0,0,1-1.316.674c-.457.18-1.008.406-1.351-.085a.133.133,0,0,0-.239.031h0Z" transform="translate(-963.56 -661.341)" fill="#010d3d"/>
      <path id="Trazado_7403" data-name="Trazado 7403" d="M1058.687,722.132a72.569,72.569,0,0,0-.444,9.993,55.807,55.807,0,0,0,1.014,9.841,9.486,9.486,0,0,0,1.742,3.981,13.544,13.544,0,0,0,2.973,2.614c.542.381,1.093.746,1.65,1.105a7.33,7.33,0,0,1,1.631,1.225c.368.422.564,1.086-.057,1.383a2.712,2.712,0,0,1-1.622.05c-2.693-.526-5.59-1.694-6.947-4.239a.544.544,0,0,0-.929,0c-.343.542-1.2.309-1.537-.12a2.85,2.85,0,0,1-.091-2.608,16.114,16.114,0,0,0,.882-2.922,10.385,10.385,0,0,0-.076-3.061c-.321-2.053-1.074-4.012-1.521-6.037a33.528,33.528,0,0,1-.324-6.815,30.312,30.312,0,0,0-1.042-7.574.459.459,0,0,0-.885.246,37.79,37.79,0,0,1,.872,7.331c.019,1.269-.06,2.538-.035,3.807a16.7,16.7,0,0,0,.435,3.42,49.791,49.791,0,0,1,1.568,6.56,7.863,7.863,0,0,1-.305,3.168,11.377,11.377,0,0,0-.9,3.241,2.656,2.656,0,0,0,1.367,2.557,1.973,1.973,0,0,0,2.516-.649h-.929c1.345,2.39,3.915,3.688,6.491,4.318,1.093.268,2.579.668,3.593-.031a1.527,1.527,0,0,0,.633-1.531,2.911,2.911,0,0,0-1.159-1.634c-1.1-.869-2.33-1.546-3.417-2.428a9.988,9.988,0,0,1-2.677-3.159,15.365,15.365,0,0,1-1.2-4.85c-.249-1.748-.4-3.508-.494-5.269-.208-3.965-.11-7.942-.176-11.91a.3.3,0,0,0-.6,0h0Z" transform="translate(-1011.558 -604.367)" fill="#010d3d"/>
      <path id="Trazado_7404" data-name="Trazado 7404" d="M1061.945,802.226a2.956,2.956,0,0,0,.787,1.033c.353.365.708.731,1.083,1.071a23.621,23.621,0,0,0,2.393,1.9,4.706,4.706,0,0,0,2.551,1.055,2.269,2.269,0,0,0,1.99-1.046.341.341,0,0,0-.589-.343,1.731,1.731,0,0,1-1.912.627A6.765,6.765,0,0,1,1066,805.34c-.687-.476-1.376-1.008-2.034-1.556-.337-.283-.671-.57-.989-.872a3.545,3.545,0,0,0-.926-.768.078.078,0,0,0-.113.088h0Z" transform="translate(-1017.618 -661.581)" fill="#010d3d"/>
      <path id="Trazado_7405" data-name="Trazado 7405" d="M1032.809,523.77a2.135,2.135,0,0,1-1.127,2.7.291.291,0,0,0,.224.529,2.484,2.484,0,0,0,1.234-3.423c-.113-.22-.435-.028-.331.192Z" transform="translate(-996.794 -470.681)" fill="#010d3d"/>
      <path id="Trazado_7406" data-name="Trazado 7406" d="M1036.937,523.58c.01.057,0,.117.006.176a.974.974,0,0,0,.057.214,1.4,1.4,0,0,0,.217.368,1.986,1.986,0,0,0,.646.542,2.274,2.274,0,0,0,1.66.208.3.3,0,0,0-.157-.576,1.686,1.686,0,0,1-1.222-.142,2.429,2.429,0,0,1-.529-.378c-.085-.082-.161-.17-.236-.255a1.807,1.807,0,0,1-.224-.246c-.072-.123-.236-.035-.217.091h0Z" transform="translate(-1000.49 -470.648)" fill="#010d3d"/>
      <path id="Trazado_7407" data-name="Trazado 7407" d="M1022.793,435.2a2.942,2.942,0,0,0,2.365.746,3.2,3.2,0,0,0,1.2-.4c.35-.2.869-.535.907-.967a.363.363,0,0,0-.457-.346c-.211.05-.305.208-.447.34a2.328,2.328,0,0,1-.375.28,2.691,2.691,0,0,1-.935.35,2.893,2.893,0,0,1-1.934-.431.275.275,0,0,0-.331.431h0Z" transform="translate(-990.742 -409.53)" fill="#010d3d"/>
      <path id="Trazado_7408" data-name="Trazado 7408" d="M1033.015,431.407c0,.035-.01.063-.006.1,0,.016.006.038.006.05a.16.16,0,0,0,0,.094l.006.025.019.1c.022.11.047.217.079.324a2.447,2.447,0,0,0,.239.683.214.214,0,0,0,.243.1.219.219,0,0,0,.157-.208,1.292,1.292,0,0,0-.085-.381c-.041-.11-.082-.217-.123-.324s-.091-.233-.145-.346a.76.76,0,0,0-.088-.154c-.016-.019-.025-.044-.041-.063s-.047-.05-.069-.079c-.066-.079-.179-.009-.186.076h0Z" transform="translate(-997.799 -407.523)" fill="#010d3d"/>
      <path id="Trazado_7409" data-name="Trazado 7409" d="M1055.974,434.792a2.784,2.784,0,0,0,.828.463,2.359,2.359,0,0,0,.926.1,1.943,1.943,0,0,0,.794-.22,1.18,1.18,0,0,0,.328-.255.57.57,0,0,0,.151-.28.4.4,0,0,0,.01-.107L1059,434.4c-.006-.031,0-.031,0,0a.293.293,0,0,0-.494-.2c.025-.028-.044.019-.063.031a.825.825,0,0,0-.151.145l-.047.047c-.006.006-.057.047-.028.025s-.047.028-.047.028c-.019.013-.041.022-.06.035a.4.4,0,0,1-.063.031c.035-.016.016-.006-.01,0a1.252,1.252,0,0,1-.154.047,1.083,1.083,0,0,1-.139.028c-.06.009.054,0-.006,0l-.1.009a2.6,2.6,0,0,1-1.332-.274.277.277,0,0,0-.356.072.274.274,0,0,0,.022.362h0Z" transform="translate(-1013.473 -409.459)" fill="#010d3d"/>
      <path id="Trazado_7410" data-name="Trazado 7410" d="M1061.99,431.712a2.645,2.645,0,0,0,.179.794,3.518,3.518,0,0,0,.176.384.586.586,0,0,0,.293.309.113.113,0,0,0,.139-.079.71.71,0,0,0-.1-.409c-.047-.11-.1-.22-.145-.331-.1-.246-.2-.488-.309-.734-.05-.113-.239-.057-.233.063h0Z" transform="translate(-1017.654 -407.725)" fill="#010d3d"/>
      <path id="Trazado_7411" data-name="Trazado 7411" d="M1014.55,463.419a2.431,2.431,0,0,0,.882,1.537,5.754,5.754,0,0,0,1.735,1.052,11.571,11.571,0,0,0,2.315.661c.4.072.806.126,1.216.161a2.626,2.626,0,0,0,1.25-.066.437.437,0,0,0,0-.753,3.059,3.059,0,0,0-1.058-.139c-.365-.025-.727-.066-1.086-.12a12.594,12.594,0,0,1-2.123-.526,7.582,7.582,0,0,1-1.581-.709,3.362,3.362,0,0,1-.7-.526c-.2-.211-.343-.482-.554-.69a.173.173,0,0,0-.293.12h0Z" transform="translate(-985.154 -429.42)" fill="#010d3d"/>
      <path id="Trazado_7412" data-name="Trazado 7412" d="M1058.177,512.94a13.158,13.158,0,0,0,.665,1.225c.255.444.472.907.718,1.357.466.86.948,1.707,1.417,2.563.92,1.669,1.779,3.37,2.6,5.086.419.875.891,1.726,1.285,2.611s.743,1.842,1.071,2.781a35.327,35.327,0,0,1,1.534,5.549c.425,2.45-1.052,4.5-1.59,6.793-.113.479.579.819.822.346a27.2,27.2,0,0,0,1.19-3.08,5.448,5.448,0,0,0,.542-2.967c-.126-.523-.2-1.052-.337-1.575s-.283-1-.428-1.5c-.274-.938-.545-1.874-.844-2.806-.608-1.9-1.3-3.77-1.921-5.662a33.24,33.24,0,0,0-2.541-5.423c-.535-.979-1.112-1.934-1.742-2.859-.324-.479-.68-.929-1.039-1.386a13.264,13.264,0,0,0-1.071-1.316c-.183-.18-.425.047-.334.258h0Z" transform="translate(-1015.028 -463.236)" fill="#010d3d"/>
      <path id="Trazado_7413" data-name="Trazado 7413" d="M1078.37,581.388a1.7,1.7,0,0,0,.5.079,3.707,3.707,0,0,1,.457.066,3.61,3.61,0,0,1,.475.151,2.77,2.77,0,0,0,.453.2.24.24,0,0,0,.233-.4,1.292,1.292,0,0,0-.513-.3,2.58,2.58,0,0,0-.526-.154,2.783,2.783,0,0,0-.564-.06.934.934,0,0,0-.557.139.156.156,0,0,0,.038.28Z" transform="translate(-1028.8 -510.065)" fill="#010d3d"/>
      <path id="Trazado_7414" data-name="Trazado 7414" d="M1021.466,415.086a3.156,3.156,0,0,1,.564-.838,1.717,1.717,0,0,1,.809-.463,1.623,1.623,0,0,1,.9.044c.054.016.1.031.154.05.025.009.076.028.022.006a2.075,2.075,0,0,1,.261.139,1.214,1.214,0,0,0,.309.167c.054.016.233.044.12.028a1.089,1.089,0,0,0,.2.019.4.4,0,0,0,.4-.4.7.7,0,0,0-.025-.2c-.054-.12-.063-.148-.031-.082l-.054-.123a.951.951,0,0,0-.375-.34,2.74,2.74,0,0,0-.668-.293,2.559,2.559,0,0,0-1.468.028,2.453,2.453,0,0,0-1.149.775,2.02,2.02,0,0,0-.516,1.326.3.3,0,0,0,.554.151h0Z" transform="translate(-989.513 -394.796)" fill="#00b2e3"/>
      <path id="Trazado_7415" data-name="Trazado 7415" d="M1053.022,415.912a.455.455,0,0,0,.091-.035l.031-.009q-.09-.014-.009,0a1.234,1.234,0,0,0,.239-.044,1.123,1.123,0,0,1,.3-.047,2.2,2.2,0,0,1,.353.006c.107.009-.057-.013.047.006.028.006.057.009.082.016.06.013.12.028.179.044a.863.863,0,0,1,.277.117c.054.031.1.066.157.1.025.016.047.031.069.047s.063.044.022.013c.208.161.387.51.687.488l-.142-.038a.845.845,0,0,0,.151.079.213.213,0,0,0,.258-.145.6.6,0,0,0,0-.249l-.028.214c.217-.362-.2-.721-.469-.916a2.241,2.241,0,0,0-.8-.359,2.273,2.273,0,0,0-.91-.041,1.793,1.793,0,0,0-.384.113.578.578,0,0,0-.268.157c-.031.038-.028.038.006,0l-.05.038c-.035.025-.066.054-.1.082-.161.139.009.45.214.368h0Z" transform="translate(-1011.322 -396.453)" fill="#00b2e3"/>
      <g id="Grupo_5271" data-name="Grupo 5271" transform="translate(29.522 60.204) rotate(-31)">
        <path id="Trazado_7416" data-name="Trazado 7416" d="M.053,4.193.3,4.03a7.535,7.535,0,0,1,.62-2.387c.161-.261.5-.753.687-1.042.031-.057.066-.113.1-.164A.208.208,0,0,0,1.731.4h0a1.006,1.006,0,0,1,.3-.293C2.4-.112,2.77,0,3.155.468c.072.088.368.135.413.331a.97.97,0,0,0-.274-.1,2.382,2.382,0,0,0-.57.164C3.47,2.269,2.493,3.51,2.1,4.6c.013.076.491.242.387.516-.013.031-.035.05-.066.044-.476-.079-.715-.394-1.172-.516-.4-.107-.646.025-1.149-.2C0,4.4-.039,4.253.053,4.2" fill="#010d3d" fill-rule="evenodd"/>
        <path id="Trazado_7417" data-name="Trazado 7417" d="M1.3.076a.461.461,0,0,0,0,.189C1.26,2.715.567,3.449.318,2.671.239,2.428.054,2.349,0,3.392c-.006.11.249.139.35.173.3.107.318.135.472.05A5.146,5.146,0,0,0,1.657.621,3.9,3.9,0,0,0,1.534.076a.129.129,0,0,0-.233,0" transform="translate(0.988 0.896)" fill="#fff" fill-rule="evenodd"/>
        <path id="Trazado_7418" data-name="Trazado 7418" d="M0,.073A.111.111,0,0,0,.077.2a.079.079,0,0,0,.1-.069A.115.115,0,0,0,.105,0,.079.079,0,0,0,0,.073" transform="translate(2.495 0.297)" fill="#fff"/>
      </g>
    </g>
    <g id="Grupo_5275" data-name="Grupo 5275" transform="translate(766.891 278.874)">
      <path id="Trazado_7419" data-name="Trazado 7419" d="M1216.213,655.028q-1.653-11.007-3.536-21.972-.935-5.442-1.924-10.874c-.664-3.637-1.345-7.294-2.186-10.9-.469-2.016-.957-4.025-1.367-6.05a6.7,6.7,0,0,1-.211-2.79,2.4,2.4,0,0,1,.813-1.37,5.958,5.958,0,0,1,.375,1.093,2.4,2.4,0,0,0,1.137,1.521,1.939,1.939,0,0,0,2.1-.258,2.571,2.571,0,0,0,.34-.353.811.811,0,0,0,.469-.469c.129-.391.261-.781.387-1.172a.61.61,0,0,0-.01-.4,1.376,1.376,0,0,0-.069-1.052,1.444,1.444,0,0,0-2-.466,3.48,3.48,0,0,1-.006-2.916c.239-.674.592-1.3.838-1.978a7.224,7.224,0,0,0,.365-1.786c.044-.028.091-.054.135-.079a.619.619,0,0,0-.627-1.068c-.129.079-.261.167-.391.258,0,0-.006,0-.01.006a9.818,9.818,0,0,0-1.515,1.332,11.553,11.553,0,0,0-4.132-2.822,7.588,7.588,0,0,0-4.891-.532,38.541,38.541,0,0,0-4.74-.45c-.967-.085-1.934-.189-2.9-.318s-1.918-.328-2.882-.45a.711.711,0,0,0-.737-.227,4.726,4.726,0,0,0-2.1,1.291,2.09,2.09,0,0,0-.3,2.33c.091.142.246.255.331.4a.824.824,0,0,1,.006.576c-.076.45-.17.894-.277,1.335a18.883,18.883,0,0,1-.583,1.9c-.23-.151-.463-.3-.7-.438a.627.627,0,0,0-.85.85c.072.129.142.255.217.384a.881.881,0,0,0-.1.022c-.233-.132-.617-.009-.589.321a2.378,2.378,0,0,0,.526,1.455.808.808,0,0,0,1.219.063,1.033,1.033,0,0,0,.1-.173c.031.057.066.107.079.126a2.511,2.511,0,0,1,.157.721,10.708,10.708,0,0,1-.139,2.154q-.378,2.924-.576,5.87c-.265,3.867-.324,7.747-.239,11.621.17,7.81.92,15.592,1.732,23.358.227,2.16.45,4.321.693,6.481.129,1.137.233,2.289.457,3.411.211,1.064.721,2.041.964,3.1a1.047,1.047,0,0,0,.932,1.455q2.107.042,4.21.079a1.055,1.055,0,0,0,1-1.316q-.888-4.936-1.619-9.9a66.006,66.006,0,0,1-.92-9.766c.009-3.332.331-6.639.079-9.97-.126-1.631-.306-3.256-.378-4.894a33.438,33.438,0,0,1,.18-4.8c.328-3.165.838-6.343.394-9.5q4.011.01,8.015.2,1.753,10.563,3.713,21.081c1.351,7.227,2.806,14.43,4.283,21.632.208,1.014.419,2.025.63,3.039a4.05,4.05,0,0,0,1.15,2.343,5.926,5.926,0,0,0,4.469,1,1.049,1.049,0,0,0,.992-1.3Z" transform="translate(-1175.208 -516.231)" fill="#fff"/>
      <path id="Trazado_7420" data-name="Trazado 7420" d="M1255.211,630.325c.18.961.334,1.924.479,2.888.236,1.587.4,2.954.658,4.51.683,4.1,1.464,8.191,2.2,12.285q1.252,6.963,2.466,13.929,1.082,6.212,2.116,12.427.383,2.305.746,4.617c.088.57.148,1.156.274,1.716a4.864,4.864,0,0,1,.189.863c.009.359-.416.4-.693.463a7.087,7.087,0,0,1-1.36.173,7.58,7.58,0,0,1-2.589-.35c-.838-.265-1.168,1.023-.353,1.285a7.842,7.842,0,0,0,2.8.384,6.2,6.2,0,0,0,2.56-.6c.983-.535.828-1.823.7-2.781-.189-1.36-.406-2.715-.624-4.069-.639-4-1.323-7.983-2.012-11.97q-1.228-7.1-2.5-14.206c-.775-4.33-1.521-8.67-2.368-12.987-.542-2.768-1.244-5.5-1.893-8.245-.041-.176-.085-.35-.126-.526-.107-.441-.753-.249-.671.186h0Z" transform="translate(-1223.918 -544.614)" fill="#010d3d"/>
      <path id="Trazado_7421" data-name="Trazado 7421" d="M1187.54,622.747c-1.241,3.515-1.26,7.316-1.37,11s-.145,7.492-.054,11.233a225.024,225.024,0,0,0,1.672,22.552q.392,3.146.869,6.28.246,1.6.51,3.19c.176,1.061.328,2.132.589,3.174a.667.667,0,0,0,.624.476,25.013,25.013,0,0,0,3.219.261,12.722,12.722,0,0,0,3.209-.5.577.577,0,0,0-.305-1.112,9.514,9.514,0,0,1-5.949.076l.475.624c-.217-1.89-.62-3.763-.916-5.643s-.548-3.634-.787-5.454q-.727-5.569-1.181-11.17c-.6-7.464-.841-14.965-.721-22.451.035-2.1.113-4.2.164-6.308a24.538,24.538,0,0,1,.557-6.065.315.315,0,0,0-.608-.167h0Z" transform="translate(-1176.55 -539.569)" fill="#010d3d"/>
      <path id="Trazado_7422" data-name="Trazado 7422" d="M1266.033,597.95c-.523.277-1.042.551-1.572.816-.239.12-.488.233-.724.362a1.045,1.045,0,0,0-.52.579.344.344,0,0,0,.239.422.351.351,0,0,0,.422-.239c-.022.054.063-.076.022-.031a1.083,1.083,0,0,1,.107-.1c.044-.038.145-.1.224-.148.22-.135.444-.268.668-.4.46-.277.926-.545,1.4-.809.29-.164.031-.6-.261-.447h0Z" transform="translate(-1229.396 -522.714)" fill="#010d3d"/>
      <path id="Trazado_7423" data-name="Trazado 7423" d="M1185.246,599.832c0,.359.328.567.34.9a2.985,2.985,0,0,1-.129.68c-.05.249-.107.495-.17.74a15.936,15.936,0,0,1-1,2.844l.472-.123c-.324-.154-.652-.312-.979-.463a1.712,1.712,0,0,0-.857-.258c-.561.06-.756.671-.74,1.156a2.48,2.48,0,0,0,.529,1.458,1.843,1.843,0,0,0,1.288.8.26.26,0,0,0,.129-.482,4.584,4.584,0,0,1-.828-.545,1.788,1.788,0,0,1-.46-.9c-.053-.287-.072-.857.337-.731a11.624,11.624,0,0,1,1.231.564.355.355,0,0,0,.507-.2,20.133,20.133,0,0,0,.973-3.014,7.374,7.374,0,0,0,.252-1.408.817.817,0,0,0-.142-.51c-.1-.151-.3-.309-.305-.5a.229.229,0,0,0-.457,0h0Z" transform="translate(-1173.894 -523.875)" fill="#010d3d"/>
      <path id="Trazado_7424" data-name="Trazado 7424" d="M1185.707,611.056c-.031-.05-.063-.1-.091-.151-.013-.022-.022-.047-.035-.069s-.006-.013.006.016c-.006-.013-.009-.028-.016-.041a.831.831,0,0,1-.025-.085.273.273,0,0,1-.019-.085V610.5c0-.031,0-.028,0,.009a.273.273,0,0,0,.013-.053c0-.006.025-.066.022-.069-.019.041-.019.047-.006.019a.152.152,0,0,0,.016-.031l.028-.047c.019-.025.013-.019-.013.013.006-.009.016-.019.022-.028s.035-.035.05-.05c.038-.041-.054.035.006,0a.3.3,0,0,1,.053-.031c.028-.013.022-.009-.022.006.01,0,.022-.009.035-.013s.041-.009.06-.016.013,0-.035,0h.072c.031,0,.025,0-.025,0a.248.248,0,0,0,.069.016c.054.013-.057-.031-.006,0,.022.013.041.022.06.035l.028.019c-.035-.028-.041-.031-.016-.013l.041.038a.406.406,0,0,1,.05.054c.01.009.016.019.025.028.019.025.016.019-.009-.016a.671.671,0,0,1,.072.11c.025.044.047.088.069.135a.291.291,0,0,0,.4.1.3.3,0,0,0,.1-.4,1.027,1.027,0,0,0-.942-.687.914.914,0,0,0-.791.964,1.425,1.425,0,0,0,.265.74.276.276,0,1,0,.479-.277h0Z" transform="translate(-1175.791 -530.731)" fill="#010d3d"/>
      <path id="Trazado_7425" data-name="Trazado 7425" d="M1260.19,604.383c-.268,1.433-.567,2.863-.838,4.3q-.208,1.11-.387,2.23a2.871,2.871,0,0,0,.088,1.789,5,5,0,0,0,1.042,1.449,3.138,3.138,0,0,0,1.427.973c.542.1,1.046-.324,1.439-.668a1.86,1.86,0,0,0,.721-1.222,1.219,1.219,0,0,0-.6-1.175,1.061,1.061,0,0,0-.34-.1c-.107-.013-.343.047-.438.006s-.208-.287-.274-.391a5.223,5.223,0,0,0-.343-.488c-.268-.328-.7.088-.548.422.2.435.526,1.124,1.064,1.187.249.028.529-.148.718.069a.665.665,0,0,1,.066.709,1.877,1.877,0,0,1-.548.63c-.3.249-.627.542-1,.252a6.035,6.035,0,0,1-1.275-1.408,2.507,2.507,0,0,1-.469-1.814c.1-.727.249-1.449.359-2.176.227-1.474.416-2.954.642-4.431.05-.334-.45-.482-.513-.142h0Z" transform="translate(-1226.425 -527.009)" fill="#010d3d"/>
      <path id="Trazado_7426" data-name="Trazado 7426" d="M1269.33,624.4a2.018,2.018,0,0,0,.211.567c.11.2.271.406.526.343a1.017,1.017,0,0,0,.246-.129.7.7,0,0,1,.22-.072c-.047.009.053-.006.053-.006h.139c-.054-.006.038.009.047.009l.066.019c.038.013.044.016.016.006a1.043,1.043,0,0,1,.1.057c.019.013.019.013-.006-.006a.612.612,0,0,1,.047.044c.016.016.028.031.044.047-.022-.028-.022-.028,0,.006s.031.054.047.082h0c.006.019.013.041.019.06s.009.041.016.06q0-.061,0-.019v.107c0-.088-.009.028-.016.054-.022.079.035-.047-.016.035-.01.013-.088.123-.047.072a1.745,1.745,0,0,1-.186.186c-.069.063-.142.123-.214.18.028-.022.025-.022-.013.009s-.079.057-.116.088a.447.447,0,0,0-.135.17.4.4,0,0,0,0,.387.383.383,0,0,0,.334.192.681.681,0,0,0,.416-.192c.072-.06.139-.123.2-.189a2.28,2.28,0,0,0,.378-.457,1.079,1.079,0,0,0,0-1.077,1.123,1.123,0,0,0-.885-.573,1.2,1.2,0,0,0-.526.06,1.4,1.4,0,0,0-.261.12c-.069.044-.139.107-.2.135l.145-.038a.8.8,0,0,0,.091.038l-.053-.082c-.031-.05-.057-.1-.082-.151a1.617,1.617,0,0,1-.1-.293.266.266,0,0,0-.513.142h0Z" transform="translate(-1233.584 -540.618)" fill="#010d3d"/>
      <path id="Trazado_7427" data-name="Trazado 7427" d="M1267.2,614.777a8.789,8.789,0,0,0,.617-2.472,6.219,6.219,0,0,0-.138-1.342c-.013-.069-.022-.142-.038-.208-.05-.233.006.041-.016.031,0,0,.06-.107.063-.117a4.294,4.294,0,0,0,.265-.573c.091-.246.3-.718-.01-.9-.274-.164-.479.239-.6.412-.224.321-.6.51-.794.854-.224.4-.019.866.038,1.282.066.466.094.938.145,1.4.025.249.054.488.057.737a3.049,3.049,0,0,1-.12.746.273.273,0,0,0,.526.145h0Z" transform="translate(-1231.617 -530.415)" fill="#010d3d"/>
      <path id="Trazado_7428" data-name="Trazado 7428" d="M1269.279,619.763l.113.391c.038.129.063.261.107.387a.517.517,0,0,0,.318.334.652.652,0,0,0,.472-.063c.028-.013.053-.025.082-.035-.066.025.019,0,.025-.006l.076-.019c.022-.006.053,0-.006,0h.079c.016,0,.1.009.019,0a.825.825,0,0,1,.151.041c-.072-.025,0,0,.019.009s.044.028.066.041c-.063-.038,0,0,.016.016l.038.038c.057.057-.025-.053.013.019l.041.069c.041.072-.013-.06.006.019a.75.75,0,0,0,.022.079c.022.079.006-.063,0,.019v.082c0,.044,0,.088,0,.135-.009.148-.009.324.135.409.176.1.35-.028.444-.173a.67.67,0,0,0,.1-.425,1.1,1.1,0,0,0-.315-.715,1.086,1.086,0,0,0-.7-.3.99.99,0,0,0-.394.06,1.659,1.659,0,0,0-.2.1.371.371,0,0,1-.079.041c.028-.013.025-.013-.006,0a.137.137,0,0,1,.05,0l.022.01c.025.019.025.019,0-.006l.013.016a.474.474,0,0,1-.025-.047,2.032,2.032,0,0,1-.079-.192l-.167-.453a.24.24,0,0,0-.29-.164.236.236,0,0,0-.164.29h0Z" transform="translate(-1233.552 -537.479)" fill="#010d3d"/>
      <path id="Trazado_7429" data-name="Trazado 7429" d="M1208.5,523.9a61.111,61.111,0,0,0-15.951-23.175c-1.833-1.723-4.267-1.726-6.654-1.672-6.264-.472-7.108,1.275-12.08,4.371a169.7,169.7,0,0,0-16.379,16.282c-1.134,1.042-2.359,2.557-.951,3.937,2.154,2.667,5.332,4.233,8.027,6.273.784.431,1.5,1.417,2.478,1.194a9.674,9.674,0,0,0,3.411-3.266,84.5,84.5,0,0,1-4.781,10.984c-1.351,2.4,18.974,1.93,21.178,2.151.334,0,1.537.293,1.584-.009.781-4.929,1.792-9.2,2.68-13.664a85.553,85.553,0,0,0,2.119-16.817c3.344,3.779,5.2,8.582,8.509,12.37a70.413,70.413,0,0,0-9.114,6.746c-1.036.954-.579,2.466-.652,3.713.006.592-.079,1.351.517,1.7,4.173.142,8.478-4.585,11.81-6.865,1.2-1.285,4.289-2.365,4.248-4.245Zm-44.9-2.227q6.037-6.009,11.759-12.317a166.356,166.356,0,0,1-4.61,17.494c-1.99-2.1-4.68-3.631-7.149-5.174Z" transform="translate(-1155.854 -454.932)" fill="#64d8cc"/>
      <path id="Trazado_7430" data-name="Trazado 7430" d="M1247.289,407.217a3.775,3.775,0,0,0-2.236.129.831.831,0,0,0-.1-.066c-.135-.063-.129-.028-.192-.17a1.638,1.638,0,0,1-.053-.29c-.025-.539.094-1.08.047-1.622a9.3,9.3,0,0,0-1.083-3.036,18.477,18.477,0,0,0-2.859-4.708,10.336,10.336,0,0,0-4.944-2.869,11.422,11.422,0,0,0-5.294-.353,6.585,6.585,0,0,0-4.39,3.111,25.4,25.4,0,0,0-1.351,2.721q-.723,1.554-1.42,3.13c-.92,2.06-1.874,4.107-2.8,6.166a13.928,13.928,0,0,0-1.02,2.872,9.258,9.258,0,0,0-.038,3.307,7.51,7.51,0,0,0,1.168,3.275,9.73,9.73,0,0,0,2.406,2.2,11.667,11.667,0,0,0,5.606,2.415,14.221,14.221,0,0,1-.639,3.439c-.337,1.055-.92,2.141-.51,3.263a1.913,1.913,0,0,0,.857,1.046,1.56,1.56,0,0,0,1.442-.208,4.207,4.207,0,0,0,1.625-2.834c.177-.668.35-1.335.532-2,.091-.334.189-.664.283-1,.073-.261.107-.765.324-.957.283-.255.9-.242,1.26-.309a10.016,10.016,0,0,0,1.729-.491,13.937,13.937,0,0,0,5.53-3.9,20.131,20.131,0,0,0,2.346-3.329c.343-.6.661-1.228.954-1.861a4.272,4.272,0,0,1,.554-.828,3.686,3.686,0,0,0,2.727-.3,3.353,3.353,0,0,0,1.7-3.124,3.088,3.088,0,0,0-2.154-2.819Z" transform="translate(-1199.4 -383.058)" fill="#fff"/>
      <path id="Trazado_7431" data-name="Trazado 7431" d="M1212.313,695.406c-.123-1.587-.116-3.181-.224-4.768s-.315-3.193-.495-4.787c-.362-3.212-.715-6.428-.96-9.652-.491-6.4-.4-12.808-.362-19.217l.035-5.464.016-2.655a13.043,13.043,0,0,0-.01-1.4,13.6,13.6,0,0,1-.107-1.4l-.548.548c.8-.013,1.6.025,2.4.013.706-.013,1.4-.091,2.11-.06,1.505.072,3.007.148,4.516.154a.364.364,0,0,0,0-.727c-1.505.006-3.011-.047-4.516-.135-.69-.041-1.361-.189-2.047-.255-.819-.082-1.647-.069-2.469-.082a.554.554,0,0,0-.548.548c-.019.816-.145,1.6-.151,2.422l-.016,2.422-.031,4.84c-.022,3.228-.057,6.459-.044,9.687s.094,6.462.315,9.687.561,6.443.926,9.656c.208,1.811.409,3.625.668,5.429s.68,3.518.951,5.291c.05.328.608.255.583-.079h0Z" transform="translate(-1192.168 -555.318)" fill="#010d3d"/>
      <path id="Trazado_7432" data-name="Trazado 7432" d="M1247.61,695.007c-.258.268-.387-.573-.409-.7-.069-.409-.094-.822-.164-1.228-.142-.835-.3-1.666-.453-2.5-.3-1.609-.652-3.212-.979-4.818-.658-3.234-1.241-6.484-1.782-9.741-1.061-6.365-2.22-12.713-3.291-19.075q-.454-2.683-.863-5.376-.208-1.351-.4-2.7a11.637,11.637,0,0,0-.51-2.8.558.558,0,0,0-1.09.148,10.048,10.048,0,0,0,.224,2.633c.12.863.243,1.707.372,2.56q.383,2.551.809,5.092c.551,3.307,1.14,6.6,1.723,9.9,1.209,6.85,2.239,13.731,3.656,20.539.394,1.9.831,3.8,1.411,5.653.154.494.35.964.523,1.449a4.488,4.488,0,0,0,.441,1.137c.157.217.381.365.63.224a.349.349,0,0,0,.217-.387.043.043,0,0,0-.069-.019h0Z" transform="translate(-1211.883 -555.432)" fill="#010d3d"/>
      <path id="Trazado_7433" data-name="Trazado 7433" d="M1224.207,403.783c-.394.91-.9,1.748-1.3,2.658s-.806,1.817-1.234,2.715c-.822,1.735-1.745,3.414-2.636,5.111a17.6,17.6,0,0,0-2.006,5.363,8.467,8.467,0,0,0,.743,5.3c1.581,3.146,4.865,4.941,8.175,5.735a14.828,14.828,0,0,0,5.763.337,12.06,12.06,0,0,0,4.582-1.9c3.4-2.173,5.59-5.647,7.287-9.218.328-.687-.721-1.279-1.014-.592a20.321,20.321,0,0,1-5.732,8.1,11.937,11.937,0,0,1-4.223,2.107,10.973,10.973,0,0,1-5.155.113c-3.1-.624-6.3-1.842-8.081-4.623a7.07,7.07,0,0,1-1.086-4.532,13.9,13.9,0,0,1,1.66-4.985c.935-1.836,1.949-3.628,2.837-5.489.453-.951.888-1.908,1.294-2.882s.639-1.968.973-2.957c.167-.488-.636-.841-.844-.356h0Z" transform="translate(-1197.673 -389.56)" fill="#010d3d"/>
      <path id="Trazado_7434" data-name="Trazado 7434" d="M1300.147,434.108a1.816,1.816,0,0,1,2.589-.1,3.212,3.212,0,0,1,.825,3.118,3.256,3.256,0,0,1-.687,1.4,3.4,3.4,0,0,1-1.181.976,1.327,1.327,0,0,1-1.2-.035,1.967,1.967,0,0,1-.432-.409c-.161-.18-.409-.28-.551-.422a.276.276,0,0,0-.431.057,1.319,1.319,0,0,0-.224.6,1.229,1.229,0,0,0,.391.92,2.451,2.451,0,0,0,1.449.746,2.992,2.992,0,0,0,3.042-1.628,6.738,6.738,0,0,0,.482-1.691,6.315,6.315,0,0,0,.12-1.915,3.386,3.386,0,0,0-1.578-2.554,2.368,2.368,0,0,0-3.02.529c-.227.29.173.705.413.413h0Z" transform="translate(-1253.817 -409.631)" fill="#010d3d"/>
      <path id="Trazado_7435" data-name="Trazado 7435" d="M1245.187,382.718c1.105-1.036,2.274-1.984,3.357-3.045a4.53,4.53,0,0,0,1.074-1.49,1.653,1.653,0,0,0-.343-1.713l-.472.813a3.3,3.3,0,0,1,1.131.362c.331.192.652.4.97.611.261.176.687-.123.561-.431a2.788,2.788,0,0,0-2.132-1.729l.11.835a19.054,19.054,0,0,1,1.691-1.134c.416-.249.277-1.033-.265-.976a4.99,4.99,0,0,0-2.239.866l.74.2c-2.434-5.14-6.928-8.786-11.523-11.926a10.042,10.042,0,0,0-4.34-2.009.373.373,0,0,0-.369.368,11.66,11.66,0,0,0,.362,2.6l.542-.419a35.128,35.128,0,0,0-7.312-3.779,28.336,28.336,0,0,0-8.106-1.6.671.671,0,0,0-.664.664c.066,3.291,2.349,5.984,4.714,8.034l.633-.819a12.913,12.913,0,0,0-7.788-.948.5.5,0,0,0-.337.6,4.065,4.065,0,0,0,1.968,2.469,32.546,32.546,0,0,0,3.423,2.063l.217-.8a7.9,7.9,0,0,0-3.244.271c-1.1.375-.453,1.619-.041,2.3a12.134,12.134,0,0,0,4.1,3.615c.466.3.891-.441.432-.737a13.082,13.082,0,0,1-3.411-2.79,5.506,5.506,0,0,1-.557-.885,3.91,3.91,0,0,1-.208-.488c-.076-.22-.066-.17.17-.23a8.964,8.964,0,0,1,2.765-.2.432.432,0,0,0,.217-.8,18.255,18.255,0,0,1-3.133-1.77,3.711,3.711,0,0,1-1.757-2.277l-.337.6a11.419,11.419,0,0,1,7,.913c.5.246,1.093-.394.633-.819-2.072-1.921-4.078-4.33-4.122-7.3l-.664.664a36.7,36.7,0,0,1,7.772,1.474,28.88,28.88,0,0,1,7.271,3.212.372.372,0,0,0,.542-.419,6.353,6.353,0,0,1-.34-2.4l-.466.353c1.386.334,2.422,1.367,3.568,2.141s2.217,1.531,3.288,2.346a34.042,34.042,0,0,1,5.788,5.454,18.08,18.08,0,0,1,2.384,3.817.547.547,0,0,0,.74.2,6.057,6.057,0,0,1,1.833-.768l-.51-.875a17.481,17.481,0,0,1-1.518,1.165c-.3.2-.309.756.11.835a2.347,2.347,0,0,1,1.675,1.14l.523-.523c-.356-.2-.718-.381-1.09-.548a6.1,6.1,0,0,1-1.023-.652c-.444-.315-.831.274-.665.664.135.315-.246.916-.409,1.159a9.306,9.306,0,0,1-1.055,1.175c-.416.435-.781.875-1.159,1.342-.4.491-.86.935-1.291,1.4a.417.417,0,0,0,.589.589h0Z" transform="translate(-1196.492 -359.117)" fill="#010d3d"/>
      <path id="Trazado_7436" data-name="Trazado 7436" d="M1239.827,399.292a11.8,11.8,0,0,0,.992,3.14,10.723,10.723,0,0,0,.888,1.5,1.944,1.944,0,0,0,1.023.92.844.844,0,0,0,.964-.63,9.765,9.765,0,0,0,.476-1.735,13.1,13.1,0,0,0,.17-3.678l-.778.1a17.671,17.671,0,0,0,1.367,3.943,13.908,13.908,0,0,0,2.274,3.5,1.657,1.657,0,0,0,1.628.649c.62-.2.784-.8.853-1.357.1-.794.148-1.6.18-2.4a9.451,9.451,0,0,0-.05-2.409l-.765.321c.252.576.378,1.212.6,1.808s.45,1.131.712,1.679a19.126,19.126,0,0,0,1.94,3.2.348.348,0,0,0,.592,0,11.117,11.117,0,0,0,1.83-5.1l-.831.113a18.817,18.817,0,0,1,.967,3.707c.107.642.18,1.291.233,1.94a8.078,8.078,0,0,0,.249,1.694,2.347,2.347,0,0,0,2.1,1.82,2.52,2.52,0,0,0,2.066-1.723.376.376,0,0,0-.649-.378c-.372.614-.885,1.616-1.767,1.288-.992-.372-1.143-1.578-1.219-2.488a31.469,31.469,0,0,0-1.168-6.084c-.107-.375-.746-.431-.819,0a16.6,16.6,0,0,1-.52,2.5,11.826,11.826,0,0,1-1.071,2.365l.539-.069a15.155,15.155,0,0,1-1.915-3.039,14.349,14.349,0,0,1-.664-1.666,6.464,6.464,0,0,1-.428-1.782c-.013-.45-.746-.6-.822-.11a14.465,14.465,0,0,0-.035,2.025c-.01.661-.041,1.376-.091,2.066-.022.3.038,1.338-.475,1.26-.482-.072-.917-.778-1.187-1.131a15.019,15.019,0,0,1-2.888-6.355c-.085-.431-.825-.34-.778.1a12.171,12.171,0,0,1-.025,2.97,13.418,13.418,0,0,1-.265,1.367c-.06.236-.123.472-.2.705-.031.1-.063.287-.189.312-.079.016-.22-.151-.261-.2a8.538,8.538,0,0,1-1.386-2.23,10.719,10.719,0,0,1-.847-2.592c-.069-.359-.6-.2-.545.151h0Z" transform="translate(-1213.381 -386.042)" fill="#010d3d"/>
      <path id="Trazado_7437" data-name="Trazado 7437" d="M1236.079,431.966a26.86,26.86,0,0,0-3.656,2.138,15.9,15.9,0,0,0-3.026,3.023.716.716,0,0,0-.107.828c1,1.845,2.346,3.845,4.481,4.437.183.05.4-.176.268-.346-.293-.381-.664-.705-.945-1.1a11.623,11.623,0,0,0-.989-1.168,9.008,9.008,0,0,1-1.638-2.51l-.107.828a33.338,33.338,0,0,1,2.856-2.957,16.335,16.335,0,0,1,1.48-1.32,15.423,15.423,0,0,1,1.779-1.165c.447-.252.054-.913-.4-.687h0Z" transform="translate(-1206.103 -408.994)" fill="#010d3d"/>
      <path id="Trazado_7438" data-name="Trazado 7438" d="M1236.139,424.962a2.171,2.171,0,0,1,.183-.419,1.635,1.635,0,0,1,.305-.359,2.538,2.538,0,0,1,.794-.466c.044-.019,0,0-.009,0,.019-.006.035-.016.054-.022l.11-.038c.082-.025.167-.047.252-.066,0,0,.079-.009.031-.006.022,0,.047,0,.073,0H1238c-.009,0-.044-.009,0,0a.4.4,0,0,1,.066.019c-.022-.009-.025-.019-.009,0,.025.035-.006-.006-.013-.016.016.016.031.035.05.05-.05-.041-.006,0,.016.028.041.063-.006-.041.016.031.009.035.022.107.013.028a.877.877,0,0,1,0,.129.286.286,0,0,1,0,.054c0-.016.016-.063,0-.016s-.022.088-.035.132c-.006.022-.016.044-.022.066,0,0-.028.069-.013.031s-.016.028-.016.028c-.013.028-.028.054-.041.082-.113.211-.249.409-.372.617-.145.246-.416.6-.3.891a.454.454,0,0,0,.538.305c.312-.05.482-.472.617-.724.12-.224.246-.447.343-.68a1.48,1.48,0,0,0-.035-1.464.982.982,0,0,0-.652-.419,1.651,1.651,0,0,0-.784.091,2.158,2.158,0,0,0-.652.331,3.352,3.352,0,0,0-.409.409,3.231,3.231,0,0,0-.664,1.231.253.253,0,0,0,.488.135h0Z" transform="translate(-1210.512 -402.705)" fill="#010d3d"/>
      <path id="Trazado_7439" data-name="Trazado 7439" d="M1267.161,433.487c0,.044,0-.031.006-.031.01-.038.019-.076.031-.113a.722.722,0,0,1,.057-.113c.041-.066-.028.031.019-.028a1.077,1.077,0,0,1,.082-.088,1.845,1.845,0,0,1,.167-.148c.063-.054-.044.031.025-.019.035-.025.069-.05.1-.072l.085-.057c.009-.006.085-.047.016-.013.161-.082.328-.148.491-.224.063-.028.126-.06.189-.091.031-.016.063-.031.094-.044-.091.038-.006,0,.009,0a2.08,2.08,0,0,1,.2-.063c.041-.013.082-.022.123-.031s.1-.013.019-.006c.066-.006.129,0,.192-.006.142-.006-.066-.025.01,0,.028.009.06.013.091.022s.1.047.041.013.019.019.035.025c.066.025-.069-.082.019.013.01.013.1.107.047.044-.066-.079.094.154.041.066-.044-.072.016.047.019.057a.9.9,0,0,1,.022.088.809.809,0,0,1,.016.091c0-.019-.016-.123-.006-.013.006.066.019.132.028.2a2.238,2.238,0,0,0,.069.227c-.013-.041,0-.079-.009,0,0-.016,0-.1,0,.013,0,.063,0,.129.006.192a1.05,1.05,0,0,1-.047.441,4.23,4.23,0,0,1-.425.932,1.936,1.936,0,0,0-.265.463.323.323,0,0,0,.312.409c.239,0,.359-.255.463-.435.094-.164.179-.334.261-.507.173-.362.321-.737.476-1.105l-.1.167a1.017,1.017,0,0,0,.236-.431c.006-.019.079-.2.035-.1a1.134,1.134,0,0,0,.107-.365,1.582,1.582,0,0,0-.192-.875,1.541,1.541,0,0,0-1.688-.737,3.017,3.017,0,0,0-1.537.819,2.084,2.084,0,0,0-.806,1.445.416.416,0,1,0,.831,0h0Z" transform="translate(-1231.538 -408.503)" fill="#010d3d"/>
      <path id="Trazado_7440" data-name="Trazado 7440" d="M1255.524,465.912a3.906,3.906,0,0,0,2.119.592,4.36,4.36,0,0,0,2.277-.816,5.784,5.784,0,0,0,1.7-1.6c.391-.573.917-1.675.5-2.343a.5.5,0,0,0-.853,0,3.642,3.642,0,0,0-.217.926,2.79,2.79,0,0,1-.356.816,4.469,4.469,0,0,1-1.3,1.291,4.9,4.9,0,0,1-1.726.831,2.415,2.415,0,0,1-1.767-.35c-.413-.252-.781.387-.375.642h0Z" transform="translate(-1224.017 -429.263)" fill="#010d3d"/>
      <path id="Trazado_7441" data-name="Trazado 7441" d="M1272.554,461.859a2.839,2.839,0,0,1,.463-.006.774.774,0,0,1,.117.013c.044,0-.016,0-.022,0l.066.009c.076.013.151.031.227.05s.148.044.22.069c.031.013.063.022.091.035.069.028.013.006,0,0l.06.028a1.848,1.848,0,0,1,.2.11c.028.019.057.038.082.057s.117.091.05.035a.614.614,0,0,0,.4.2.423.423,0,0,0,.369-.183.448.448,0,0,0-.01-.444.845.845,0,0,0-.283-.242,3.576,3.576,0,0,0-.907-.4,3.046,3.046,0,0,0-1.118-.091.391.391,0,0,0-.381.381.387.387,0,0,0,.381.381h0Z" transform="translate(-1235.545 -428.974)" fill="#010d3d"/>
      <path id="Trazado_7442" data-name="Trazado 7442" d="M1244.6,487.8a21.758,21.758,0,0,1-1.238,4.274c-.148.375-.315.74-.479,1.109a1.009,1.009,0,0,0-.1.778,3.838,3.838,0,0,0,.62.891,8.494,8.494,0,0,1,.677.97.37.37,0,0,0,.5.132,7.461,7.461,0,0,1,2.044-.951c.661-.252.806-1.209,1.02-1.8.283-.781.608-1.543.885-2.324a8.336,8.336,0,0,0,.705-2.5.459.459,0,0,0-.85-.23,8.863,8.863,0,0,0-.721,2.261c-.2.734-.372,1.455-.6,2.173-.12.381-.249.762-.378,1.14a2.949,2.949,0,0,1-.148.425c-.11.208-.236.227-.45.293a8.574,8.574,0,0,0-1.883.888l.444.057a8.17,8.17,0,0,1-.687-.857c-.22-.293-.6-.624-.5-1a6.639,6.639,0,0,1,.381-.872c.113-.277.233-.579.337-.872a19.409,19.409,0,0,0,.882-3.852c.041-.3-.413-.441-.466-.129h0Z" transform="translate(-1215.38 -447.151)" fill="#010d3d"/>
      <path id="Trazado_7443" data-name="Trazado 7443" d="M1239.233,508.156a6.327,6.327,0,0,1-1.6.91l.375.214a13.875,13.875,0,0,1-.706-2.2,4.557,4.557,0,0,1-.079-1.055,7.653,7.653,0,0,1,.2-1.068.285.285,0,0,0-.52-.217,3.589,3.589,0,0,0-.246,2.352,10.28,10.28,0,0,0,.79,2.422.306.306,0,0,0,.416.11c.523-.368,1.1-.652,1.616-1.033.255-.189.016-.617-.252-.431h0Z" transform="translate(-1211.156 -458.785)" fill="#010d3d"/>
      <path id="Trazado_7444" data-name="Trazado 7444" d="M1248.354,510.749a7.6,7.6,0,0,0,.576.992c.179.28.331.674.639.831.413.214.819-.224,1.153-.413s.661-.387.986-.6.642-.422.954-.646.74-.359.863-.759a2.575,2.575,0,0,0-.135-1.2,3.163,3.163,0,0,0-.409-1.194.2.2,0,0,0-.362.047,5.733,5.733,0,0,0,.038,2.006c.016.255-.183.384-.378.523-.268.192-.539.378-.816.554s-.535.334-.809.488a8.534,8.534,0,0,1-.86.4c.1.031.12.035.066,0-.028-.019-.057-.041-.085-.06-.057-.041-.11-.085-.164-.132a2,2,0,0,1-.324-.328,5.85,5.85,0,0,1-.482-.781c-.154-.3-.586-.038-.45.265h0Z" transform="translate(-1219.205 -460.89)" fill="#010d3d"/>
      <path id="Trazado_7445" data-name="Trazado 7445" d="M1269.115,801.75a.345.345,0,0,0,0-.69.345.345,0,0,0,0,.69Z" transform="translate(-1233.219 -661.882)" fill="#010d3d"/>
      <g id="Grupo_5273" data-name="Grupo 5273" transform="translate(5.578 140.359)">
        <path id="Trazado_7446" data-name="Trazado 7446" d="M1183.982,806.49c-1.3,1.408-3.395,1.751-5.313,1.682a6.916,6.916,0,0,0-1.634.044,1.832,1.832,0,0,0-1.307.894,1.753,1.753,0,0,0,.636,2.063,4.085,4.085,0,0,0,2.208.671,13.267,13.267,0,0,0,8.021-2.019c.746.608,1.877,1.039,2.623.431a1.677,1.677,0,0,0,.5-1.549,4.4,4.4,0,0,0-.658-1.562,1.177,1.177,0,0,0-.463-.51,1.211,1.211,0,0,0-.592-.063l-4.248.252" transform="translate(-1174.955 -805.961)" fill="#010d3d"/>
        <path id="Trazado_7447" data-name="Trazado 7447" d="M1182.373,805.119a5.579,5.579,0,0,1-3.965,1.288c-1.509-.025-3.442-.469-4.466.983s.227,3.014,1.565,3.524a7.258,7.258,0,0,0,2.352.362,14.119,14.119,0,0,0,2.453-.151,13.568,13.568,0,0,0,5.209-1.908l-.762-.1a3.022,3.022,0,0,0,3.1.7,2.4,2.4,0,0,0,.992-2.951,4.957,4.957,0,0,0-.841-1.54,1.35,1.35,0,0,0-.746-.5,2.57,2.57,0,0,0-.951.1,19.57,19.57,0,0,1-1.971.091,6.637,6.637,0,0,0-2.088.227.439.439,0,0,0,0,.838,9.495,9.495,0,0,0,2.922-.072,6.657,6.657,0,0,1,1.414-.063c.416.063.523.372.705.718.274.526.68,1.389.173,1.912-.479.491-1.4-.025-1.817-.356a.653.653,0,0,0-.762-.1,12.434,12.434,0,0,1-8.21,1.962,2.271,2.271,0,0,1-1.675-.85.9.9,0,0,1,.211-1.307,3.631,3.631,0,0,1,2.066-.242,8.535,8.535,0,0,0,1.93-.208,7.258,7.258,0,0,0,1.962-.617,5.906,5.906,0,0,0,1.641-1.307c.265-.3-.151-.727-.441-.441h0Z" transform="translate(-1173.567 -804.81)" fill="#010d3d"/>
      </g>
      <g id="Grupo_5274" data-name="Grupo 5274" transform="translate(34.899 139.784)">
        <path id="Trazado_7448" data-name="Trazado 7448" d="M1268.489,804.41a8.548,8.548,0,0,0-.179,2.7,3.412,3.412,0,0,0,.409,1.464,1.591,1.591,0,0,0,1.231.809,1.045,1.045,0,0,0,1.087-.869,12.642,12.642,0,0,0,4.264,2.815,5.412,5.412,0,0,0,4.919-.51.959.959,0,0,0,.312-.324.865.865,0,0,0-.047-.731c-.45-.983-1.612-1.37-2.642-1.7-1.732-.564-3.574-1.4-4.327-3.055-.088-.192-.186-.416-.391-.469a.675.675,0,0,0-.359.047,6.307,6.307,0,0,1-2.387.255,3.243,3.243,0,0,0-1.88.12l.419,2.047" transform="translate(-1267.768 -803.961)" fill="#010d3d"/>
        <path id="Trazado_7449" data-name="Trazado 7449" d="M1267.076,803.349c-.375,1.452-.765,3.414.192,4.73a2.017,2.017,0,0,0,1.789.9,1.6,1.6,0,0,0,1.452-1.285l-.986.261a13.233,13.233,0,0,0,5.007,3.061,6.88,6.88,0,0,0,2.73.154,4.546,4.546,0,0,0,2.463-1.049c.765-.737.211-1.845-.453-2.428a7.608,7.608,0,0,0-2.249-1.19c-1.464-.608-3.1-1.137-3.955-2.592-.274-.463-.516-.983-1.156-.923a5.249,5.249,0,0,0-.778.261,4.468,4.468,0,0,1-.853.126c-1.115.053-2.233-.5-3.2.274a.456.456,0,0,0-.12.457c.227.655.384,1.335.6,2,.091.287.586.258.554-.076-.063-.683-.183-1.364-.23-2.047l-.343.453a14.592,14.592,0,0,1,2.463-.05,10.462,10.462,0,0,0,1.257-.167,1.776,1.776,0,0,1,.539-.1c-.091-.009-.047-.107.016.057.044.11.091.224.142.331a5.937,5.937,0,0,0,3.319,2.749c.68.283,1.383.435,2.075.668a2.268,2.268,0,0,1,1.486,1.064c.151.346-.135.457-.409.62a3.91,3.91,0,0,1-1.09.444,5,5,0,0,1-2.274-.013,10.179,10.179,0,0,1-4.7-2.916c-.286-.277-.916-.2-.986.261a.49.49,0,0,1-.649.416,1.305,1.305,0,0,1-.822-.926,7.106,7.106,0,0,1-.192-3.351c.076-.406-.523-.586-.63-.173h0Z" transform="translate(-1266.67 -802.985)" fill="#010d3d"/>
      </g>
      <path id="Trazado_7450" data-name="Trazado 7450" d="M1250.022,377.354a13.182,13.182,0,0,0-1-2.346,15.191,15.191,0,0,0-3.379-3.937c-1.335-1.187-2.743-2.308-4.192-3.357a37.6,37.6,0,0,0-5.3-3.2.574.574,0,0,0-.831.636,9.219,9.219,0,0,1,.094,1.691,17.9,17.9,0,0,0-2.321-1.562,21.784,21.784,0,0,0-3.48-1.524,27.583,27.583,0,0,0-4.056-1.014c-1.427-.258-2.888-.535-4.333-.655a.787.787,0,0,0-.753.992,21.214,21.214,0,0,0,3.562,5.971c-.06-.022-.123-.038-.179-.057a13.593,13.593,0,0,0-1.845-.488,10.4,10.4,0,0,0-3.933.129.784.784,0,0,0-.343,1.3,15.926,15.926,0,0,0,4.522,2.759,4.959,4.959,0,0,1-2.592.394.81.81,0,0,0-.567,1.37,26.29,26.29,0,0,0,3.754,3.269.733.733,0,0,0,1-.261l.822-1.389.359-.6c.06.126.123.252.179.375.176.362.356.724.532,1.09.375.775.759,1.553,1.137,2.33a.774.774,0,0,0,1.4-.186c.157-1,.324-2.012.485-3.02a11.627,11.627,0,0,0,3.048,4.532c.129.242.258.488.4.724a.874.874,0,0,0,1.616-.438,3.073,3.073,0,0,0-.224-1.266,7.273,7.273,0,0,0,.2-2.425c-.01-.22-.022-.444-.031-.668a31.375,31.375,0,0,0,2.428,5.266.867.867,0,0,0,.334.324.683.683,0,0,0,1.275-.34,6.377,6.377,0,0,0,1.216-2.434c.085.34.176.68.252,1.011l.5,2.252c.167.753.321,1.508.5,2.255a1.94,1.94,0,0,0,1.14,1.508c1.039.359,2.123-.387,2.841-1.234a3.964,3.964,0,0,0,2.768-1.521,9.473,9.473,0,0,0,3.146-3.637,3.764,3.764,0,0,0-.135-2.62Z" transform="translate(-1198.086 -361.15)" fill="#010d3d"/>
    </g>
  </g>
</svg>
