<svg xmlns="http://www.w3.org/2000/svg" width="216.674" height="135.736" viewBox="0 0 216.674 135.736">
  <g id="IICE_LandingCompliancePenal_Nivel2_1" transform="translate(-574.669 -294.59)">
    <g id="Grupo_5278" data-name="Grupo 5278" transform="translate(629.171 298.79)">
      <path id="Trazado_7451" data-name="Trazado 7451" d="M866.186,374.718a7.558,7.558,0,0,0,2.544-2.923,10.787,10.787,0,0,0,.747-6.64,15.193,15.193,0,0,0-5.7-9.661,10.308,10.308,0,0,0-2.471-1.336,11.884,11.884,0,0,0-2.462-.57c-.587-.09-1.474-.185-1.85-.643-.129-.157-.07-.522.051-.828.211-.533.511-1.033.764-1.547a5.627,5.627,0,0,0,.764-3.007,4.15,4.15,0,0,0-1.339-2.513,9.159,9.159,0,0,1-1.749-1.847,4.973,4.973,0,0,1-.441-2.457,18.256,18.256,0,0,0-.118-3.254,4.727,4.727,0,0,0-.542-1.5,15.413,15.413,0,0,0-.935-1.241.948.948,0,0,1-.233-.977,2.187,2.187,0,0,1,1.117-.938,17.246,17.246,0,0,0,2.448-1.1.362.362,0,0,0,.517.146,9.174,9.174,0,0,0,3.644-5.079,11.356,11.356,0,0,0-.1-6.334,8.125,8.125,0,0,0-1.432-2.914,8.335,8.335,0,0,0-2.471-2.019,10.316,10.316,0,0,0-6.188-1.072,9.329,9.329,0,0,0-5.031,2.266,11.335,11.335,0,0,0-9.293-7.114c-4.731-.531-8.861,2.622-10.531,6.909a10.782,10.782,0,0,0-.713,4.72,8.675,8.675,0,0,0-4.534-2.182,8.022,8.022,0,0,0-6.876,2.97c-3.184,3.807-3.543,9.456-1.817,13.976a15.506,15.506,0,0,0,3.95,5.9,10.986,10.986,0,0,0-1.9,13.313,10.984,10.984,0,0,0,2.033,2.6,11.719,11.719,0,0,0-4.329,8.684,11.134,11.134,0,0,0,5.023,9.49,11.247,11.247,0,0,0,4.4,1.777,15.943,15.943,0,0,0-2.872,8.959,9.32,9.32,0,0,0,1.174,5.143,4.675,4.675,0,0,0,4.736,2,6.5,6.5,0,0,0,2.7-1.1,17.69,17.69,0,0,0-.536,4.071,8.393,8.393,0,0,0,1.6,5.528c1.552,1.878,4.02,1.732,6.146,1.073a16.963,16.963,0,0,0,5.483-2.931,16.55,16.55,0,0,0,3.95-4.543,9.5,9.5,0,0,0,6.612,1.668,9.293,9.293,0,0,0,6.5-4.04,9.094,9.094,0,0,0,1.311-2.956c2.861.943,6.045-.474,8.108-2.569,2.549-2.583,4.071-6.721,2.622-10.22a7.056,7.056,0,0,0-2.479-3.133Z" transform="translate(-799.101 -309.552)" fill="#00b2e3"/>
      <path id="Trazado_7452" data-name="Trazado 7452" d="M882.858,426.881a.783.783,0,0,0-.78-.208c-.323.132-.651.267-.98.4a.787.787,0,0,0-.691-.121,35.281,35.281,0,0,1-6.112,1.078,41.425,41.425,0,0,1-6.247-.006,54.4,54.4,0,0,1-12.19-2.412,50.848,50.848,0,0,1-6.64-2.642.778.778,0,0,0-.825.059,20.846,20.846,0,0,0-2.2-2.047,12.246,12.246,0,0,0-6.924-2.454,15.827,15.827,0,0,0-4.635.671.894.894,0,0,0-.065-.2c-.651-1.421-1.322-2.822-2.035-4.209.766-.244,1.53-.505,2.285-.786h0a5.712,5.712,0,0,1,1.9-1.853,6.211,6.211,0,0,0,1.575-1.94,17.335,17.335,0,0,0,1.188-2.2c.323-.761.57-1.555.817-2.341a25.117,25.117,0,0,0,1.32-5.222,26.5,26.5,0,0,0-1.3-9.54c-.949-.713-1.923-1.39-2.838-2.145a12.887,12.887,0,0,1-1.991-1.979,12.454,12.454,0,0,1-1.454-2.476,54.012,54.012,0,0,1-2.21-6.491q-1.162-3.71-2.325-7.418a.8.8,0,0,0-.545-.553.34.34,0,0,0-.581-.115c-.056.065-.1.132-.154.2a.76.76,0,0,0-.4.547c-.16.241-.312.486-.46.733s-.292.5-.438.747a5.087,5.087,0,0,1-1.64,1.946,2.885,2.885,0,0,1-2.476.056,3.822,3.822,0,0,1-1.92-1.842,7.565,7.565,0,0,1-.643-3.389c-.008-.553-.884-.716-1-.135a30.151,30.151,0,0,1-1.207,4.43,18.836,18.836,0,0,1-1.123,2.513,15.71,15.71,0,0,1-.932,1.51c-.118.168-.284.46-.519.435-.2-.02-.421-.272-.55-.413a5.881,5.881,0,0,1-1.05-2.757c-.138-.592-.921-.39-.98.132a13.671,13.671,0,0,1-2.5,6.151A10.376,10.376,0,0,1,808.163,383a2.085,2.085,0,0,1-1.48.48,2.254,2.254,0,0,1-1.255-.724c-.893-.921-1.286-2.221-2.106-3.209-.306-.368-.853.034-.758.441a94.938,94.938,0,0,1,2.007,11.171c.062.536.121,1.075.171,1.614a5.419,5.419,0,0,1-.6-1.193,3.728,3.728,0,0,0-1.359-1.842,3.785,3.785,0,0,0-4.624.856,5.549,5.549,0,0,0-1.345,4.93A7.938,7.938,0,0,0,797.9,398.2a7.592,7.592,0,0,0,1.878,2.165c1.634,1.171,3.451.143,4.725-1.115.031.1.065.191.1.289.152.446.306.9.475,1.336q.476,1.247,1.025,2.465a17.238,17.238,0,0,0,2.81,4.495c1.238,1.37,2.412,4.077,3.964,5.059a42.369,42.369,0,0,0,4.871,2.254c1.9.9,4.436.511,6.544.618.424.926.9,1.822,1.286,2.768l1.255,3.071-.362.112a23.332,23.332,0,0,0-3.928,1.373,7.969,7.969,0,0,0-2.6,2.266,11.978,11.978,0,0,0-1.5,3.1c-.41,1.095-.778,2.21-1.277,3.268a19.341,19.341,0,0,1-1.718,2.973,19.043,19.043,0,0,1-11.169,7.547,19.48,19.48,0,0,1-14.31-2.443q-.787-.484-1.533-1.03a.362.362,0,0,0-.4-.022,4.746,4.746,0,0,0-.491-.865c-.222-.275-.458-.545-.7-.806a19.837,19.837,0,0,0-3.184-2.771c-2.24-1.578-5.065-2.984-7.847-3.01a.626.626,0,0,0-.528.306c-.034-.02-.065-.039-.1-.059a.347.347,0,0,0-.351.6,5.861,5.861,0,0,1,2.232,2.417q-1.537.072-3.08.135a.37.37,0,0,0-.258.623,8.759,8.759,0,0,0,3.015,1.887q-1.238.5-2.476,1c-.241.1-.413.432-.171.637a7.2,7.2,0,0,0,4.2,1.7c-.18.216-.357.432-.536.651a.408.408,0,0,0,.079.626,4.43,4.43,0,0,0,2.193.741,6.81,6.81,0,0,1,2.482.679,15.059,15.059,0,0,1,3.588,3.3,16.831,16.831,0,0,0,3.8,3.175,19.948,19.948,0,0,0,4.776,1.988,32.761,32.761,0,0,0,5.1.957,29.186,29.186,0,0,0,5.772.211,12.784,12.784,0,0,0,5.371-1.575,20.228,20.228,0,0,0,4.276-3.515,95.563,95.563,0,0,0,8.167-9.484,18.75,18.75,0,0,1,.606,3.136c.143,1.418.076,2.844.208,4.262a9.519,9.519,0,0,0,1.261,3.841,28.114,28.114,0,0,1,1.774,3.521c1.985,5.127,1.912,10.739,1.056,16.093-.528,3.321-1.328,6.606-2.092,9.88a.619.619,0,0,0,.427.755c4.012.654,8.007,1.384,12.005,2.108,1.718.312,3.588.685,5.267,0a4.084,4.084,0,0,0,2.094-1.819c2.117,3.24,7.218,2.322,10.576,1.965q1.921-.2,3.838-.407c.126-.014.253-.025.382-.036a10.313,10.313,0,0,0,2.7-.413,2.462,2.462,0,0,0,1.533-2.08,15.51,15.51,0,0,0,.157-3.479c-.278-4.7-2.052-9.293-3.911-13.572-.957-2.207-1.988-4.391-3.128-6.511-.553-1.025-1.143-2.027-1.713-3.041a10.3,10.3,0,0,1-1.249-3.027,12.433,12.433,0,0,1,.177-4,18.226,18.226,0,0,0,.166-3.852,16.883,16.883,0,0,0-1.258-5.2,41.641,41.641,0,0,0,14.571,1.971,41.067,41.067,0,0,0,8.083-.789A9.372,9.372,0,0,0,883,433.754c1.255-2.016,1.62-5.017-.14-6.87Z" transform="translate(-772.275 -351.748)" fill="#fff"/>
      <path id="Trazado_7453" data-name="Trazado 7453" d="M975.347,571.625a22.9,22.9,0,0,0-.11-2.634c-.149-1.727-.387-3.453-.632-5.169q-.729-5.176-1.884-10.276a53.059,53.059,0,0,0-1.51-5.775.616.616,0,0,0-1.2.163,10.262,10.262,0,0,1-.093,1.468,4.229,4.229,0,0,1-.494,1.266,2.509,2.509,0,0,1-1.777,1.322,5.679,5.679,0,0,1-1.328,0c-.542-.039-1.078-.079-1.62-.107-1.042-.059-2.083-.135-3.125-.216a.555.555,0,0,0-.118.008c-.028-.07-.059-.14-.09-.208-.174-.382-.845-.107-.685.289s.331.778.469,1.174c.149.435.258.876.424,1.308q.48,1.263,1.019,2.5c.708,1.634,1.446,3.257,2.232,4.854a45.484,45.484,0,0,0,5.573,8.889,18.119,18.119,0,0,0,2.1,2.075c.747.654,1.44,1.367,2.193,2.013.261.225.769.1.741-.306A25.835,25.835,0,0,1,975.347,571.625Z" transform="translate(-906.787 -480.579)" fill="#f9d0dd"/>
      <g id="Grupo_5277" data-name="Grupo 5277" transform="translate(53.048 82.526)">
        <path id="Trazado_7454" data-name="Trazado 7454" d="M964.341,610.9l-.452-.315a15.6,15.6,0,0,0-1.572-4.1c-.326-.466-1-1.342-1.376-1.859-.067-.1-.135-.2-.2-.289q-.025-.038-.042-.067h-.008a2.428,2.428,0,0,0-.561-.539,1.193,1.193,0,0,0-1.777.427c-.1.135-.578.168-.606.488a1.286,1.286,0,0,1,.432-.132,4.8,4.8,0,0,1,.983.368c-.912,2.246.985,4.478,1.884,6.362-.006.126-.758.328-.525.8a.127.127,0,0,0,.118.084c.769-.059,1.095-.545,1.825-.677.635-.115,1.075.143,1.859-.146a.232.232,0,0,0,.028-.41" transform="translate(-957.74 -603.492)" fill="#010d3d" fill-rule="evenodd"/>
        <path id="Trazado_7455" data-name="Trazado 7455" d="M964.2,608.994a.793.793,0,0,1,.042.317c.629,4.113,1.946,5.45,2.179,4.186.073-.4.365-.494.691,1.258.034.188-.382.194-.542.236-.469.129-.5.177-.772.011-.154-.093-2.187-3.257-2.069-5.152a5.488,5.488,0,0,1,.081-.9c.017-.079.236-.213.387.036" transform="translate(-962.043 -607.344)" fill="#fff" fill-rule="evenodd"/>
        <path id="Trazado_7456" data-name="Trazado 7456" d="M962.965,605.325a.147.147,0,0,1-.1.194.171.171,0,0,1-.188-.132.147.147,0,0,1,.1-.194.171.171,0,0,1,.188.132" transform="translate(-961.289 -604.713)" fill="#fff"/>
      </g>
      <path id="Trazado_7457" data-name="Trazado 7457" d="M859.956,442.532c-.143-.171-.3-.337-.438-.514s-.211-.357-.348-.525a2.93,2.93,0,0,0-1.193-.82,3.155,3.155,0,0,0-2.577.168c-1.783.879-2.389,2.906-2.4,4.759a9.957,9.957,0,0,0,1.3,5.421,5.011,5.011,0,0,0,4.189,2.448c1.715-.059,3.594-1.533,3.142-3.383a.233.233,0,0,0-.446,0,3.015,3.015,0,0,1-2.5,2.218,3.629,3.629,0,0,1-3.173-1.746,7.881,7.881,0,0,1-1.07-4.228c-.028-1.362.126-2.906,1.241-3.838a2.03,2.03,0,0,1,1.642-.5,3.606,3.606,0,0,1,1.008.491,3.029,3.029,0,0,1,.458.258,5.833,5.833,0,0,1,.469.483c.441.469,1.092-.216.7-.7Z" transform="translate(-829.358 -403.716)" fill="#010d3d"/>
      <path id="Trazado_7458" data-name="Trazado 7458" d="M971.886,381.167a18.076,18.076,0,0,1-.421-2.356,20.815,20.815,0,0,0-.556-2.445c-.2-.806-.432-1.547-.649-2.322a10.106,10.106,0,0,0-.351-1.117c-.174-.421-.449-.766-.6-1.193a.465.465,0,0,0-.9.247,25.193,25.193,0,0,0,1.381,5.09,20.281,20.281,0,0,1,.75,2.479,24.694,24.694,0,0,0,.654,2.634c.18.545,1.143.494,1.064-.143a7.324,7.324,0,0,0-.272-1.317,11.317,11.317,0,0,0-.483-1.244c-.354-.811-.677-1.648-.96-2.487a23.612,23.612,0,0,1-1.224-5.138l-.912.124c.081.424.02.837.081,1.263a9.3,9.3,0,0,0,.27,1.14c.225.795.438,1.595.693,2.381a21.4,21.4,0,0,0,.826,2.3c.16.348.357.671.511,1.019.182.413.345.823.5,1.247a.307.307,0,0,0,.592-.163h0Z" transform="translate(-912.367 -354.038)" fill="#010d3d"/>
      <path id="Trazado_7459" data-name="Trazado 7459" d="M952.871,428.9c.915.868,1.752,1.8,2.647,2.684s1.7,1.727,2.558,2.575,1.642,1.614,2.465,2.417a15.1,15.1,0,0,1,2.19,2.431l.295-1.126c-1.783.969-3.818.957-5.792,1.039a.354.354,0,0,0-.177.654c2.016,1.418,4.781.856,6.8-.272a.827.827,0,0,0,.295-1.126c-.373-.486-.716-.983-1.126-1.443-.359-.4-.738-.789-1.123-1.168-.851-.828-1.755-1.614-2.664-2.375-.966-.809-1.923-1.631-2.875-2.457s-1.951-1.595-2.886-2.445c-.407-.368-1.008.225-.606.606h0Z" transform="translate(-901.095 -394.866)" fill="#010d3d"/>
      <path id="Trazado_7460" data-name="Trazado 7460" d="M930.068,485.9a5.752,5.752,0,0,0,2.319,1.814,11.645,11.645,0,0,0,2.83.941,12.518,12.518,0,0,0,6.019-.466,16.591,16.591,0,0,0,1.656-.626c.573-.25,1.286-.474,1.516-1.1a.686.686,0,0,0-.477-.839c-.64-.132-1.249.365-1.814.62a12.876,12.876,0,0,1-1.561.584,13.3,13.3,0,0,1-3.4.6,11.143,11.143,0,0,1-3.355-.292,5.359,5.359,0,0,1-3-1.662c-.323-.432-1.059-.028-.738.432h0Z" transform="translate(-884.732 -435.946)" fill="#010d3d"/>
      <path id="Trazado_7461" data-name="Trazado 7461" d="M934.161,489.9a9.421,9.421,0,0,0,4.262,3.905,3.782,3.782,0,0,0,3-.1,4.845,4.845,0,0,0,1.19-.794c.354-.317.865-.767.865-1.283l-.076.284a2.907,2.907,0,0,1,.317-.421.5.5,0,0,0-.6-.778,5.9,5.9,0,0,0-.621.39.475.475,0,0,0,.48.82,6.2,6.2,0,0,0,.643-.354l-.6-.778a2.43,2.43,0,0,1-.385.357l.284-.076c-.474.02-.8.407-1.148.682a6.144,6.144,0,0,1-.935.632,2.477,2.477,0,0,1-2.145-.008,8.061,8.061,0,0,1-3.807-2.895c-.3-.444-1.014-.036-.722.421h0Z" transform="translate(-887.686 -438.827)" fill="#010d3d"/>
      <path id="Trazado_7462" data-name="Trazado 7462" d="M917.49,430.137c.084.357.152.716.2,1.075l-.031-.225c.037.275.065.55.081.825a.884.884,0,0,0,.247.6.84.84,0,0,0,1.19,0,.826.826,0,0,0,.247-.6,12.686,12.686,0,0,0-.312-2.128.852.852,0,0,0-1.036-.59.861.861,0,0,0-.59,1.036h0Z" transform="translate(-875.723 -395.509)" fill="#010d3d"/>
      <path id="Trazado_7463" data-name="Trazado 7463" d="M965.411,413.021c.053.533.124,1.064.216,1.592q.059.345.135.691a2.29,2.29,0,0,0,.255.851.842.842,0,0,0,.82.393.836.836,0,0,0,.685-.59,1.271,1.271,0,0,0,.006-.494l-.025-.1c-.022-.093-.045-.185-.065-.278-.039-.177-.079-.357-.115-.536-.07-.357-.129-.719-.18-1.078l.031.225c-.031-.225-.056-.449-.079-.674a.915.915,0,0,0-.247-.6.864.864,0,0,0-.6-.247.852.852,0,0,0-.842.842Z" transform="translate(-910.207 -383.365)" fill="#010d3d"/>
      <path id="Trazado_7464" data-name="Trazado 7464" d="M954,536.776c.73,1.379,1.488,2.735,2.266,4.088.348.606.663,1.429,1.32,1.758a3.372,3.372,0,0,0,1.168.25c.4.045.783.076,1.174.1.761.053,1.525.079,2.285.076s1.758.115,2.2-.671a6.609,6.609,0,0,0,.4-1.028c.138-.382.275-.764.41-1.146a2.462,2.462,0,0,0,.1-2.277c-.449-.7-1.016-1.353-1.519-2.019-.548-.724-1.075-1.471-1.651-2.173-.452-.556-1.362.163-.988.761.7,1.131,1.491,2.218,2.235,3.324.177.261.359.519.528.783a2.747,2.747,0,0,1,.169.309c-.079-.171.008-.118-.048,0-.037.076-.056.163-.087.241-.224.59-.466,1.174-.713,1.755-.062.143-.121.292-.185.435-.011.022-.093.191-.093.188-.076-.1.469-.093.261-.185a1.62,1.62,0,0,0-.463.014c-.185,0-.371.006-.556.006-.671,0-1.342-.017-2.01-.056-.323-.02-.646-.045-.969-.073a2.592,2.592,0,0,1-.853-.1,1.97,1.97,0,0,1-.261-.407l-.48-.834c-.755-1.311-1.525-2.608-2.325-3.894a.763.763,0,0,0-1.317.769h0Z" transform="translate(-901.927 -470.653)" fill="#010d3d"/>
      <path id="Trazado_7465" data-name="Trazado 7465" d="M848.9,555.947c-.971.269-1.948.5-2.909.8s-1.867.578-2.8.882a2.224,2.224,0,0,0-1.092.663,4.042,4.042,0,0,0-.6,1.322l-.96,2.83c-.3.887-.6,1.78-.932,2.656-.171.446-.23.924-.393,1.367a9.1,9.1,0,0,1-.542,1.117,16.521,16.521,0,0,1-2.614,3.591,18.4,18.4,0,0,1-7.406,4.787,17.57,17.57,0,0,1-9.175.57,17.778,17.778,0,0,1-4.9-1.766,18.864,18.864,0,0,1-4.225-3.192.813.813,0,0,0-1.263.163c-1.117,1.948-2.212,3.919-3.215,5.932a2.3,2.3,0,0,0-.4,1.67,3.344,3.344,0,0,0,.828,1.2c.578.646,1.2,1.266,1.836,1.859a22.84,22.84,0,0,0,9.04,4.981,26.753,26.753,0,0,0,10.958,1,12.829,12.829,0,0,0,3.083-.758,19.68,19.68,0,0,0,2.881-1.463,39.909,39.909,0,0,0,4.669-3.313,34.72,34.72,0,0,0,4.52-4.428,25.21,25.21,0,0,0,1.892-2.662c.292-.449.564-.912.839-1.373a6.972,6.972,0,0,0,.6-1.46.259.259,0,0,0-.43-.25,10.629,10.629,0,0,0-.887,1.025c-.255.373-.519.761-.8,1.132-.528.7-1.106,1.336-1.671,2a50.642,50.642,0,0,1-3.678,3.964,35.465,35.465,0,0,1-4.172,3.378,17.644,17.644,0,0,1-5.174,2.709,18.256,18.256,0,0,1-5.753.477,27.109,27.109,0,0,1-4.913-.665,23.988,23.988,0,0,1-4.675-1.578,19.828,19.828,0,0,1-4.062-2.547,16.654,16.654,0,0,1-2.033-1.87,11.394,11.394,0,0,1-.778-1.014c-.121-.171-.236-.348-.351-.522a2.058,2.058,0,0,1-.177-.264c.031.065-.05.191.048-.039.458-1.067,1.056-2.1,1.592-3.13s1.162-2.134,1.777-3.181l-1.263.163a19.608,19.608,0,0,0,8.5,4.8,19.151,19.151,0,0,0,9.675.211,19.7,19.7,0,0,0,11.323-7.8,20.39,20.39,0,0,0,1.216-1.962,11.6,11.6,0,0,1,.62-1.171,6.152,6.152,0,0,0,.708-1.37c.4-1.044.755-2.109,1.112-3.17l.517-1.544.258-.772a2.135,2.135,0,0,1,.2-.542c.073-.1.1-.09.233-.14.289-.107.59-.188.882-.281l1.569-.5c1.095-.351,2.156-.764,3.237-1.151a.707.707,0,0,0-.376-1.362h0Z" transform="translate(-795.144 -486.752)" fill="#010d3d"/>
      <path id="Trazado_7466" data-name="Trazado 7466" d="M945.882,593.278c.4,1.572.691,3.173.952,4.773a20.449,20.449,0,0,1,.208,2.412c.036.814.1,1.606.14,2.409.081,1.617.253,3.223.295,4.846.02.781.006,1.567.084,2.344a3.629,3.629,0,0,0,.081.6c.053.191.16.354.222.533.138.385.267.769.441,1.14.609,1.3,1.567,2.389,2.117,3.72a14.365,14.365,0,0,1,.966,4.192,52.581,52.581,0,0,1-.191,9.352c-.157,1.786-.385,3.568-.682,5.337q-.232,1.373-.486,2.746c-.168.915-.357,1.861-.441,2.8a.635.635,0,0,0,.553.629.649.649,0,0,0,.7-.458,16.177,16.177,0,0,0,.623-2.364c.16-.794.314-1.648.435-2.479.239-1.634.441-3.276.59-4.922a65.577,65.577,0,0,0,.284-9.593,19.45,19.45,0,0,0-.7-4.4,17.691,17.691,0,0,0-1.918-3.964,6.3,6.3,0,0,1-.873-1.923,2.151,2.151,0,0,1-.008-.5,5.626,5.626,0,0,0-.048-.573c-.034-.387-.042-.775-.05-1.162-.028-1.634-.1-3.265-.253-4.894a26.066,26.066,0,0,0-.455-2.8c-.183-.879-.48-1.721-.671-2.6-.393-1.8-.907-3.568-1.457-5.329a.238.238,0,0,0-.458.126h0Z" transform="translate(-896.161 -513.409)" fill="#010d3d"/>
      <path id="Trazado_7467" data-name="Trazado 7467" d="M991.655,545.229a28.267,28.267,0,0,1,5.11.168,22.119,22.119,0,0,1,2.353.314,4.191,4.191,0,0,1,1.918,1.008c.576.5,1.058.98,1.634,1.421a17.074,17.074,0,0,0,1.929,1.258c1.373.775,2.81,1.443,4.225,2.137,2.984,1.468,5.91,3.122,9.2,3.807a32.918,32.918,0,0,0,9.509.365c3.833-.329,7.637-1.1,11.418-1.786a.772.772,0,0,0,.533-.938.784.784,0,0,0-.938-.533c-6.48.991-12.923,3.063-19.535,1.946a20.372,20.372,0,0,1-4.568-1.322c-1.541-.651-3.038-1.415-4.543-2.145-2.732-1.325-5.781-2.5-7.892-4.759a5.644,5.644,0,0,0-1.985-1.466,14.8,14.8,0,0,0-2.577-.747,21.465,21.465,0,0,0-5.784-.286.8.8,0,0,0-.781.781.788.788,0,0,0,.781.78h0Z" transform="translate(-928.528 -477.89)" fill="#010d3d"/>
      <path id="Trazado_7468" data-name="Trazado 7468" d="M1044.911,578.981a27.31,27.31,0,0,0,1.713,5.028c.7,1.628,1.51,3.091,2.117,4.7a15.481,15.481,0,0,1,1.154,4.924c.059,1.847-.542,3.619-.657,5.452a10.488,10.488,0,0,0,1.289,5.208c.8,1.648,1.64,3.24,2.448,4.866a77.956,77.956,0,0,1,4.363,10.1,40.157,40.157,0,0,1,1.5,5.916,28.518,28.518,0,0,1,.345,2.928,20.277,20.277,0,0,0,.208,3.229.7.7,0,0,0,1.342,0,7.787,7.787,0,0,0,.16-2.83c-.051-.946-.152-1.909-.286-2.858a37.227,37.227,0,0,0-1.168-5.309,67.705,67.705,0,0,0-4.18-10.343c-.82-1.687-1.67-3.358-2.518-5.031a13.382,13.382,0,0,1-1.811-4.762c-.152-1.828.469-3.608.615-5.419a11.775,11.775,0,0,0-.8-5.239,44.025,44.025,0,0,0-2.639-5.368,23.247,23.247,0,0,1-2.44-5.4.392.392,0,0,0-.755.208h0Z" transform="translate(-967.385 -502.986)" fill="#010d3d"/>
      <path id="Trazado_7469" data-name="Trazado 7469" d="M959.461,763.145a28.639,28.639,0,0,0,4.1,1.084c1.451.323,2.906.632,4.371.9s2.931.474,4.408.606a16.113,16.113,0,0,0,2.176.107,7.8,7.8,0,0,0,1.053-.129,11.023,11.023,0,0,1,1.126-.247c.205-.017.41-.036.615-.056a.967.967,0,0,0,.5-.1,1.207,1.207,0,0,0,.253-.416c.084-.154.171-.306.267-.455a4.745,4.745,0,0,1,1.418-1.609l-.772-.314a22.2,22.2,0,0,0,1.109,2.128,2,2,0,0,0,.719.865,2.981,2.981,0,0,0,1.269.272,40.182,40.182,0,0,0,4.967.135c1.656-.053,3.366-.194,5.042-.368.828-.087,1.654-.18,2.482-.275a15.4,15.4,0,0,0,2.266-.326,2.605,2.605,0,0,0,1.769-1.348,1.616,1.616,0,0,0-.427-2.092c-.359-.261-.963.18-.786.6a.945.945,0,0,1-.149,1.028,2.207,2.207,0,0,1-1.393.559c-1.381.208-2.782.334-4.175.472a51.564,51.564,0,0,1-8.633.255c-.39-.028-.781-.062-1.171-.107a.753.753,0,0,1-.629-.348c-.491-.632-.851-1.367-1.384-1.965a.531.531,0,0,0-.825.107c-.334.449-.733.842-1.05,1.308a7.009,7.009,0,0,0-.747,1.5l.357-.272c-.272.023-.545.028-.817.031a3.881,3.881,0,0,1-.935-.138,12.379,12.379,0,0,0-1.788-.242c-1.157-.076-2.311-.16-3.459-.323-2.333-.326-4.641-.811-6.94-1.32a28.707,28.707,0,0,1-3.779-.974.768.768,0,0,0-.938.533.78.78,0,0,0,.533.938h0Z" transform="translate(-905.526 -634.556)" fill="#010d3d"/>
      <path id="Trazado_7470" data-name="Trazado 7470" d="M958.414,549.793a59.5,59.5,0,0,0,4.13,10.57,24.17,24.17,0,0,0,1.353,2.575,23.331,23.331,0,0,0,1.6,2.212c1.235,1.553,2.49,3.088,3.737,4.632a28.147,28.147,0,0,0,4.166,4.689.427.427,0,0,0,.719-.3c.056-1.918-.017-3.86-.126-5.775s-.267-3.844-.494-5.756a113.006,113.006,0,0,0-1.875-11.166,14.432,14.432,0,0,0-2.038-5.166c-.3-.43-1.011-.025-.71.416a13.257,13.257,0,0,1,1.814,4.509c.41,1.755.71,3.543,1.022,5.318a111.02,111.02,0,0,1,1.451,11.225q.109,1.579.149,3.161c.028,1.056-.008,2.153-.031,3.234l.635-.362a24.4,24.4,0,0,1-3.681-4.054l-3.684-4.484c-.578-.7-1.159-1.409-1.679-2.159a19.619,19.619,0,0,1-1.443-2.5c-.817-1.648-1.583-3.327-2.319-5.012a40.181,40.181,0,0,1-2.122-5.963.3.3,0,0,0-.576.157Z" transform="translate(-905.17 -479.708)" fill="#010d3d"/>
      <path id="Trazado_7471" data-name="Trazado 7471" d="M979.863,565.154a6.517,6.517,0,0,1-.337,3.723,2.9,2.9,0,0,1-1,1.1,6.847,6.847,0,0,1-1.421.432.2.2,0,0,0-.09.334,1.484,1.484,0,0,0,1.665-.039,3.26,3.26,0,0,0,1.331-1.314c.71-1.308.48-2.895.286-4.3-.034-.247-.463-.191-.441.059h0Z" transform="translate(-918.516 -493.233)" fill="#010d3d"/>
      <path id="Trazado_7472" data-name="Trazado 7472" d="M987.755,568.177a5.427,5.427,0,0,0,2.044,2.577,2.739,2.739,0,0,0,1.463.326,1.688,1.688,0,0,0,.707-.213.962.962,0,0,0,.455-.573.181.181,0,0,0-.219-.219,4.887,4.887,0,0,0-.547.2,2.9,2.9,0,0,1-.576.132,1.932,1.932,0,0,1-1.131-.264,5.123,5.123,0,0,1-1.735-2.235c-.16-.306-.615-.036-.463.27h0Z" transform="translate(-926.256 -495.274)" fill="#010d3d"/>
      <path id="Trazado_7473" data-name="Trazado 7473" d="M1013.5,661.532l.32,1.544a.864.864,0,0,0,.385.5.852.852,0,0,0,.646.084.862.862,0,0,0,.5-.385.92.92,0,0,0,.084-.646l-.314-1.547a.842.842,0,0,0-1.036-.587.86.86,0,0,0-.5.387.928.928,0,0,0-.084.649h0Z" transform="translate(-944.78 -561.945)" fill="#010d3d"/>
      <path id="Trazado_7474" data-name="Trazado 7474" d="M1019.235,685.722l.511,2.128a.843.843,0,1,0,1.625-.446l-.511-2.128a.843.843,0,0,0-1.626.446Z" transform="translate(-948.904 -579.341)" fill="#010d3d"/>
      <path id="Trazado_7475" data-name="Trazado 7475" d="M1023.191,714.34l.545,2.111a.853.853,0,0,0,1.036.59.868.868,0,0,0,.589-1.036l-.545-2.111a.853.853,0,0,0-1.036-.59.868.868,0,0,0-.59,1.036Z" transform="translate(-951.748 -599.923)" fill="#010d3d"/>
      <path id="Trazado_7476" data-name="Trazado 7476" d="M1026.586,742.007a4.506,4.506,0,0,1,.16.719l-.031-.225c.014.109.025.216.034.326a1.782,1.782,0,0,0,.051.522l.084.2a.633.633,0,0,0,.213.233.789.789,0,0,0,.505.18,1,1,0,0,0,.421-.112.924.924,0,0,0,.382-.5,1.328,1.328,0,0,0,.031-.547c-.014-.185-.039-.368-.065-.55a4.472,4.472,0,0,0-.157-.691.88.88,0,0,0-.387-.5.838.838,0,0,0-.649-.084.86.86,0,0,0-.5.387.869.869,0,0,0-.084.648h0Z" transform="translate(-954.191 -619.828)" fill="#010d3d"/>
      <path id="Trazado_7477" data-name="Trazado 7477" d="M1060.351,606.927c7.218,1.578,14.914,3.276,22.25,1.429a21.533,21.533,0,0,0,5.483-2.2.656.656,0,0,0-.663-1.131c-6.185,3.622-13.676,3.54-20.535,2.409-2.125-.351-4.234-.783-6.345-1.216-.46-.1-.66.609-.2.71h0Z" transform="translate(-978.301 -522.001)" fill="#010d3d"/>
      <path id="Trazado_7478" data-name="Trazado 7478" d="M894.677,416.887c.9-.345,1.814-.64,2.712-.983s1.842-.71,2.763-1.067,1.8-.7,2.7-1.042,1.875-.6,2.8-.943l-1.067-.606a17.8,17.8,0,0,1,1.072,5.775,6.929,6.929,0,0,1-1.387,4.748,5.712,5.712,0,0,1-1.864,1.423,8.18,8.18,0,0,1-.929.309,6.419,6.419,0,0,1-1.053.312,3.438,3.438,0,0,1-2.033-.295,3.609,3.609,0,0,1-1.561-1.774,16.339,16.339,0,0,1-.845-2.838c-.295-1.162-.542-2.333-.823-3.5-.1-.416-.817-.34-.766.1a20.847,20.847,0,0,0,1.932,7.039,4.531,4.531,0,0,0,2.19,2.283,2.91,2.91,0,0,0,1.407.213,1.568,1.568,0,0,0,1.21-.722.263.263,0,0,0-.292-.382,2.478,2.478,0,0,1-2.3-.2,5.211,5.211,0,0,1-1.553-2.167,19.93,19.93,0,0,1-1.808-6.07l-.766.1c.278,1.117.592,2.224.859,3.344a23.147,23.147,0,0,0,.783,2.875,5.125,5.125,0,0,0,1.471,2.181,4.264,4.264,0,0,0,1.058.646,6,6,0,0,0,1.165.427,5.3,5.3,0,0,0,2.684-.02,7.127,7.127,0,0,0,2.51-1.471,7.82,7.82,0,0,0,2.454-5.5,17.73,17.73,0,0,0-1.143-7.316.88.88,0,0,0-1.067-.606c-.927.357-1.814.809-2.737,1.171s-1.839.722-2.76,1.087-1.791.722-2.684,1.095c-.943.4-1.859.845-2.8,1.252-.62.267-.174,1.348.463,1.1h0Z" transform="translate(-858.784 -382.61)" fill="#343d64"/>
      <path id="Trazado_7479" data-name="Trazado 7479" d="M939.442,415.531a3.885,3.885,0,0,1,.7-1.522,6.5,6.5,0,0,1,.629-.564,2.326,2.326,0,0,1,.623-.458c.056-.031.112-.059.171-.087-.112.053.1-.036.1-.039a3.288,3.288,0,0,1,.371-.1q.114-.025.227-.042c-.112.017.014,0,.062,0,.14-.008.281,0,.421,0s-.031-.011.056,0c.062.011.124.022.185.037s.146.036.219.059c.011,0,.23.093.09.028a2.087,2.087,0,0,1,.328.182.847.847,0,0,0,.314.168c.073.017.609-.008.331.011.337-.025.738-.3.691-.691a.962.962,0,0,0-.466-.831,2.71,2.71,0,0,0-.4-.216,3.7,3.7,0,0,0-1.2-.309,3.841,3.841,0,0,0-2.134.455,3.313,3.313,0,0,0-1.519,1.609,8.97,8.97,0,0,0-.7,2.066c-.1.576.741.834.893.247Z" transform="translate(-890.884 -382.618)" fill="#343d64"/>
      <path id="Trazado_7480" data-name="Trazado 7480" d="M956.441,392.815c0,.6.048,1.21.039,1.814a15.512,15.512,0,0,0,.036,1.805,24.713,24.713,0,0,0,.679,3.667,9.082,9.082,0,0,0,1.261,3.2,4.312,4.312,0,0,0,2.356,1.612,5.481,5.481,0,0,0,5.256-1.494,8.816,8.816,0,0,0,2.26-5.739,15.928,15.928,0,0,0-.337-4.029c-.135-.674-.3-1.339-.491-2a4.512,4.512,0,0,0-.416-.991,6.388,6.388,0,0,1-.359-.926.731.731,0,0,0-.693-.528,28.282,28.282,0,0,0-5.25.806,10.718,10.718,0,0,0-1.224.528,5.732,5.732,0,0,0-1.109.73,9.843,9.843,0,0,1-1.053.609,2.7,2.7,0,0,0-.971.969c-.25.415.233.778.615.615a4.658,4.658,0,0,0,1.042-.629,2.685,2.685,0,0,1,.966-.564c.769-.188,1.544-.385,2.308-.6a27.2,27.2,0,0,1,4.677-1.019l-.693-.528c.079.253.16.505.23.761s.048.531.107.8c.126.559.32,1.109.452,1.668a15.978,15.978,0,0,1,.452,3.091,8.289,8.289,0,0,1-1.255,5.146,3.829,3.829,0,0,1-3.686,1.713c.14.02-.053-.011-.087-.02-.076-.017-.149-.031-.224-.051s-.177-.048-.264-.079c0,0-.275-.107-.129-.042a2.308,2.308,0,0,1-.859-.592,5.743,5.743,0,0,1-1.072-2.49c-.32-1.171-.55-2.356-.775-3.549-.115-.615-.261-1.216-.379-1.828a13.5,13.5,0,0,1-.174-1.831.617.617,0,0,0-1.233,0h0Z" transform="translate(-903.696 -366.843)" fill="#343d64"/>
      <path id="Trazado_7481" data-name="Trazado 7481" d="M876.37,429.827q-3.508,1.188-6.893,2.706a.889.889,0,0,0-.317,1.207.9.9,0,0,0,1.207.317q3.171-1.419,6.471-2.53a.905.905,0,0,0,.618-1.087.893.893,0,0,0-1.087-.618h0Z" transform="translate(-840.901 -396.03)" fill="#343d64"/>
      <path id="Trazado_7482" data-name="Trazado 7482" d="M795.417,604.07a12.728,12.728,0,0,0-2.134-1.628,4.481,4.481,0,0,0-2.681-.693,2.211,2.211,0,0,0-2.106,1.659c.006-.042-.031.188-.034.23a1.777,1.777,0,0,0,0,.244,1.735,1.735,0,0,0,.23.713,2.1,2.1,0,0,0,.915.786,11.252,11.252,0,0,0,1.544.432,3.421,3.421,0,0,1,.668.286,2.272,2.272,0,0,0,.6.3l-.272-.208q0-.114,0-.017v.1q0,.135.017.27a4.377,4.377,0,0,0,.084.539,3.641,3.641,0,0,0,.365.988c.272.491.828.974,1.356.533a.212.212,0,0,0-.093-.351c-.882-.326-.809-1.522-.876-2.263a.7.7,0,0,0-.284-.581,3.753,3.753,0,0,0-.542-.317,6.973,6.973,0,0,0-1.367-.472,1.733,1.733,0,0,1-.991-.474c-.1-.138-.048-.18-.067-.286-.017-.087.011.025-.036.059a.62.62,0,0,0,.087-.084c.079-.084.143-.174.227-.255a2.725,2.725,0,0,1,2.123-.413,3.876,3.876,0,0,1,1.356.559,10.918,10.918,0,0,1,1.348.912c.4.306.96-.225.564-.564h0Z" transform="translate(-782.938 -519.695)" fill="#010d3d"/>
      <path id="Trazado_7483" data-name="Trazado 7483" d="M783.412,594.247c-.458-.483-.946-.932-1.44-1.378s-.929-.938-1.429-1.359a13.471,13.471,0,0,0-3.546-2,15.734,15.734,0,0,0-3.785-1.058,3.787,3.787,0,0,0-1.948.025,1.4,1.4,0,0,0-1.016,1.289c.011.764.7,1.188,1.233,1.609.713.562,1.429,1.117,2.114,1.713l.427-.733a6.305,6.305,0,0,0-4.916-.1.609.609,0,0,0-.281.693,4.52,4.52,0,0,0,1.7,2.047,5.815,5.815,0,0,0,1.3.6c.517.171,1.008.424,1.519.62l.182-1.339a6.394,6.394,0,0,0-3.077.522c-.469.2-1.039.466-1.2,1a1.217,1.217,0,0,0,.519,1.269,5.647,5.647,0,0,0,2.252,1.261,22.487,22.487,0,0,0,2.577.691v-1.426a1.452,1.452,0,0,0-1.131,1.39,1.8,1.8,0,0,0,.887,1.609,4.528,4.528,0,0,0,1.929.553c.387.05.772.107,1.157.163a1.972,1.972,0,0,0,1.213-.208.27.27,0,0,0,.053-.421,1.843,1.843,0,0,0-.7-.438,5.465,5.465,0,0,0-.91-.171,14.774,14.774,0,0,1-1.491-.261c-.309-.081-.668-.2-.719-.505a.784.784,0,0,1,.065-.309c-.034.112.079-.076-.008.02-.065.039-.056.037.017-.008-.065.034-.056.039.031.014a.736.736,0,0,0,.531-.811.745.745,0,0,0-.727-.64,9.463,9.463,0,0,1-2.549-.25,5.071,5.071,0,0,1-1.078-.5c-.208-.132-.8-.5-.781-.766l-.081.3c.065-.149.491-.289.648-.354a5.15,5.15,0,0,1,.811-.258,5.3,5.3,0,0,1,1.76-.1.687.687,0,0,0,.682-.682.694.694,0,0,0-.682-.682,7.974,7.974,0,0,1-1.216-.093,4.028,4.028,0,0,1-1.129-.486,2.042,2.042,0,0,1-1.151-1.508l-.449.592c.354-.07.694-.185,1.05-.247a9.468,9.468,0,0,1,1.033-.107,7.131,7.131,0,0,1,2.128.174.44.44,0,0,0,.337-.8c-.556-.41-1.089-.845-1.626-1.28-.247-.2-.491-.4-.738-.6-.174-.143-.491-.348-.522-.6-.006-.039-.065.042,0-.011a.431.431,0,0,1,.185-.042c-.02,0,.16.011.2.011.059,0,.121.008.18.014.163.017-.174-.031.1.011.533.084,1.067.174,1.6.278a20.7,20.7,0,0,1,3.276.966c1.064.4,1.982.915,2.965,1.4a11.136,11.136,0,0,1,1.7.907,13.823,13.823,0,0,1,1.485,1.272.338.338,0,0,0,.477-.477h0Z" transform="translate(-768.795 -510.063)" fill="#010d3d"/>
      <path id="Trazado_7484" data-name="Trazado 7484" d="M906.291,373.2c.261,1.4.489,2.8.778,4.186s.444,2.732.848,4.057c.2.651.343,1.32.578,1.96.253.685.55,1.353.87,2.01a20.027,20.027,0,0,0,2.232,3.557c.921,1.176,2.027,2.179,3.046,3.268A12.147,12.147,0,0,1,917,395.781a17.108,17.108,0,0,1,1.123,8.322,16.21,16.21,0,0,1-8.473,13.089,13.3,13.3,0,0,1-3.686,1.221,23.881,23.881,0,0,1-4.759.236,20.835,20.835,0,0,1-8.507-1.69,15.735,15.735,0,0,1-6-5.27,33.792,33.792,0,0,1-2.193-3.846c-.365-.7-.752-1.39-1.073-2.114s-.547-1.446-.9-2.123a14.376,14.376,0,0,1-.882-2.159.351.351,0,0,0-.677.188,22.712,22.712,0,0,1,.564,2.389,15.7,15.7,0,0,0,.708,2.344c.258.761.5,1.612.845,2.378a22.58,22.58,0,0,0,1.1,2.117,19.644,19.644,0,0,0,5.764,6.443,18.413,18.413,0,0,0,8.715,2.869,36.8,36.8,0,0,0,4.753.149,17.439,17.439,0,0,0,4.725-.719,17.142,17.142,0,0,0,11.135-12.362,20.611,20.611,0,0,0,.188-9.192,15.363,15.363,0,0,0-1.555-4.225,17.271,17.271,0,0,0-2.9-3.639,22.686,22.686,0,0,1-2.844-3.293,23.06,23.06,0,0,1-2-3.709c-.275-.632-.612-1.249-.845-1.9-.247-.685-.511-1.364-.755-2.049-.486-1.362-.828-2.751-1.2-4.147-.183-.679-.314-1.376-.458-2.066-.084-.4-.679-.227-.606.168h0Z" transform="translate(-849.464 -355.044)" fill="#010d3d"/>
    </g>
    <g id="Grupo_5281" data-name="Grupo 5281" transform="translate(574.669 294.59)">
      <g id="Grupo_5279" data-name="Grupo 5279" transform="translate(0)">
        <path id="Trazado_7485" data-name="Trazado 7485" d="M823.443,707.8a14.719,14.719,0,0,1-5.514-1.932,17.149,17.149,0,0,0-2.257-1.516c-.121-.056-.244-.107-.368-.154.8-.328,1.617-.632,2.445-.9a.978.978,0,0,0,.427-1.614c-1.494-1.449-3.664-1.235-5.539-.845a8.882,8.882,0,0,0-3.052,1.148,3.746,3.746,0,0,1-1.106.562c-.025-.006-.3.034-.233.034-.059,0-.115.006-.171,0,.039-.008-.1-.051-.039,0a.477.477,0,0,0-.064-.039c-.039-.039-.045-.042-.014,0a.871.871,0,0,0-1.157-.3.816.816,0,0,0-.306.32,1.049,1.049,0,0,0-.323.028,9.6,9.6,0,0,0-4.276,2.341,1.653,1.653,0,0,0-.559,1.258,1.49,1.49,0,0,0,.884,1.244,4.128,4.128,0,0,0,.533.211c.006,0,.171.067.188.07.042.02.084.039.126.062a3.472,3.472,0,0,1,.427.264c.008.008.02.017.034.028.076.067.152.132.225.2a3.126,3.126,0,0,1,.865,1.46,1.885,1.885,0,0,1,.056.817,7.87,7.87,0,0,0-.093,1.283,2.911,2.911,0,0,0,1.468,2.165q1.053.754,2.156,1.426c.82.5,1.948,1.28,2.836.449a1.5,1.5,0,0,0,.486-1.146,20.67,20.67,0,0,1,2.785.314c.845.168,1.808.438,2.37-.444a2.74,2.74,0,0,0,.312-.983c.025-.124.051-.247.073-.371.837-.115,1.671-.25,2.493-.435a2.056,2.056,0,0,0,1.432-.764,1.872,1.872,0,0,0,.123-1.569,3.377,3.377,0,0,0-.272-.64,5.384,5.384,0,0,0,2.8-.46.87.87,0,0,0-.2-1.575Zm-19.965.225c-.031-.025-.067-.059,0,0Z" transform="translate(-737.697 -586.568)" fill="#fff"/>
        <path id="Trazado_7486" data-name="Trazado 7486" d="M802.088,700.34c2.081,1.32,4.433.034,6.511-.556a4.643,4.643,0,0,1,3.422.222,6.655,6.655,0,0,1,1.452.851,1.248,1.248,0,0,1,.2.219c.132.188,0-.014.062.008-.006,0,.031-.008-.006-.02a1.261,1.261,0,0,0-.183.048c-.154.034-.312.059-.463.093a15.252,15.252,0,0,0-3.956,1.424.641.641,0,0,0,.152,1.16c1.828.6,3.644,1.216,5.441,1.9a25.653,25.653,0,0,1,2.468.98c.59.3,1.185.758,1.145,1.466l.609-.8a7.446,7.446,0,0,1-4.355.362,16.256,16.256,0,0,1-2.322-.668c-.371-.135-.738-.278-1.1-.424a5.394,5.394,0,0,0-1.348-.449.916.916,0,0,0-.91.8.937.937,0,0,0,.663,1.016,2.6,2.6,0,0,0,.848.188l-.359-.1a22.407,22.407,0,0,0,3.689,1.157,3.841,3.841,0,0,1,2.513,1.721l.253-.969a5.715,5.715,0,0,1-3.838.789,10.8,10.8,0,0,1-2.184-.5c-.4-.129-.8-.27-1.193-.418a5.59,5.59,0,0,0-1.311-.41.9.9,0,0,0-.91.8.914.914,0,0,0,.663,1.016,3.135,3.135,0,0,1,.825.157c.267.121.522.3.775.444q.716.409,1.426.823l.713.413a1.82,1.82,0,0,1,.284.174c.154.129.039.1.087.02-.011.022.037-.264.056-.208a1.251,1.251,0,0,1-.157.036,3.294,3.294,0,0,1-.643-.028,19.934,19.934,0,0,1-6-1.541.79.79,0,0,0-1,.2.775.775,0,0,0,.062,1.022l3.091,2.774.435-1.053a7.363,7.363,0,0,1-3.147-.671,9.087,9.087,0,0,1-2.712-1.8,5.725,5.725,0,0,1-1-1.235,3.308,3.308,0,0,1-.357-1.482,4.528,4.528,0,0,0-.486-1.915,4.881,4.881,0,0,0-.977-1.193c-.4-.365-.834-.679-1.252-1.019a6.6,6.6,0,0,0-.747-.6,7.62,7.62,0,0,1-.7-.418c-.609-.444-1.634.306-1.334,1.025a6.162,6.162,0,0,0,.357.752,2.879,2.879,0,0,0,.809.859c.393.3.8.584,1.2.868.138.1-.129-.107,0,0,.036.031.073.059.109.087q.143.118.278.244c.09.084.174.168.255.261.031.034.059.067.087.1.079.09-.079-.138.02.034.059.1.121.208.182.312.023.036.073.18.006,0,.022.059.042.121.062.182a8.121,8.121,0,0,1,.2,1.067,5.515,5.515,0,0,0,1.979,3.215,10.092,10.092,0,0,0,3.181,1.915,12.219,12.219,0,0,0,3.981.646.623.623,0,0,0,.435-1.053l-2.861-3-.943,1.221a16.092,16.092,0,0,0,3.8,1.3,18.229,18.229,0,0,0,2.1.275,6.794,6.794,0,0,0,1.8,0,1.311,1.311,0,0,0,1.109-.985c.135-.724-.427-1.188-.988-1.508-.6-.34-1.2-.674-1.794-1.008-.32-.18-.64-.357-.96-.533a2.665,2.665,0,0,1-.741-.71l-1.123,1.454a5.426,5.426,0,0,0,1.342.517c.435.146.845.272,1.272.387a12.354,12.354,0,0,0,2.715.444,6.8,6.8,0,0,0,4.526-1.424.708.708,0,0,0,.109-.859,5.544,5.544,0,0,0-2.97-2.2,31.626,31.626,0,0,1-3.737-1.188l.255.256c-.163-.242-.376-.438-.562-.665l-1.12,1.454a5.463,5.463,0,0,0,1.311.55c.418.157.82.3,1.235.435a15.077,15.077,0,0,0,2.527.618,8.769,8.769,0,0,0,5.16-.632.813.813,0,0,0,.41-.716,2.944,2.944,0,0,0-1.412-2.4,11.092,11.092,0,0,0-2.852-1.089c-1.013-.317-2.044-.6-3.041-.963l-3.072-1.117.152,1.16a18.5,18.5,0,0,1,3.751-1.415c.567-.143,1.171-.3,1.308-.963a1.584,1.584,0,0,0-.831-1.5,7.078,7.078,0,0,0-3.641-1.373,10.584,10.584,0,0,0-3.88.963c-1.235.444-2.715.828-3.917.093-.517-.314-.98.486-.472.809h0Z" transform="translate(-733.088 -585.092)" fill="#010d3d"/>
        <path id="Trazado_7487" data-name="Trazado 7487" d="M618.807,597.716c.918-14.274,5.744-37.967,4.779-51.064-.46-13.973-13.889-17.351-23.884-10.615-15.287,10.481-22.157,34.878-23.971,52.546-.57,3.613-2.19,11.879.225,12.042,8.628.581,39.7,2.917,42.852-2.909Z" transform="translate(-574.669 -465.841)" fill="#64d8cc"/>
        <path id="Trazado_7488" data-name="Trazado 7488" d="M700,553.72a5.146,5.146,0,0,0,.789,1.662,1.721,1.721,0,0,0,.264.286C700.688,555.025,700.334,554.377,700,553.72Z" transform="translate(-664.812 -480.967)" fill="#fff"/>
        <path id="Trazado_7489" data-name="Trazado 7489" d="M688.984,372.468c-.584-2.064-1.378-4.054-2.092-6.076-.351-1-.682-2-.96-3.029q-.211-.779-.368-1.569c-.051-.241-.093-.486-.132-.73-.014-.081-.025-.16-.039-.244,0,0-.006-.048-.008-.079s-.011-.079-.011-.081c-.008-.081-.017-.163-.025-.247a16.28,16.28,0,0,0-.446-3.13,4.973,4.973,0,0,0-2.153-2.8,14.676,14.676,0,0,0-6.825-1.783,38.192,38.192,0,0,0-13.488,1.536,41.229,41.229,0,0,0-6.429,2.535,18.516,18.516,0,0,0-5.079,3.4,7.353,7.353,0,0,0-2.291,5.694,20.182,20.182,0,0,1,.3,3.352c0,.011-.014.076-.025.135l-.025.025c-.182.191-.382.362-.559.556a8.028,8.028,0,0,0-.955,1.263,8.171,8.171,0,0,0-.957,5.907,6.184,6.184,0,0,0,1.39,2.858,3.655,3.655,0,0,0,3.4,1,6,6,0,0,0,1.32-.4,23.715,23.715,0,0,0,9.085,14.091,21.378,21.378,0,0,0,3.655,2.173c-.045.194-.093.39-.149.581-.07.23-.152.455-.239.679,0,0-.017.045-.028.076s-.028.07-.031.073c-.056.129-.118.258-.177.387-.463.966-1.03,1.875-1.569,2.8a14.108,14.108,0,0,0-1.85,4.579.059.059,0,0,0-.02.008c.042.079.081.16.124.241a.367.367,0,0,1,.053.076c.96,1.673,1.741,3.439,2.678,5.124.309.553.637,1.1.991,1.628a.607.607,0,0,0,.109-.488,10.376,10.376,0,0,1-.109-3.434,13.772,13.772,0,0,1,.435-1.62c.034-.126.076-.253.121-.376q.038-.114.084-.227c.109-.241.23-.477.357-.71a11.562,11.562,0,0,1,.876-1.35c.025-.036.053-.07.079-.107h0l.008-.011s.011-.017.022-.031c.076-.1.154-.2.236-.292.168-.211.34-.418.514-.626q1.2-1.453,2.437-2.889c.4-.474.809-.949,1.21-1.429.152-.182.309-.359.472-.533.079-.084.163-.171.25-.25.045-.039.087-.076.132-.118l.008-.006a.081.081,0,0,0,.017-.011c.1-.067.205-.126.312-.183.02-.006.152-.065.2-.079.112-.031.227-.059.342-.081a.419.419,0,0,0,.062-.008c.048,0,.126-.006.138-.006a6.152,6.152,0,0,1,.789.017c.124.008.25.022.373.039,0,0,.045,0,.079.008s.138.02.149.02a11.979,11.979,0,0,0,3.5.16,8.355,8.355,0,0,0,2.965-1.056c4.048-2.319,5.626-6.935,6.991-11.115a30.181,30.181,0,0,0,1.586-7.185,19.441,19.441,0,0,0-.809-6.634Z" transform="translate(-626.141 -336.32)" fill="#fff"/>
        <path id="Trazado_7490" data-name="Trazado 7490" d="M720.051,503.193a.2.2,0,0,0,.036.014l.028.014-.076-.031A.017.017,0,0,0,720.051,503.193Z" transform="translate(-679.226 -444.624)" fill="#fff"/>
        <path id="Trazado_7491" data-name="Trazado 7491" d="M686.9,305.732a1.811,1.811,0,0,0-.382-.882,1.281,1.281,0,0,0-.91-.559.591.591,0,0,0-.376.118,4.506,4.506,0,0,0-2.047-1.365,8.311,8.311,0,0,0-5.059.171c-.581.171-1.151.379-1.715.6q1.044-1.449,2.092-2.895a3.524,3.524,0,0,0,.935-2.749,2.461,2.461,0,0,0-1.373-1.7,6.628,6.628,0,0,0-4.56-.048,39.833,39.833,0,0,0-5.172,1.648q-1.242.493-2.448,1.064a1.549,1.549,0,0,0-2-.952,1.066,1.066,0,0,0-.834-.059,62.721,62.721,0,0,0-17.286,9.641,59.715,59.715,0,0,0-7.12,6.595,5.308,5.308,0,0,0-1.48,2.454,6.594,6.594,0,0,0,.264,2.954,25.977,25.977,0,0,0,1.592,4.717,10.22,10.22,0,0,0,1.306,2.058c.011.1.028.2.045.286a4.56,4.56,0,0,0,.559,1.437,1.192,1.192,0,0,0,1.6.463l.16-.081a.34.34,0,0,1,.034.025,11.762,11.762,0,0,0,2.535,1.162,9.582,9.582,0,0,0,1.305.337,5.208,5.208,0,0,0,.522.076,1.111,1.111,0,0,0,.059.236,1.06,1.06,0,0,0,.994.766.513.513,0,0,0,.452-.247.808.808,0,0,0,.814-.556c.093-.272.255-.556.334-.851,1.536-.775,1.951-2.645,2.263-4.239.079-.416.154-.831.227-1.249.118-.272.236-.545.356-.814q.632-1.428,1.266-2.853c.039-.09.081-.182.121-.275.373,1.466.845,3.392,2.707,3.394,1.656,0,2.586-1.743,3.355-2.945.865-1.359,1.735-2.723,2.605-4.082.446-.7.9-1.407,1.348-2.111.09.539.143,1,.188,1.617a21.07,21.07,0,0,1,.034,2.308c-.017.385-.045.769-.081,1.154a4.929,4.929,0,0,0-.051.573c0,.216.045.43.036.643a1.1,1.1,0,0,0,1.867.772c1.37-1.407,2.2-3.268,3.341-4.852.562-.789,1.151-1.561,1.777-2.3.084-.1.171-.2.255-.306.087,1.727.174,3.453.244,5.18a1.164,1.164,0,0,0,1.011,1.14,1.182,1.182,0,0,0,1.275-.831,18.826,18.826,0,0,1,.769-1.878c.323-.615.654-1.227.955-1.85.255-.533.514-1.07.769-1.606.222.562.444,1.129.671,1.69l.253.632c.045.14.09.281.132.421a2.157,2.157,0,0,0,.584,1.008c.093.138.191.272.286.407a1.5,1.5,0,0,0,.4.584,1.244,1.244,0,0,0,1.881-.079h.008a2.089,2.089,0,0,0,1.884-1.216.208.208,0,0,1,.017-.037l.02-.008a2.248,2.248,0,0,0,1-2.5,2.375,2.375,0,0,0-1.179-1.494,3.045,3.045,0,0,1,.292-1.421,11.479,11.479,0,0,1,.918-1.6,9.323,9.323,0,0,1,1.044-1.286c.421-.441.9-.814,1.334-1.241a2.646,2.646,0,0,0,.957-2.313Z" transform="translate(-619.561 -295.63)" fill="#010d3d"/>
        <path id="Trazado_7492" data-name="Trazado 7492" d="M650.5,412.973a1.323,1.323,0,0,0-.4-1,3.654,3.654,0,0,0-.952-.66,4.6,4.6,0,0,0-2.386-.323,4.863,4.863,0,0,0-2.35.834,5.849,5.849,0,0,0-1.715,1.965c-1.7,3.187-.7,7.979,2.9,9.36,1.718.66,4.632.326,5.23-1.727a.874.874,0,0,0-1.269-.977c-.132.073-.272.124-.4.2l-.208.163c.076-.056.087-.065.025-.022s-.126.087-.194.126c-.132.079-.269.149-.4.222-.039.02-.185.07,0,0-.087.031-.177.062-.264.09a4.29,4.29,0,0,1-.458.1c.219-.036.011-.006-.045,0-.079.006-.157.008-.236.011-.16,0-.317-.008-.475-.022.045,0,.205.039,0,0-.093-.02-.188-.037-.281-.059-.155-.039-.3-.09-.452-.143.188.07-.006,0-.051-.028-.07-.034-.14-.073-.208-.112s-.143-.087-.213-.132c-.034-.022-.213-.154-.079-.048a4.138,4.138,0,0,1-.418-.382,4.044,4.044,0,0,1-.306-.348c.124.157-.076-.115-.079-.121-.039-.056-.076-.115-.112-.174-.09-.149-.174-.3-.25-.455-.031-.062-.059-.126-.09-.188.073.16-.056-.152-.07-.185a6.761,6.761,0,0,1-.269-.96c-.017-.087-.031-.171-.045-.258-.031-.194.017.241-.011-.09-.017-.191-.031-.382-.031-.573a4.843,4.843,0,0,1,.3-1.889,4.045,4.045,0,0,1,2.283-2.518,3.16,3.16,0,0,1,1.811-.087,4.406,4.406,0,0,1,.882.278,3.491,3.491,0,0,0,.533.264c.152.045.309.059.463.1a.237.237,0,0,0,.3-.227h0Z" transform="translate(-623.016 -378.282)" fill="#010d3d"/>
        <path id="Trazado_7493" data-name="Trazado 7493" d="M668.191,395.517a25.662,25.662,0,0,1,1.679,5.918l1.707-.472c-.342-1.906-.9-3.793-1.373-5.674l-1.78.491c1.219,4.86,2.667,10.2,6.55,13.656a20.259,20.259,0,0,0,6.817,3.835,25.038,25.038,0,0,0,8.417,1.662c4.93-.045,9.383-2.816,12.314-6.66,3.215-4.217,4.312-9.751,4-14.956-.354-5.789-2.254-11.281-4.52-16.573-.284-.665-.564-1.331-.851-2a.856.856,0,0,0-1.162-.306.872.872,0,0,0-.306,1.162c2.162,4.958,4.2,10.183,4.86,15.588.6,4.916.056,10.208-2.516,14.529a16.043,16.043,0,0,1-4.332,4.776,13.739,13.739,0,0,1-5.876,2.448c-.1.017-.109.017-.27.034-.138.014-.278.028-.416.039-.329.025-.657.037-.985.037a14.8,14.8,0,0,1-2.024-.138,27.464,27.464,0,0,1-4.051-.921,22.312,22.312,0,0,1-6.483-2.951,14.171,14.171,0,0,1-4.562-5.261,31.4,31.4,0,0,1-2.37-6.713c-.152-.6-.3-1.193-.449-1.788a.924.924,0,0,0-1.78.491c.469,1.878.856,3.807,1.446,5.652a.886.886,0,0,0,1.707-.472,20.14,20.14,0,0,0-2.538-5.806c-.272-.41-1.056-.157-.848.357h0Z" transform="translate(-641.909 -351.946)" fill="#010d3d"/>
        <path id="Trazado_7494" data-name="Trazado 7494" d="M702.236,362.724a6.776,6.776,0,0,0-.185-1.426,7.984,7.984,0,0,0-.536-1.345,13.279,13.279,0,0,0-1.463-2.471.716.716,0,0,0-1.289.168c-.637,2.423-1.46,5.3-3.925,6.457l.985.564-.357-6.943a.644.644,0,0,0-1.188-.323q-1.141,1.634-2.283,3.265l-1.12,1.6c-.351.5-.679,1.039-1.07,1.513-.323.4-1.294,1.452-1.859.96-.306-.267-.258-.811-.239-1.174.034-.609.1-1.218.149-1.825l.373-4.447c.056-.654-.873-.82-1.179-.32q-2.03,3.31-4.068,6.609l-1.028,1.668a6.7,6.7,0,0,1-.907,1.305,1.431,1.431,0,0,1-2.078-.219c-.817-.831-.837-2.165-.9-3.251a.612.612,0,0,0-1.2-.163c-.918,2.692-1.9,5.362-3.041,7.971q-.434.994-.882,1.979a5.329,5.329,0,0,1-.78,1.519c-.7.7-1.384-.98-1.519-1.443a.573.573,0,0,0-1.1.3,3.588,3.588,0,0,0,1.595,2.254c1.022.5,1.9-.222,2.319-1.126,1.075-2.3,2.03-4.669,2.99-7.022q.834-2.042,1.6-4.113l-1.2-.163a6.8,6.8,0,0,0,.851,3.669,3.081,3.081,0,0,0,2.853,1.4c1.317-.185,1.965-1.432,2.594-2.454l2.347-3.81q1.322-2.144,2.645-4.284l-1.179-.32-.393,4.447c-.059.674-.152,1.353-.168,2.033a2.538,2.538,0,0,0,.5,1.732c.842,1.005,2.151.606,3.032-.1a6.289,6.289,0,0,0,1.179-1.306c.444-.629.884-1.258,1.328-1.887q1.47-2.089,2.937-4.175l-1.188-.323.323,6.943a.664.664,0,0,0,.985.564c2.768-1.289,3.832-4.495,4.624-7.213l-1.289.168a24.741,24.741,0,0,1,1.48,2.319c.216.39.385.809.6,1.2s.486.783.736,1.174a.316.316,0,0,0,.584-.157h0Z" transform="translate(-642.892 -339.256)" fill="#010d3d"/>
        <path id="Trazado_7495" data-name="Trazado 7495" d="M638.632,328c-.573-1.724-1.188-3.442-1.732-5.174-.132-.421-.208-.862-.354-1.28-.163-.463-.317-.927-.477-1.39-.286-.839-.576-1.679-.876-2.513-.23-.637-.688-1.5-.4-2.184a6.367,6.367,0,0,1,1.311-1.6q1.516-1.634,3.161-3.139a54.683,54.683,0,0,1,14.726-9.6,53.572,53.572,0,0,1,9.358-3.136l-1.081-.615a1.99,1.99,0,0,1-.612,1.954c-.722.668.225,1.929,1.061,1.376a26.991,26.991,0,0,1,7.959-4.037,9.431,9.431,0,0,1,4.1-.2c.154.031.306.062.455.107.062.02.289.107.247.087a3.029,3.029,0,0,1,.317.18c-.07-.056.132.132.115.112-.07-.081.025.034.042.073l.02.036c-.034-.073-.036-.059-.006.039,0,0-.006-.067-.008-.045a.906.906,0,0,1-.157.337c-.233.373-.511.724-.769,1.081l-3.3,4.574a.88.88,0,0,0,.138,1.061.9.9,0,0,0,1.061.138,10.718,10.718,0,0,1,8.2-.977,7.547,7.547,0,0,1,.8.27,3.667,3.667,0,0,1,.75.446c.062.053.118.107.174.166.02.02.146.171.073.073.034.045.168.3.123.188-.006-.014.062.258.045.143s0,.171,0,.157c0-.045.042-.126-.017.073-.056.183.011.02-.076.191a10.407,10.407,0,0,1-1.314,1.724q-.754.914-1.561,1.783a43.992,43.992,0,0,1-3.922,3.664c-.8.674.059,2,1,1.718.241-.07.483-.14.727-.2.107-.025.213-.048.32-.07.07-.014.143-.025.213-.039-.093.008-.076.008.051-.006a5.932,5.932,0,0,1,.632-.017c.124.011.138.011.036,0a1.277,1.277,0,0,1,.149.031c.036.008.34.1.188.042a1.884,1.884,0,0,1,.267.146q.152.105.034.025c.034.031.064.062.1.093s.059.065.087.1c-.067-.087-.07-.084-.006.011.011.022.135.275.053.07.039.1.059.194.09.289a.955.955,0,0,1,.025.129c-.014-.118-.014-.118-.006,0,0,.09.006.18,0,.27,0,.059-.008.121-.014.18.014-.1.014-.109,0-.036a3.143,3.143,0,0,1-.166.576c.073-.177-.036.065-.056.1a3.247,3.247,0,0,1-.194.314c.093-.135-.045.053-.076.084q-.105.114-.219.219a1.36,1.36,0,0,1-.222.182c-.09.062-.18.121-.272.177a5.225,5.225,0,0,1-1.162.525c-.525.177-.924.415-1.46.55a.855.855,0,0,0,.455,1.648c.418-.1.969-.1,1.426-.253a9.986,9.986,0,0,0,1.409-.576,4.651,4.651,0,0,0,2.066-1.96,3.927,3.927,0,0,0,.351-2.743,2.969,2.969,0,0,0-2.016-2.066,6.025,6.025,0,0,0-3.361.219l1,1.718a34.992,34.992,0,0,0,3.816-3.681c.6-.665,1.176-1.353,1.727-2.058a9.6,9.6,0,0,0,1.508-2.285c.682-1.752-.8-3.13-2.285-3.734a11.488,11.488,0,0,0-4.857-.741,12.544,12.544,0,0,0-5.525,1.628l1.2,1.2,3.243-4.529a4.12,4.12,0,0,0,1.185-2.44,2.2,2.2,0,0,0-1.325-1.788,8.614,8.614,0,0,0-4.846-.438,16.438,16.438,0,0,0-4.711,1.536,42.023,42.023,0,0,0-4.961,2.914l1.061,1.376a3.774,3.774,0,0,0,1.067-3.661.9.9,0,0,0-1.081-.615,55.767,55.767,0,0,0-16.935,7.117A56.961,56.961,0,0,0,638.494,309q-1.706,1.52-3.282,3.178c-.525.553-1.061,1.109-1.533,1.707a3.171,3.171,0,0,0-.685,2.692A15.408,15.408,0,0,0,634,319.406c.407,1.014.769,2.066,1.247,3.046.915,1.878,1.637,3.863,2.434,5.795a.5.5,0,0,0,.6.337.485.485,0,0,0,.337-.6h0Z" transform="translate(-616.572 -294.59)" fill="#010d3d"/>
        <path id="Trazado_7496" data-name="Trazado 7496" d="M627.813,367.244c-.036-.062-.079-.121-.118-.182l.087.32a.646.646,0,0,0-.2-.494c-.056-.053-.042-.034.037.059a.737.737,0,0,0-.267-.267c-.067-.045-.051-.031.053.048a1.259,1.259,0,0,0-.191-.152,1.555,1.555,0,0,0-.314-.132,3.5,3.5,0,0,0-.674-.174,3.244,3.244,0,0,0-.9-.048,4.823,4.823,0,0,0-.57.1,1.522,1.522,0,0,0-.376.14,1.366,1.366,0,0,0-.427.424.953.953,0,0,0-.051.9.924.924,0,0,0,.654.584,1.279,1.279,0,0,0,.752-.053c.1-.039.188-.084.284-.124l-.247.1a4,4,0,0,1,.966-.261l-.241.034c.331-.042.665.034.988-.031l-.208.028c.037,0,.07,0,.1,0,.084,0,.168-.031.253-.036l-.107.02.18-.025a.646.646,0,0,0,.309-.188l-.278.163c-.056.011-.126.014-.028,0l.1-.008a.5.5,0,0,0,.427-.744h0Z" transform="translate(-610.019 -346.1)" fill="#010d3d"/>
        <path id="Trazado_7497" data-name="Trazado 7497" d="M629.5,358.358l-.031-.056c-.014-.022-.014-.025,0,0l-.039.309.014-.022a.525.525,0,0,0,0-.536l-.2-.323.087.326a.911.911,0,0,0-.146-.486l.073.174a3.528,3.528,0,0,0-.778-1.146,5.307,5.307,0,0,0-.368-.385c-.1-.079-.2-.154-.292-.227a.86.86,0,0,0-.387-.2c-.045-.011-.093-.017-.138-.025a.929.929,0,0,0-.865.227.881.881,0,0,0-.227.865c.014.048.028.1.045.143a1.243,1.243,0,0,0,.284.466c.07.076.146.149.222.216.2.174.43.323.643.48a3.38,3.38,0,0,0,.505.3,2.646,2.646,0,0,0,.421.18c.039.011.073.028.112.039a.867.867,0,0,0,.424,0l-.5-.065.357.168a.531.531,0,0,0,.536,0l.034-.025-.2.053c-.073,0,.036.028.045.034a.329.329,0,0,0,.371-.48h0Z" transform="translate(-611.706 -338.564)" fill="#010d3d"/>
        <path id="Trazado_7498" data-name="Trazado 7498" d="M716.71,415.145a1.162,1.162,0,1,0-1.162-1.162,1.174,1.174,0,0,0,1.162,1.162Z" transform="translate(-675.994 -379.626)" fill="#010d3d"/>
        <path id="Trazado_7499" data-name="Trazado 7499" d="M775.329,406.205l.017-.011.008-.006s.222-.168.233-.18a.624.624,0,0,0,.09-.118.808.808,0,0,0,.093-.121c.014-.02.025-.039.039-.059l-.185.241h0l.188-.244.121-.286a.92.92,0,0,0,.023-.477.6.6,0,0,0-.081-.3.588.588,0,0,0-.154-.264.6.6,0,0,0-.213-.213.615.615,0,0,0-.264-.154.9.9,0,0,0-.461-.1l-.317.042-.286.121-.241.188-.188.241-.121.286a.921.921,0,0,0-.023.477.6.6,0,0,0,.081.3.883.883,0,0,0,.247.385h0l-.185-.239c.014.02.025.039.039.059h0l.18.236h0l.23.18.008.006.017.014a1.092,1.092,0,0,0,1.1,0h0Z" transform="translate(-717.737 -373.216)" fill="#010d3d"/>
        <path id="Trazado_7500" data-name="Trazado 7500" d="M754.295,409.331c.219.275.41.567.646.831s.486.5.73.747c.458.46.938.9,1.412,1.342q1.449,1.356,2.914,2.7l5.907,5.41v-.879a33.005,33.005,0,0,1-4.711,3.046c-.82.446-1.657.856-2.507,1.238s-1.774.693-2.645,1.081c-.764.34-.216,1.55.561,1.331a19.321,19.321,0,0,0,2.765-1.123c.893-.413,1.749-.856,2.592-1.339a37.758,37.758,0,0,0,4.826-3.352.623.623,0,0,0,0-.879l-6.011-5.4q-1.5-1.352-3.021-2.687c-.489-.43-.974-.865-1.48-1.277a19.214,19.214,0,0,0-1.665-1.185c-.267-.171-.486.194-.314.407h0Z" transform="translate(-703.82 -376.794)" fill="#010d3d"/>
        <path id="Trazado_7501" data-name="Trazado 7501" d="M727.017,472.337a1.874,1.874,0,0,0,.09.542,4.988,4.988,0,0,0,.239.525,4.032,4.032,0,0,0,.677.879,6.254,6.254,0,0,0,1.769,1.224,9.125,9.125,0,0,0,2.139.7,11.444,11.444,0,0,0,1.2.166,3.422,3.422,0,0,0,1.185-.022.635.635,0,0,0,0-1.216,6.161,6.161,0,0,0-1.092-.076,8.781,8.781,0,0,1-.9-.1,8.377,8.377,0,0,1-1.859-.514,5.423,5.423,0,0,1-1.536-.949,6.181,6.181,0,0,1-.66-.7c-.081-.1-.163-.2-.236-.312-.11-.16-.239-.278-.357-.427a.39.39,0,0,0-.66.272h0Z" transform="translate(-684.241 -422.154)" fill="#010d3d"/>
        <path id="Trazado_7502" data-name="Trazado 7502" d="M701.365,506.052a2.7,2.7,0,0,0-.789.921c-.225.334-.444.657-.668.983-.477.691-.9,1.415-1.328,2.137-.848,1.418-1.665,2.855-2.49,4.287a.833.833,0,0,0,1.437.839c.811-1.44,1.634-2.875,2.423-4.326.39-.716.789-1.429,1.134-2.167.168-.359.337-.722.508-1.078a2.9,2.9,0,0,0,.427-1.219.441.441,0,0,0-.657-.376h0Z" transform="translate(-661.915 -446.641)" fill="#010d3d"/>
        <path id="Trazado_7503" data-name="Trazado 7503" d="M695.8,516.837a20.615,20.615,0,0,0,.314,2.078,7.509,7.509,0,0,0,.823,1.988l1.235-.955a5.867,5.867,0,0,1-1.227-3.049l-1.263.342c.708,1.581,1.3,3.2,2.117,4.731a14.654,14.654,0,0,0,3.1,4.1.666.666,0,0,0,1.123-.466c-.039-1.477-.09-2.951-.135-4.428l-.065-2.075a3.309,3.309,0,0,1,.191-1.937c.766-1.185,1.659-2.3,2.476-3.45s1.707-2.406,2.541-3.622a.837.837,0,0,0-.3-1.134.847.847,0,0,0-1.134.3q-1.967,2.876-3.846,5.812c-.3.472-.612.938-.91,1.415a2.774,2.774,0,0,0-.4,1.654c.034,1.154.081,2.3.121,3.459.048,1.336.09,2.676.14,4.012l1.123-.466a13.731,13.731,0,0,1-2.968-3.86,28.146,28.146,0,0,1-1.94-4.565c-.227-.7-1.362-.618-1.331.18a8.353,8.353,0,0,0,1.345,4,.786.786,0,1,0,1.359-.792c-.267-.612-.587-1.218-.91-1.8a19.326,19.326,0,0,1-.949-1.741c-.171-.4-.694-.084-.64.27h0Z" transform="translate(-661.639 -448.697)" fill="#010d3d"/>
        <path id="Trazado_7504" data-name="Trazado 7504" d="M689.382,542.608a2.284,2.284,0,0,0-1.092.43c-.387.208-.769.43-1.154.646-.772.432-1.572.8-2.35,1.221l1.081.441c-.255-1.05-.637-2.058-.789-3.136a6.115,6.115,0,0,1,.331-3.072c.264-.713-.887-1.2-1.23-.519a6.488,6.488,0,0,0-.531,3.532,14.583,14.583,0,0,0,.8,3.585c.146.393.668.752,1.081.441.73-.55,1.412-1.151,2.148-1.693.348-.258.7-.508,1.044-.775.312-.241.7-.463.851-.845.051-.129-.076-.247-.194-.255h0Z" transform="translate(-653.021 -469.872)" fill="#010d3d"/>
        <path id="Trazado_7505" data-name="Trazado 7505" d="M717.075,542.383a1.614,1.614,0,0,0,.935.286c.323.022.643.014.966.011.643-.006,1.286-.028,1.929-.045a.63.63,0,0,0,.6-.789,8.933,8.933,0,0,0-.769-1.991,9.59,9.59,0,0,0-.508-.868,4.208,4.208,0,0,0-.654-.921.631.631,0,0,0-.817-.048.614.614,0,0,0-.16.8,3.3,3.3,0,0,0,.382.48,2.006,2.006,0,0,1,.213.295,8.949,8.949,0,0,1,.48.845q.1.2.194.413c.031.067.034.079.014.034.017.039.034.079.048.121.031.081.062.163.09.241.11.306.2.618.281.929l.6-.789c-.657.042-1.311.079-1.968.132-.345.028-.688.056-1.03.109a1.816,1.816,0,0,0-.458.112,1.344,1.344,0,0,0-.421.272.236.236,0,0,0,.048.368h0Z" transform="translate(-677.005 -469.583)" fill="#010d3d"/>
        <path id="Trazado_7506" data-name="Trazado 7506" d="M703.761,600.956c-16.8-5.916-29.763-19.316-38.11-34.744-2.308-5.784-7.185-3.324-8.17,1.7a17.709,17.709,0,0,0,.792,8.013c5,13.569,18.418,26.11,31.523,31.9a67.8,67.8,0,0,0,6.407,2.431,3.2,3.2,0,0,0,4.155-.811c1.356-1,5.385-7.378,3.4-8.487Z" transform="translate(-634.099 -487.544)" fill="#64d8cc"/>
        <path id="Trazado_7507" data-name="Trazado 7507" d="M702.8,595.553a42.622,42.622,0,0,0-3.768-4.194c-.3-.326-.626-.646-.9-.994-.32-.4-.6-.825-.938-1.21q-.943-1.078-1.85-2.187a98.815,98.815,0,0,1-6.623-9.141c-.573-.887-1.12-1.791-1.656-2.7-.267-.455-.519-.918-.786-1.373a6.122,6.122,0,0,0-.98-1.37.373.373,0,0,0-.618.359,5.421,5.421,0,0,0,.516,1.359c.2.432.463.859.7,1.283q.7,1.246,1.446,2.471c1.005,1.654,2.036,3.268,3.161,4.843s2.316,3.072,3.526,4.554c.59.724,1.2,1.432,1.817,2.131a13.66,13.66,0,0,0,.955,1.022c.373.348.741.688,1.095,1.056a23.848,23.848,0,0,0,4.75,4.245c.093.053.219-.059.154-.154h0Z" transform="translate(-653.793 -494.312)" fill="#010d3d"/>
        <path id="Trazado_7508" data-name="Trazado 7508" d="M660.82,613.973a19.476,19.476,0,0,0,1.35,3.3c.519,1.07,1.1,2.131,1.707,3.161a63.6,63.6,0,0,0,4,6.017,60.105,60.105,0,0,0,4.63,5.559,50.806,50.806,0,0,0,5.306,4.922,17.426,17.426,0,0,0,1.665,1.207c.587.359,1.137.758,1.685,1.154s1.115.792,1.679,1.176a5.082,5.082,0,0,0,.851.463,10.242,10.242,0,0,0,.946.43c.255.081.4-.244.247-.421a7.353,7.353,0,0,0-.62-.564,7.5,7.5,0,0,0-.727-.64q-.724-.51-1.432-1.039c-.94-.7-1.763-1.516-2.645-2.285-1.788-1.558-3.563-3.145-5.242-4.821a73.139,73.139,0,0,1-9.068-10.846c-.744-1.1-1.477-2.218-2.165-3.355s-1.362-2.333-2.153-3.422c0,0-.011,0-.008,0h0Z" transform="translate(-636.632 -524.299)" fill="#010d3d"/>
        <path id="Trazado_7509" data-name="Trazado 7509" d="M743.64,588.748l.157-.157s-.008-.034-.02-.02l-.157.157s.008.034.02.02Z" transform="translate(-696.186 -506.031)" fill="#010d3d"/>
      </g>
      <g id="Grupo_5280" data-name="Grupo 5280" transform="translate(111.279 11.38)">
        <path id="Trazado_7510" data-name="Trazado 7510" d="M996.724,704.555q-.017-1.255-.079-2.51c-.042-.9-.1-1.926-1.058-2.333a5.51,5.51,0,0,0-2.507-.053c-.848.076-1.693.191-2.527.345a25.159,25.159,0,0,0-4.428,1.238c-1.393.528-2.763,1.1-4.18,1.564-2.909.949-6.07,1.783-8.3,4a1.14,1.14,0,0,0,0,1.595,1.112,1.112,0,0,0,1.157.25.969.969,0,0,0,1.019.258c.115-.039.227-.079.34-.115a1.659,1.659,0,0,0-.272,1.527,1.95,1.95,0,0,0,1.362,1.193,2.5,2.5,0,0,0,1.611-.112q.261-.105.514-.219c.081-.036.093-.042.087-.042a.706.706,0,0,0,.076-.025,2.315,2.315,0,0,1,.368-.109h.006c-.02.006-.011.008.022.008h0l.006.006.006,0h0l.006.006a.207.207,0,0,0,.014.017c.017.014.028.031.045.045h0c0,.028.073.222.065.163l.008.025h0a.039.039,0,0,1-.006.011,1.112,1.112,0,0,0-.441.876,1.143,1.143,0,0,0,.553.966c.941.6,2.024.281,3.029.065.076-.017.157-.034.236-.045l.121-.006a1.151,1.151,0,0,0,.525,1.373c1.547.73,3.192.269,4.722-.27a25.758,25.758,0,0,0,4.147-1.881c.626-.354,1.235-.738,1.825-1.148a3.857,3.857,0,0,0,1.71-1.78,8.86,8.86,0,0,0,.2-2.516c.02-.789.022-1.581.014-2.372Z" transform="translate(-972.676 -597.225)" fill="#fff"/>
        <path id="Trazado_7511" data-name="Trazado 7511" d="M1011.413,698.206c-1.4.351-2.836.4-4.251.649a11.522,11.522,0,0,0-3.5,1.129,5.77,5.77,0,0,0-2.524,2.37,2.3,2.3,0,0,0-.171,1.788,1.918,1.918,0,0,0,1.69,1.174,7.055,7.055,0,0,0,2.3-.272,10.632,10.632,0,0,0,2.235-.842l-1.367-.786a2.95,2.95,0,0,0,1,2.271,2.593,2.593,0,0,0,2.7.545.855.855,0,0,0,.219-1.306c-.345-.368-.817-.247-1.193-.328a1.034,1.034,0,0,1-.4-.166,1.139,1.139,0,0,1-.253-.23,1.182,1.182,0,0,1-.247-.786.92.92,0,0,0-1.367-.786,8.3,8.3,0,0,1-2.993.912,3.769,3.769,0,0,1-.733.031c.062.006-.124-.048-.073-.02s0-.079.008-.014a.708.708,0,0,1,.037-.343,1.739,1.739,0,0,1,.244-.517c1.061-1.623,3.125-2.28,4.916-2.684,1.322-.3,2.653-.584,3.956-.955a.435.435,0,0,0-.23-.839h0Z" transform="translate(-992.479 -596.253)" fill="#010d3d"/>
        <path id="Trazado_7512" data-name="Trazado 7512" d="M980.863,707.758a28.093,28.093,0,0,0-7.047,2.833,14.331,14.331,0,0,0-1.561,1.162,3.482,3.482,0,0,0-1.168,1.569,1.537,1.537,0,0,0,.629,1.735,2.4,2.4,0,0,0,1.741.2,19.385,19.385,0,0,0,2.288-.7l2.5-.831-.6-1.435a26.316,26.316,0,0,0-3.431,2.134,3.653,3.653,0,0,0-1.4,1.46,1.633,1.633,0,0,0,.418,1.758c1.075,1.03,2.69.455,3.917.062,1.317-.424,2.6-.957,3.874-1.491l-.949-1.628c-.994.775-1.954,1.606-2.917,2.42a2.065,2.065,0,0,0-.845,1.457,1.761,1.761,0,0,0,.935,1.553c1.109.643,2.485-.042,3.563-.438.612-.225,1.221-.46,1.842-.665s1.249-.379,1.859-.612l-1.089-1.87L981.4,718.45c-.716.722-1.583,1.673-1,2.757a2.076,2.076,0,0,0,2.092.938,22.879,22.879,0,0,0,2.8-.606,32.048,32.048,0,0,0,5.155-1.443,19.416,19.416,0,0,0,4.562-2.737,23.555,23.555,0,0,0,2.086-1.8,4.91,4.91,0,0,0,.592-.665c.154-.222.233-.4.371-.587a3.115,3.115,0,0,0,.542-1.3.479.479,0,0,0-.581-.581,2.8,2.8,0,0,0-1.005.354c-.16.1-.362.253-.489.328a5.682,5.682,0,0,0-.635.4c-.561.452-1.072.963-1.617,1.432-.272.233-.547.463-.828.688-.062.051-.124.1-.188.149-.3.239.087-.065-.093.073s-.351.261-.528.387c-.578.413-1.182.795-1.8,1.148a15.63,15.63,0,0,1-4.158,1.606c-.809.211-1.623.4-2.434.606-.407.1-.817.2-1.227.292l-.556.126c-.185.042-.006,0,.034,0-.087.006-.171.011-.258.011-.056,0-.115,0-.171-.008.3.034,0-.039-.031-.031.059-.011.264.177.2.109q-.156-.16.152.278a.4.4,0,0,1,0,.191.827.827,0,0,1-.087.185c-.009-.02.168-.171.182-.185.177-.168.351-.34.519-.514l2-2.041a1.119,1.119,0,0,0-1.089-1.87c-.983.385-1.929.865-2.909,1.263-.533.216-1.064.432-1.592.66a3.82,3.82,0,0,1-1.1.388.284.284,0,0,1-.14-.014c-.059-.017-.062-.02-.006,0,.039.039.037.039-.005-.006-.031-.118.022.039.022.053s-.025.16-.022.174q-.068.063,0-.008a.971.971,0,0,1,.107-.11c.062-.059.126-.112.194-.166.188-.154.376-.306.567-.458.809-.651,1.64-1.28,2.426-1.957a.969.969,0,0,0,.076-1.28.99.99,0,0,0-1.258-.25c-.977.474-1.957.96-2.962,1.373q-.766.316-1.55.576c-.357.118-.966.371-1.292.213a.38.38,0,0,1-.166-.154c.008.039-.008.039-.017.065a.464.464,0,0,1,.143-.191,8.244,8.244,0,0,1,1.14-.851,32.042,32.042,0,0,1,2.866-1.817.788.788,0,0,0-.6-1.435c-1.269.43-2.538.854-3.8,1.3a5.1,5.1,0,0,1-1.311.373.6.6,0,0,1-.236-.014c-.056-.014-.087-.051-.042,0-.087-.1-.048-.2.017-.334a4.324,4.324,0,0,1,1.042-1.185,9.682,9.682,0,0,1,1.247-.969,19.586,19.586,0,0,1,2.816-1.544,35.656,35.656,0,0,1,3.532-1.3c.494-.163.286-.941-.216-.786h0Z" transform="translate(-971.023 -603.124)" fill="#010d3d"/>
        <path id="Trazado_7513" data-name="Trazado 7513" d="M1199.089,581.174c-.154-9.077-3.577-17.719-8.675-25.133-5.483-9.838-14.282-17.143-24.257-22.157-4.077-2.122-8.557-3.7-13.213-3.057-4.194.62-9.091,2.344-10.413,6.817-1.738,6.264.736,12.724,2.664,18.653,2.746,9.1,5.783,18.906,6.045,28.677,0,.514.96,14.215,1.513,14.206,11.053-.194,41.086.573,45.567.194,1.85-.076.612-16.761.766-18.2Z" transform="translate(-1093.954 -475.776)" fill="#010d3d"/>
        <path id="Trazado_7514" data-name="Trazado 7514" d="M1259.126,622.91c-.444-2.591-.983-5.16-1.533-7.732a82.985,82.985,0,0,0-4.829-14.992c-.564-1.331-1.16-2.653-1.774-3.961a26.737,26.737,0,0,0-2.108-3.947c-.14-.2-.5-.087-.421.177.388,1.235.946,2.423,1.452,3.616s.98,2.384,1.44,3.588c.927,2.426,1.794,4.882,2.6,7.35a123.223,123.223,0,0,1,4.085,15.057c.556,2.889.94,5.806,1.494,8.69.053.278.5.211.489-.067a54.567,54.567,0,0,0-.9-7.783Z" transform="translate(-1170.559 -520.005)" fill="#fff"/>
        <path id="Trazado_7515" data-name="Trazado 7515" d="M1115,362.6c-.118-1.682-.764-3.383-2.521-3.911a8.079,8.079,0,0,0-2.7-.163c-.39.025-.781.059-1.168.1.752-3.493,1.305-7.067.559-10.607a11.417,11.417,0,0,0-6.129-8.178c-3.262-1.516-7.022-1.676-10.562-1.541a14.776,14.776,0,0,0-5.977,1.308,21.649,21.649,0,0,0-4.647,3.411,16.764,16.764,0,0,0-3.846,4.416,15.5,15.5,0,0,0-1.64,5.542c-.233,1.819-.261,3.647-.337,5.475q-.13,3.133-.488,6.255a88.92,88.92,0,0,1-2.328,12.084,24.923,24.923,0,0,0-1.025,5.977,10.092,10.092,0,0,0,.418,3.077,14.264,14.264,0,0,0,1.28,2.726,11.028,11.028,0,0,0,1.527,2.516,6.287,6.287,0,0,0,2.8,1.379,20.393,20.393,0,0,0,5.938.786,41.566,41.566,0,0,0,11.955-2.288c.348-.112.7-.222,1.047-.337a24.282,24.282,0,0,0,2.218,3.588c.472.634.966,1.252,1.491,1.845a14.812,14.812,0,0,0,1.727,1.575,1.2,1.2,0,0,0,.7.281,1.809,1.809,0,0,0,2.322-.573c.567-.89.129-1.811-.284-2.656-.376-.758-.775-1.51-1.185-2.252a23.821,23.821,0,0,0-2.474-4.256c.079-.09.157-.182.233-.284a14.283,14.283,0,0,0,1.247-2.179c.39-.758.755-1.53,1.1-2.308a45.791,45.791,0,0,0,3.164-10.175q.387-2.114.584-4.259a5.441,5.441,0,0,0,5.935-2.26A6.59,6.59,0,0,0,1115,362.6Z" transform="translate(-1043.785 -337.383)" fill="#fff"/>
        <path id="Trazado_7516" data-name="Trazado 7516" d="M1179.962,539.558c.264-3.42-4.144-3.942-6.688-4.377a15.68,15.68,0,0,0-9.158,2.058c-1.7.017,1.628,6.356,1.786,7.5,2.547,6.69,5.43,13.257,8.5,19.726q1.769,3.651,3.664,7.252a.653.653,0,0,0,1.207-.326q.354-5.3.576-10.6c.258-7.075.267-14.153.112-21.234Z" transform="translate(-1109.557 -478.966)" fill="#fff"/>
        <path id="Trazado_7517" data-name="Trazado 7517" d="M1190.628,566.419q-.623-1.12-1.233-2.249-.312-.581-.62-1.168a7.145,7.145,0,0,0-.474-.876,11.89,11.89,0,0,1-.789-1.174,3.135,3.135,0,0,1-.494-1.356c-.02-.96.935-1.71,1.48-2.395a2.305,2.305,0,0,0,.6-1.286,1.65,1.65,0,0,0-.312-.957,8.668,8.668,0,0,0-2.2-2.19,13.7,13.7,0,0,0-2.316-1.4,1.95,1.95,0,0,1-.848.424.408.408,0,0,1-.258-.05c-.4.75-.8,1.5-1.132,2.285a5.04,5.04,0,0,0-.592,2.645,2.15,2.15,0,0,0,1.5,1.628c.859.337,1.755.553,2.6.932a.38.38,0,0,1,.191.334q.008,2.43.146,4.857c.16,2.886.438,5.767.783,8.636q.168,1.377.359,2.749c.056.115.109.23.163.348q1.769,3.651,3.664,7.252a.652.652,0,0,0,1.207-.326q.354-5.3.576-10.6c.028-.8.053-1.609.079-2.412q-1.053-1.815-2.08-3.65Z" transform="translate(-1122.337 -490.657)" fill="#00b2e3"/>
        <path id="Trazado_7518" data-name="Trazado 7518" d="M1081.043,347.137a4.275,4.275,0,0,0-1.182.261c-.351.168-.7.362-1.036.564a13.89,13.89,0,0,0-1.87,1.362,15.056,15.056,0,0,0-3.021,3.563,17.132,17.132,0,0,0-1.9,4.644,26.773,26.773,0,0,0-.708,5.492c-.084,1.853-.079,3.686-.171,5.531s-.261,3.762-.519,5.626-.6,3.8-1.039,5.68-1.011,3.743-1.474,5.626c-.837,3.389-1.19,7.311.828,10.38,1.685,2.563,4.63,3.827,7.566,4.3a34.373,34.373,0,0,0,4.649.373,40.94,40.94,0,0,0,5.688-.219,22.516,22.516,0,0,0,9.748-3.375,15.249,15.249,0,0,0,3.6-3.257,18.841,18.841,0,0,0,2.625-4.809,44.764,44.764,0,0,0,1.687-5.236c.244-.938.46-1.881.612-2.838.073-.46.149-.929.18-1.4s-.028-.957.02-1.437c.09-.918.152-1.839.174-2.763.017-.719-1.039-.693-1.1,0-.081.91-.177,1.822-.306,2.726-.062.432-.244.837-.348,1.261-.109.446-.188.9-.284,1.353a53.71,53.71,0,0,1-1.308,5.25c-1,3.147-2.283,6.25-4.784,8.507a15.331,15.331,0,0,1-3.729,2.451,17.81,17.81,0,0,1-4.557,1.381,37.819,37.819,0,0,1-10.211.4c-.171-.017-.343-.039-.514-.059a.929.929,0,0,1-.154-.02c-.067-.011-.135-.02-.2-.031-.373-.056-.747-.124-1.117-.2a16.715,16.715,0,0,1-2.024-.522c-.3-.1-.6-.216-.893-.331s.171.081-.124-.051c-.059-.028-.121-.053-.18-.081-.18-.081-.354-.168-.528-.261a9,9,0,0,1-.834-.5l-.16-.11c-.009-.006-.261-.2-.107-.076-.14-.109-.275-.225-.407-.343a8.387,8.387,0,0,1-.68-.7,4.619,4.619,0,0,1-.559-.772,6.983,6.983,0,0,1-.845-2.114,11.609,11.609,0,0,1,0-4.677c.326-1.817.882-3.577,1.348-5.36s.854-3.613,1.193-5.438a71.428,71.428,0,0,0,1.112-11.073c.048-1.735.056-3.473.208-5.2a19.892,19.892,0,0,1,.918-4.981,13.608,13.608,0,0,1,5.312-6.682c.3-.2.618-.362.915-.559a3.639,3.639,0,0,0,.374-.348c.14-.121.281-.239.427-.357.292-.236-.039-.6-.326-.559h0Z" transform="translate(-1040.388 -343.757)" fill="#010d3d"/>
        <path id="Trazado_7519" data-name="Trazado 7519" d="M1090.231,346.195a16.014,16.014,0,0,1,1.353-1.828c.5-.508.9-1.109,1.4-1.614a20.407,20.407,0,0,1,11.651-5.952,19.044,19.044,0,0,1,9.582,1.244,13.393,13.393,0,0,1,3.967,2.37,8.977,8.977,0,0,1,2.445,3.99,24.676,24.676,0,0,1,1.075,5.834,32.447,32.447,0,0,1-.258,6.146c-.1.811,1.272,1,1.432.194a26.123,26.123,0,0,0-.463-11.592,12.144,12.144,0,0,0-2.333-4.84,12.372,12.372,0,0,0-4.06-2.973,19.972,19.972,0,0,0-19.487,1.033,19.267,19.267,0,0,0-2.069,1.628,15.9,15.9,0,0,0-1.833,1.805,16.54,16.54,0,0,0-1.547,2.072c-.225.379-.421.789-.637,1.179a7.971,7.971,0,0,0-.539,1.168c-.076.2.216.289.326.138h0Z" transform="translate(-1056.521 -335.122)" fill="#010d3d"/>
        <path id="Trazado_7520" data-name="Trazado 7520" d="M1197.339,408.9a2.627,2.627,0,0,1,3.083-.267,4.258,4.258,0,0,1,1.875,3.105,5.624,5.624,0,0,1-.663,3.947,6.6,6.6,0,0,1-1.626,1.39,4.71,4.71,0,0,1-1.873.848,4.363,4.363,0,0,1-1.974-.191,3.019,3.019,0,0,1-.887-.39,2.5,2.5,0,0,0-1.008-.508.385.385,0,0,0-.477.362c.017.865.929,1.367,1.592,1.749a4.8,4.8,0,0,0,2.415.562,5.233,5.233,0,0,0,2.574-.73,9.391,9.391,0,0,0,2.243-1.744,6.452,6.452,0,0,0,1.21-5.275,5.3,5.3,0,0,0-2.516-4.085,3.767,3.767,0,0,0-4.621.576c-.373.449.216,1.07.651.651h0Z" transform="translate(-1131.247 -386.933)" fill="#010d3d"/>
        <path id="Trazado_7521" data-name="Trazado 7521" d="M1094.194,426.988l-.008.006-.211.163-.02.017a.3.3,0,0,0-.045.039l-.034.039-.017.02c-.034.039-.065.081-.1.121a.887.887,0,0,0-.208.393c-.011.039-.02.081-.031.121l-.017.067a.792.792,0,0,0-.022.163.577.577,0,0,0,0,.309,1.581,1.581,0,0,0,.143.441,1.291,1.291,0,0,0,.688.528l.306.042a1.143,1.143,0,0,0,.581-.157l.009-.006.236-.182a.888.888,0,0,0,.242-.373.364.364,0,0,0,.059-.146.475.475,0,0,0,.011-.062,2.143,2.143,0,0,0,.065-.43.349.349,0,0,0-.02-.16.612.612,0,0,0-.022-.16c0-.008-.006-.017-.006-.028l-.017-.059v-.014l-.115-.261a.076.076,0,0,0-.011-.02c-.006-.008-.009-.017-.014-.025a.358.358,0,0,0-.084-.112c-.028-.039-.056-.076-.087-.112l-.211-.163a.761.761,0,0,0-.385-.124.509.509,0,0,0-.275,0,.761.761,0,0,0-.385.124h0Z" transform="translate(-1059.089 -401.091)" fill="#010d3d"/>
        <path id="Trazado_7522" data-name="Trazado 7522" d="M1152.859,422.018s-.23.1-.244.1l-.205.157a.746.746,0,0,0-.208.326c-.025.059-.048.118-.073.18l.1-.247a2.438,2.438,0,0,0-.126.309c-.006.025-.014.051-.02.076a1.474,1.474,0,0,1-.056.154l.112-.267c-.053.121-.1.239-.146.359a.69.69,0,0,1-.042.107l.115-.272a1.148,1.148,0,0,1-.065.132c-.006.008-.011.02-.017.028l-.008.014-.118.275-.042.309a1.325,1.325,0,0,0,.042.314c0,.008.006.02.006.028a.827.827,0,0,0,.2.382.843.843,0,0,0,.314.289l.27.112a1.138,1.138,0,0,0,.6,0,2.184,2.184,0,0,0,.309-.129,1.179,1.179,0,0,0,.416-.416c.042-.1.082-.194.124-.292a.95.95,0,0,0,.042-.124c.011-.042.022-.084.031-.126a2.087,2.087,0,0,0,.053-.413,1,1,0,0,0-.011-.129,3.971,3.971,0,0,0-.059-.4,1.23,1.23,0,0,0-.149-.348,1.044,1.044,0,0,0-.379-.387,1,1,0,0,0-.778-.1h0Z" transform="translate(-1101.06 -397.596)" fill="#010d3d"/>
        <path id="Trazado_7523" data-name="Trazado 7523" d="M1141,477.778a7.768,7.768,0,0,0,2.881-.823,12.6,12.6,0,0,0,2.572-1.539,13.005,13.005,0,0,0,3.765-4.582.657.657,0,0,0-.23-.876.646.646,0,0,0-.876.23,11.911,11.911,0,0,1-3.4,4.231,12.717,12.717,0,0,1-2.255,1.4c-.839.41-1.738.606-2.594.957-.494.2-.486,1.008.135,1Z" transform="translate(-1092.929 -432.043)" fill="#010d3d"/>
        <path id="Trazado_7524" data-name="Trazado 7524" d="M1160.468,519.679c.87,1.384,1.831,2.709,2.757,4.054.469.682.974,1.345,1.508,1.982a5.54,5.54,0,0,0,.764.8,1.706,1.706,0,0,0,1.437.334,8.694,8.694,0,0,0,2.235-.7c.623-.286,1.51-.677,1.7-1.407a1.614,1.614,0,0,0-.25-1.134c-.18-.348-.357-.668-.542-1q-.573-1.019-1.19-2.01c-.458-.73-.941-1.446-1.443-2.145-.244-.342-.5-.677-.752-1.011a6.064,6.064,0,0,0-.929-1.12.763.763,0,0,0-.988-.059.755.755,0,0,0-.194.971,6.526,6.526,0,0,0,.764.932q.345.408.682.825.691.868,1.317,1.78c.418.609.82,1.227,1.188,1.864.18.312.354.623.522.938a3.76,3.76,0,0,1,.469.969v-.371c.025-.121.146-.1.006-.042a2.2,2.2,0,0,0-.292.171,7.216,7.216,0,0,1-.657.334,7.026,7.026,0,0,1-1.314.424,4.876,4.876,0,0,1-.606.1c0-.208.256.32.065,0a2.429,2.429,0,0,0-.171-.211c-.34-.413-.713-.792-1.078-1.182-.71-.764-1.466-1.48-2.165-2.252s-1.4-1.595-2.1-2.4c-.348-.4-1.01.118-.73.564h0Z" transform="translate(-1107.238 -465.292)" fill="#010d3d"/>
        <path id="Trazado_7525" data-name="Trazado 7525" d="M1081.078,421.63a15.408,15.408,0,0,0,.292-2.092c.031-.365.053-.727.084-1.092a3.927,3.927,0,0,0,.053-.811c-.1-.713-.786-.744-1.362-.7-.707.059-1.418.126-2.125.2a84.574,84.574,0,0,0-8.51,1.336.586.586,0,0,0-.418.547c-.416,3.689-.4,9.265,3.97,10.593a4.1,4.1,0,0,0,1.533.177,4.038,4.038,0,0,0,.755-.126A.946.946,0,0,0,1076,429a.48.48,0,0,0-.328-.578,1.2,1.2,0,0,0-.868-.02,2.33,2.33,0,0,1-.592.053,3.248,3.248,0,0,1-1.286-.306,4.364,4.364,0,0,1-2.061-2.052c-1.084-2.145-.921-4.764-.629-7.075l-.418.547c2.488-.539,5-.991,7.522-1.345.615-.087,1.233-.163,1.85-.233.32-.036.64-.073.96-.107.138-.014.284-.014.418-.036a.5.5,0,0,1,.112.006c-.053-.073-.07-.059-.045.042a1.551,1.551,0,0,0,.008.41v.545c0,.317,0,.637,0,.955a15.189,15.189,0,0,0,.121,1.819c.022.163.284.152.317,0h0Z" transform="translate(-1041.436 -393.956)" fill="#00b2e3"/>
        <path id="Trazado_7526" data-name="Trazado 7526" d="M1135.395,411.766a11.127,11.127,0,0,0-.486,3.678c-.011.629-.022,1.258-.011,1.889.011.581-.042,1.165,0,1.746a6.575,6.575,0,0,0,.912,3.153,4.764,4.764,0,0,0,2.055,1.71,6.06,6.06,0,0,0,5.4-.3,8.678,8.678,0,0,0,3.658-4.686c.927-2.569.809-5.362.685-8.046a.668.668,0,0,0-.649-.649c-.228-.02-.452.031-.679.022s-.455-.022-.679-.031c-.477-.017-.952-.036-1.429-.022a27.154,27.154,0,0,0-2.782.244c-1.87.25-3.714.671-5.553,1.087-.831.188-.48,1.477.354,1.28,1.78-.421,3.563-.837,5.371-1.12.867-.135,1.738-.233,2.614-.284.452-.025.907-.051,1.359-.048a5.478,5.478,0,0,1,.679.028c.253.028.494.112.75.143l-.649-.649c.124,3.793.258,8.5-3.038,11.118a4.822,4.822,0,0,1-4.293.912,3.75,3.75,0,0,1-1.825-1.112,4.717,4.717,0,0,1-.977-2.5c-.171-1.2-.328-2.4-.4-3.61a34.361,34.361,0,0,1,.124-3.877c.014-.309-.41-.326-.508-.067h0Z" transform="translate(-1088.877 -389.138)" fill="#00b2e3"/>
        <path id="Trazado_7527" data-name="Trazado 7527" d="M1097.035,418.553a37.2,37.2,0,0,1-1.555,3.448c-.272.559-.615,1.087-.932,1.623s-.66,1.064-1.027,1.572c-.694.96-1.6,1.76-2.358,2.664-.2.244-.4.5-.6.75a6.25,6.25,0,0,0-.542.724,6.611,6.611,0,0,0-.758,1.808,5.96,5.96,0,0,0,.216,3.521,5.676,5.676,0,0,0,1.047,1.642,5.36,5.36,0,0,0,1.263,1.165,8.111,8.111,0,0,0,6.859.671,8.311,8.311,0,0,0,3.139-2.117,9.571,9.571,0,0,0,1.154-1.513,2.489,2.489,0,0,0,.514-1.825.349.349,0,0,0-.511-.208,2.067,2.067,0,0,0-.525.5c-.152.213-.272.455-.4.685a8.115,8.115,0,0,1-.848,1.221,7.328,7.328,0,0,1-2.344,1.85,6.067,6.067,0,0,1-3.021.606,4.467,4.467,0,0,1-2.662-1.12,5.086,5.086,0,0,1-.9-1.042c-.056-.087-.107-.174-.154-.267-.031-.062-.059-.124-.087-.188.02.042.064.177-.006-.02-.034-.1-.064-.191-.1-.286-.045-.129-.1-.25-.149-.376.062.157.02.039-.014-.051a5.14,5.14,0,0,1-.188-.635c-.031-.132-.053-.267-.076-.4.042.253-.005-.118-.011-.191a6,6,0,0,1,.008-.71c.014-.239-.034.135.011-.093.031-.157.065-.309.109-.463.036-.126.079-.25.121-.373,0-.006.068-.177.025-.067s.042-.09.053-.115c.121-.253.261-.494.382-.747a7.984,7.984,0,0,1,.873-1.292c.66-.854,1.373-1.861,1.993-2.824.348-.542.674-1.1.971-1.673a20.31,20.31,0,0,0,.806-1.909,14.653,14.653,0,0,0,.845-3.86c.039-.376-.505-.393-.618-.084h0Z" transform="translate(-1055.947 -394.976)" fill="#010d3d"/>
        <path id="Trazado_7528" data-name="Trazado 7528" d="M1110.786,421.6a5.693,5.693,0,0,0,1.668-.615,5.3,5.3,0,0,1,1.721-.511,3.345,3.345,0,0,1,1.6.258c.567.25,1.05.649,1.626.876.626.25,1.092-.671.64-1.1a5.652,5.652,0,0,0-1.828-1.042,3.486,3.486,0,0,0-2.03-.211,6.477,6.477,0,0,0-1.743.851c-.306.18-.612.362-.918.542a3.233,3.233,0,0,0-.876.612c-.1.118-.045.351.14.337h0Z" transform="translate(-1071.408 -395.586)" fill="#00b2e3"/>
        <path id="Trazado_7529" data-name="Trazado 7529" d="M1177.624,413.693a14.626,14.626,0,0,0,3.956-.166c1.3-.146,2.642-.3,3.956-.5.466-.073.267-.778-.194-.708-1.294.2-2.6.334-3.9.474a14.338,14.338,0,0,0-3.818.682c-.09.036-.123.2,0,.219Z" transform="translate(-1119.561 -390.641)" fill="#00b2e3"/>
        <path id="Trazado_7530" data-name="Trazado 7530" d="M1088.965,359.554a18.939,18.939,0,0,0,7.269-6.427h-.873a16.344,16.344,0,0,0,6.5,7.4.533.533,0,0,0,.775-.314,16.564,16.564,0,0,0-.752-7.735l-1.044.441c1.611,2.895,3.319,5.739,5.152,8.5q.682,1.028,1.387,2.041a4.17,4.17,0,0,0,1.446,1.564,1.385,1.385,0,0,0,1.673-.365,3.245,3.245,0,0,0,.567-1.836,16.918,16.918,0,0,0-.511-5.542l-1.12.309c.918,2.249,1.875,4.484,2.906,6.682.244.525.489,1.053.752,1.567a2.733,2.733,0,0,0,.882,1.064c.918.6,1.814-.059,2.209-.918a6.84,6.84,0,0,0,.567-1.752,18.193,18.193,0,0,0,.132-1.94c.025-.474-.71-.472-.738,0-.053.868-.14,1.732-.124,2.6s.067,1.732.157,2.6a30.428,30.428,0,0,0,.977,5.113.535.535,0,0,0,.654.371,6.555,6.555,0,0,0,2.513-1.819,5.364,5.364,0,0,0,1.252-2.889c.073-.6-.915-.722-1.053-.143a5.424,5.424,0,0,1-3,3.827l.654.371a33.926,33.926,0,0,1-1.008-4.964c-.1-.817-.171-1.64-.211-2.462-.039-.868-.109-1.735-.079-2.6h-.738a6.167,6.167,0,0,1-.4,1.794,8.035,8.035,0,0,1-.651,1.592c-.2.331-.387.415-.657.107a5.586,5.586,0,0,1-.719-1.37c-1.087-2.364-2.156-4.736-3.158-7.137-.278-.668-1.32-.438-1.12.309a15.935,15.935,0,0,1,.55,4.307c-.006.449.008,2.892-.963,1.918a11.255,11.255,0,0,1-1.179-1.623q-.623-.905-1.23-1.828-1.209-1.84-2.35-3.723-1.276-2.114-2.434-4.293a.574.574,0,0,0-1.044.441,18.03,18.03,0,0,1,.82,7.291l.792-.455a14.813,14.813,0,0,1-6.163-7c-.163-.376-.685-.278-.873,0a24.038,24.038,0,0,1-3,3.554,21.346,21.346,0,0,1-3.678,2.895.283.283,0,0,0,.284.489h0Z" transform="translate(-1055.55 -347.313)" fill="#010d3d"/>
        <path id="Trazado_7531" data-name="Trazado 7531" d="M1078.668,573.464a.01.01,0,0,0,0,.006.931.931,0,0,0-.039-.138,35.875,35.875,0,0,1-.8-3.99v.014c-1.305-6.5-2.689-12.985-3.97-19.487-.494-1.864-.632-4.214-2.094-5.593a1.441,1.441,0,0,0-1.682-.02c-.7.693-3.1,2.841-3.324,4.953-1.328,7.451-2.544,15.231-6.092,21.986a24.908,24.908,0,0,1-17.8,13.606c-1.48.472-3.6.41-4.2,2.03.208,3.658,1.2,7.244,1.881,10.832.416,1.151-.289,3.069,1.07,3.622,5.318,1.376,13.527-4.355,18.367-6.758,6.966-4.1,17.561-12.289,19.114-20.5-.045-.309-.421-.253-.424-.559Z" transform="translate(-1019.67 -485.352)" fill="#010d3d"/>
        <path id="Trazado_7532" data-name="Trazado 7532" d="M1177.228,550.637a13.04,13.04,0,0,0-1.758,3q-.362.825-.682,1.668a8.126,8.126,0,0,0-.517,1.687l.84-.342c-.25-.135-.494-.27-.753-.379-.477-.2-.882.542-.5.865.213.182.449.337.679.5a.583.583,0,0,0,.783-.2,15.345,15.345,0,0,0,.618-1.69q.274-.8.59-1.6c.424-1.064.882-2.111,1.235-3.2.093-.289-.328-.559-.531-.309h0Z" transform="translate(-1116.802 -490.059)" fill="#010d3d"/>
        <path id="Trazado_7533" data-name="Trazado 7533" d="M1190.5,549.15c-.042.385.418.848.629,1.148.25.357.522.7.8,1.033a18.167,18.167,0,0,0,1.988,2.007c.345.3.7.6,1.064.882a3.517,3.517,0,0,0,1.126.761c.525.135.873-.286,1.2-.62a3.536,3.536,0,0,0,.932-1.252.374.374,0,0,0-.458-.458,2.618,2.618,0,0,0-.893.618c-.132.123-.261.253-.39.382-.093.1-.225.281-.343.3h.286a2.3,2.3,0,0,1-.741-.469c-.258-.185-.511-.379-.755-.578-.514-.418-1.011-.856-1.485-1.32s-.915-.9-1.353-1.367c-.219-.233-.438-.463-.654-.7-.191-.213-.368-.533-.663-.592a.236.236,0,0,0-.292.222h0Z" transform="translate(-1128.88 -488.895)" fill="#010d3d"/>
        <path id="Trazado_7534" data-name="Trazado 7534" d="M1162.714,627.271c-.017-.345-.059-.688-.087-1.033-.056-.64-.123-1.277-.211-1.915q-.253-1.878-.528-3.751c-.373-2.521-.766-5.042-1.26-7.544-.14-.7-.281-1.407-.427-2.109-.152-.733-.4-1.421-.609-2.137-.011-.039-.079-.034-.073.011.07.6.076,1.207.166,1.808.1.637.219,1.272.323,1.906q.316,1.908.637,3.813.636,3.773,1.157,7.561c.1.71.191,1.421.312,2.128.056.34.112.679.168,1.022.065.393.2.752.289,1.14a.056.056,0,0,0,.109-.014c0-.295.048-.59.034-.884Z" transform="translate(-1106.597 -531.932)" fill="#fff"/>
      </g>
    </g>
  </g>
</svg>
