<svg id="Grupo_5264" data-name="Grupo 5264" xmlns="http://www.w3.org/2000/svg" xmlns:xlink="http://www.w3.org/1999/xlink" width="150" height="170.134" viewBox="0 0 150 170.134">
  <defs>
    <clipPath id="clip-path">
      <rect id="Rectángulo_3367" data-name="Rectángulo 3367" width="150" height="170.134" fill="none"/>
    </clipPath>
  </defs>
  <g id="Grupo_5264-2" data-name="Grupo 5264" clip-path="url(#clip-path)">
    <path id="Trazado_7290" data-name="Trazado 7290" d="M60.871,14.026a75.267,75.267,0,0,0-9.019.777,1.808,1.808,0,0,0-1.251,2.2c.888,3.3,2.189,6.466,3.39,9.657a1.832,1.832,0,0,0,2.2,1.251,2.051,2.051,0,0,0,1.145-.987,1.507,1.507,0,0,0,.837-.025,1.863,1.863,0,0,0,1.315-1.727c0-.073,0-.146.007-.219a1.788,1.788,0,0,0,1.243-1.7c-.08-.8-.221-1.588-.378-2.373a2.574,2.574,0,0,0,.328-1.121,4.976,4.976,0,0,0-.061-.826,1.779,1.779,0,0,0,1.549-1.75c0-.035-.01-.067-.014-.1a1.839,1.839,0,0,0-1.295-3.059" transform="translate(-20.26 -5.621)" fill="#fff"/>
    <path id="Trazado_7291" data-name="Trazado 7291" d="M54.3,27.818c-.068.129-.282.3-.395.46h.943c-2.808-4.356-3.954-9.379-4.907-14.413l-.515.907c1.3-.364,2.615-.674,3.943-.908a12.673,12.673,0,0,1,4.3-.24l-.534-.534a1.618,1.618,0,0,0,1.6,1.1c.938.1,1.26-1.149.72-1.738a1.412,1.412,0,0,0-2.119-.1l.744-.2c-2.953-.5-6.214.388-9.043,1.2a.756.756,0,0,0-.515.907,67.164,67.164,0,0,0,2.012,7.772,19.239,19.239,0,0,0,3.46,6.91c.385.425,1.025-.029.912-.531-.067-.3-.248-.4-.348-.591a.149.149,0,0,0-.255,0" transform="translate(-19.439 -4.777)" fill="#010d3d"/>
    <path id="Trazado_7292" data-name="Trazado 7292" d="M149.752,166.393c-3.574-8.24-6.5-16.758-11.145-26.729-10.432-27.977-17.053-57.29-23.447-86.4A288.219,288.219,0,0,0,107.916,22.7c-.328-1.153-17.574.485-25.16,1.138C60.353,25.768,4.734,28.026,0,31.459c-.037,1.115,12.26,76.824,18.36,106.316a279.9,279.9,0,0,0,5.591,27.917c1.648,5.1,1.678,14.057,9.066,13.338,39.513-.909,75.454-5.541,116.011-10.925,1.071-.142,1.165-.92.725-1.714" transform="translate(0 -8.937)" fill="#010d3d"/>
    <path id="Trazado_7293" data-name="Trazado 7293" d="M144.164,160.368c-7.409-12.2-11.891-25.69-14.758-39.637-5.318-18.708-8.284-37.868-12.6-56.81-1.922-8.972-4.065-17.983-6.274-26.838-2.893-2.3-10.123.114-13.842.089-23.124,1.855-46.207,4.359-69.124,8.006-1.319.417-8.14.873-7.838,1.911.288,5.22.9,10.439,1.426,15.634,1.442,16.682,5.08,33.072,8.82,49.368A432.391,432.391,0,0,0,47.3,171.183a.851.851,0,0,0,.611.611c4.631.492,9.307-.6,13.9-1.091,9.376-1.436,18.65-2.316,28.079-3.062,13.561-.7,27.048-2.337,40.488-4.176,2.7-1.151,13.55-.643,13.787-3.1" transform="translate(-7.906 -14.464)" fill="#fff"/>
    <path id="Trazado_7294" data-name="Trazado 7294" d="M64.718,31.805c-.458-.535.267-5.674.4-7.208.2-2.314.277-4.583.277-6.938,0-4.547-.147-9.141.023-13.676C70.926,3.561,76.186,1.746,81.7,1.408c4.911-.3,9.831.471,14.665.962,2.571.261,5.133.373,7.738.469-3.609,7.851-4.918,18.384-5.44,26.9-8.6,1.331-17.678,1.848-26.2,3.7-1.253.271-4.332,1.437-5.591.85-1.736-.811-1.022-3.859-1.022-5.651,0-3.9-.066-7.753-.05-11.538.014-3.361.806-9.531-.4-12.468" transform="translate(-25.879 -0.537)" fill="#fff"/>
    <path id="Trazado_7295" data-name="Trazado 7295" d="M64.8,31.017c-.189-.277-.065-1.085-.043-1.463.05-.866.147-1.73.248-2.591.232-1.974.452-3.938.55-5.925.289-5.86.2-11.728.442-17.591l-.925.925c4.942-.367,9.69-1.994,14.607-2.547,5.165-.581,10.333.162,15.47.678,2.865.288,5.733.464,8.609.584l-.677-1.18c-3.934,8.532-4.886,18.042-5.612,27.3l.623-.819c-4.763.653-9.554,1.09-14.327,1.66a86.778,86.778,0,0,0-13.108,2.174,20.484,20.484,0,0,1-2.4.579c-.446.068-1.134.21-1.485-.144a2.626,2.626,0,0,1-.366-1.729c0-.759.083-1.514.119-2.272.213-4.426-.206-8.88-.1-13.309.049-1.982.145-3.967.118-5.95a15.545,15.545,0,0,0-.826-5.488c-.327-.831-1.686-.469-1.354.373a13.12,13.12,0,0,1,.515,5c-.037,1.9-.215,3.788-.337,5.681-.295,4.556.143,9.135-.111,13.688-.087,1.56-.427,3.346.343,4.8.867,1.632,2.629,1.635,4.229,1.329,1.789-.342,3.519-.935,5.31-1.288,2.465-.486,4.949-.872,7.438-1.212,5.595-.765,11.216-1.308,16.785-2.257a.858.858,0,0,0,.623-.819,103.357,103.357,0,0,1,1.511-13.48A55.425,55.425,0,0,1,104.436,2.7a.8.8,0,0,0-.677-1.18c-2.532-.083-5.074-.161-7.6-.425-2.582-.27-5.153-.637-7.74-.86A46.385,46.385,0,0,0,80.656.114,68.873,68.873,0,0,0,73.4,1.245,83.521,83.521,0,0,1,65.074,2.52a.949.949,0,0,0-.925.925c-.047,1.549-.062,3.1-.056,4.647.005,1.461.146,2.912.176,4.372.064,3.038.232,6.112.092,9.146-.089,1.943-.325,3.863-.5,5.8-.076.859-.15,1.722-.155,2.584a2.744,2.744,0,0,0,.231,1.525c.369.515,1.226.034.861-.5" transform="translate(-25.533 0)" fill="#010d3d"/>
    <path id="Trazado_7296" data-name="Trazado 7296" d="M44.547,65.246l-.2.47c-.047.01-.028,0,.055-.02a1.209,1.209,0,0,0,.288-.062,6.68,6.68,0,0,1,.774-.07A11.174,11.174,0,0,1,47.4,65.7a13.511,13.511,0,0,0,1.823.013c1.162-.018,2.314.067,3.476.027,4.544-.157,9.018-.7,13.524-1.283,9.207-1.183,18.5-1.583,27.7-2.825q3.878-.523,7.746-1.128a35.974,35.974,0,0,0,7.609-1.6c.99-.391.978-2.083-.273-2.014-2.385.132-4.786.7-7.153,1.038-2.392.337-4.788.637-7.18.979-4.81.688-9.656,1.075-14.5,1.484-4.925.416-9.819.953-14.71,1.673-2.372.349-4.749.672-7.134.915s-4.83.222-7.223.5a38.292,38.292,0,0,0-5.277.692c-.6.155-2.978.3-2.311,1.505.3.541,1.279.165,1.027-.433" transform="translate(-17.396 -22.803)" fill="#010d3d"/>
    <path id="Trazado_7297" data-name="Trazado 7297" d="M56.324,73.959c6.021-1.227,12.258-.8,18.362-1.122,6.476-.347,12.91-.892,19.331-1.81,3.146-.45,6.446-.352,9.527-1.184,1.125-.3.639-1.917-.474-1.72-2.835.5-5.7.634-8.551.978-3.151.381-6.283.837-9.446,1.12-6.317.564-12.649.712-18.974,1.137a42.443,42.443,0,0,0-10.02,1.707.464.464,0,0,0,.246.894" transform="translate(-22.344 -27.297)" fill="#010d3d"/>
    <path id="Trazado_7298" data-name="Trazado 7298" d="M91.345,81.61c1.344.6,3.112.232,4.509.019.83-.127,1.656-.277,2.487-.4q.552-.084,1.109-.13c.418-.035.8.1,1.231.031a.735.735,0,0,0,0-1.408,2.337,2.337,0,0,0-1.111.138,10.4,10.4,0,0,1-1.156.161c-.824.129-1.643.28-2.465.421a21.857,21.857,0,0,1-2.325.3,11.23,11.23,0,0,1-2.016-.1.524.524,0,0,0-.262.97" transform="translate(-36.51 -31.942)" fill="#010d3d"/>
    <path id="Trazado_7299" data-name="Trazado 7299" d="M45.818,103.258a3.781,3.781,0,0,0-.04,1.749c.116.919.307,1.828.5,2.733a39.505,39.505,0,0,1,1.059,6.2.524.524,0,0,0,.653.5c3.282-.654,6.676-.941,9.887-1.91a.612.612,0,0,0,.363-.892c-.982-1.287-1.205-3.124-1.448-4.677a47.88,47.88,0,0,0-.838-5.088.7.7,0,0,0-.662-.5c-3.129-.117-6.172.9-9.238,1.354-.856.127-.491,1.424.358,1.3,2.949-.43,5.872-1.4,8.88-1.282l-.662-.5c.463,1.735.62,3.55.94,5.314a10.7,10.7,0,0,0,1.716,4.822l.268-1.015a95.869,95.869,0,0,1-9.838,2.088l.653.5a35.984,35.984,0,0,0-1.082-5.973c-.208-.9-.421-1.8-.577-2.708a3.751,3.751,0,0,1-.064-1.775c.183-.523-.637-.738-.827-.227" transform="translate(-18.262 -40.624)" fill="#010d3d"/>
    <path id="Trazado_7300" data-name="Trazado 7300" d="M69.7,100.259c7.275.38,14.384-2.077,21.542-2.939,3.692-.445,7.365-.939,11.039-1.523,3.638-.578,7.277-1.144,10.945-1.5a75.444,75.444,0,0,0,11.949-1.811.815.815,0,0,0-.433-1.571,67.2,67.2,0,0,1-10.562,1.656c-3.607.353-7.188.836-10.768,1.4-3.676.578-7.349,1.188-11.05,1.585-3.557.381-7.051,1.077-10.554,1.792A73.438,73.438,0,0,1,69.7,98.994a.633.633,0,0,0,0,1.264" transform="translate(-27.691 -36.426)" fill="#010d3d"/>
    <path id="Trazado_7301" data-name="Trazado 7301" d="M72.045,112.452c.655.67,2.045.218,2.9.119,1.593-.185,3.183-.4,4.775-.587,3.587-.43,7.158-.923,10.734-1.458,1.467-.219,2.933-.44,4.4-.654.988-.144.569-1.648-.415-1.5-2.948.436-5.893.893-8.839,1.338-3.423.517-6.817,1.168-10.242,1.677-.672.1-1.345.2-2.019.288-.578.077-.971.07-1.319.575a.17.17,0,0,0,.026.2" transform="translate(-28.855 -43.43)" fill="#010d3d"/>
    <path id="Trazado_7302" data-name="Trazado 7302" d="M54.041,134.89a3.781,3.781,0,0,0-.04,1.749c.116.919.307,1.828.5,2.733a39.506,39.506,0,0,1,1.059,6.2.524.524,0,0,0,.653.5c3.282-.654,6.676-.941,9.887-1.91a.612.612,0,0,0,.363-.892c-.982-1.287-1.2-3.124-1.448-4.677a47.878,47.878,0,0,0-.838-5.088.7.7,0,0,0-.662-.5c-3.129-.117-6.172.9-9.238,1.354-.856.127-.491,1.424.358,1.3,2.949-.43,5.872-1.4,8.88-1.282l-.662-.5c.463,1.735.62,3.55.94,5.314A10.7,10.7,0,0,0,65.508,144l.268-1.015a95.859,95.859,0,0,1-9.838,2.088l.653.5a35.984,35.984,0,0,0-1.082-5.973c-.208-.9-.421-1.8-.577-2.708a3.751,3.751,0,0,1-.064-1.775c.184-.523-.636-.738-.827-.227" transform="translate(-21.558 -53.302)" fill="#010d3d"/>
    <path id="Trazado_7303" data-name="Trazado 7303" d="M77.924,133.55a36.371,36.371,0,0,0,8.192-.566c2.772-.428,5.512-1.029,8.267-1.552,4.4-.834,8.862-1.149,13.237-2.122a54.24,54.24,0,0,1,6.51-1.02c1.034-.1,1.044-1.731,0-1.629a55.645,55.645,0,0,0-6.075.886c-1.535.324-3.058.687-4.608.933-2.6.412-5.227.613-7.824,1.066-2.761.482-5.5,1.059-8.256,1.588a72.139,72.139,0,0,1-9.444,1.153.632.632,0,0,0,0,1.264" transform="translate(-30.988 -50.763)" fill="#010d3d"/>
    <path id="Trazado_7304" data-name="Trazado 7304" d="M80.344,142.257c.213.075.431.168.65.221a3.425,3.425,0,0,0,1.185-.057c1.071-.128,2.142-.265,3.212-.4,3.135-.405,6.266-.836,9.4-1.246q10.589-1.384,21.151-2.949l6.725-.986c.989-.145.569-1.647-.415-1.5q-7.7,1.127-15.391,2.272c-6.882,1.011-13.74,2.157-20.623,3.166-1.295.19-2.59.378-3.887.557a5.733,5.733,0,0,0-1.384.221,7.347,7.347,0,0,0-.665.4.171.171,0,0,0,.041.308" transform="translate(-32.153 -54.238)" fill="#010d3d"/>
    <path id="Trazado_7305" data-name="Trazado 7305" d="M60.633,163.757a3.781,3.781,0,0,0-.04,1.749c.116.919.307,1.828.5,2.733a39.507,39.507,0,0,1,1.059,6.2.524.524,0,0,0,.653.5c3.282-.654,6.676-.941,9.887-1.91a.612.612,0,0,0,.363-.892c-.982-1.287-1.2-3.124-1.448-4.677a47.878,47.878,0,0,0-.838-5.088.7.7,0,0,0-.662-.5c-3.129-.117-6.172.9-9.238,1.354-.856.127-.491,1.424.358,1.3,2.949-.43,5.872-1.4,8.88-1.282l-.662-.5c.463,1.735.62,3.55.94,5.314a10.7,10.7,0,0,0,1.716,4.822l.268-1.015a95.864,95.864,0,0,1-9.838,2.088l.653.5a35.982,35.982,0,0,0-1.082-5.973c-.208-.9-.421-1.8-.577-2.708a3.751,3.751,0,0,1-.064-1.775c.184-.522-.637-.738-.827-.227" transform="translate(-24.2 -64.872)" fill="#010d3d"/>
    <path id="Trazado_7306" data-name="Trazado 7306" d="M84.516,160.759c7.275.38,14.384-2.077,21.542-2.939,3.692-.445,7.365-.939,11.039-1.523,3.638-.578,7.277-1.144,10.945-1.5a75.442,75.442,0,0,0,11.949-1.811.815.815,0,0,0-.433-1.571A67.2,67.2,0,0,1,129,153.071c-3.607.353-7.188.836-10.768,1.4-3.676.578-7.349,1.188-11.05,1.585-3.557.381-7.051,1.077-10.554,1.792a73.438,73.438,0,0,1-12.11,1.648.633.633,0,0,0,0,1.264" transform="translate(-33.629 -60.675)" fill="#010d3d"/>
    <path id="Trazado_7307" data-name="Trazado 7307" d="M86.86,172.952c.655.67,2.045.217,2.9.119,1.593-.185,3.183-.4,4.775-.587,3.587-.43,7.158-.923,10.734-1.458,1.467-.219,2.933-.44,4.4-.654.988-.144.569-1.648-.415-1.5-2.948.436-5.893.893-8.839,1.338-3.423.517-6.817,1.168-10.242,1.677-.672.1-1.345.2-2.019.288-.578.077-.971.07-1.319.575a.171.171,0,0,0,.026.2" transform="translate(-34.794 -67.679)" fill="#010d3d"/>
    <path id="Trazado_7308" data-name="Trazado 7308" d="M68.809,192.721a3.781,3.781,0,0,0-.04,1.749c.116.919.307,1.828.5,2.733a39.508,39.508,0,0,1,1.059,6.2.524.524,0,0,0,.653.5c3.282-.654,6.676-.941,9.887-1.91a.612.612,0,0,0,.363-.892c-.982-1.287-1.205-3.124-1.448-4.677a47.881,47.881,0,0,0-.838-5.088.7.7,0,0,0-.662-.5c-3.129-.117-6.172.9-9.238,1.354-.856.127-.491,1.424.358,1.3,2.949-.43,5.872-1.4,8.88-1.282l-.662-.5c.463,1.735.62,3.55.94,5.314a10.7,10.7,0,0,0,1.716,4.822l.268-1.015a95.863,95.863,0,0,1-9.838,2.088l.653.5a35.983,35.983,0,0,0-1.082-5.973c-.208-.9-.421-1.8-.577-2.708a3.751,3.751,0,0,1-.064-1.775c.184-.522-.636-.738-.827-.227" transform="translate(-27.477 -76.481)" fill="#010d3d"/>
    <path id="Trazado_7309" data-name="Trazado 7309" d="M92.693,190.928c5.562.359,11.176-1.121,16.6-2.144,2.822-.532,5.653-.841,8.5-1.208,2.788-.36,5.563-.807,8.339-1.247,3.264-.518,6.53-1.017,9.82-1.339,1.034-.1,1.044-1.731,0-1.629-5.684.554-11.3,1.629-16.949,2.416-2.822.392-5.658.635-8.467,1.121-2.761.478-5.5,1.073-8.251,1.6a67.806,67.806,0,0,1-9.588,1.165.633.633,0,0,0,0,1.264" transform="translate(-36.907 -73.489)" fill="#010d3d"/>
    <path id="Trazado_7310" data-name="Trazado 7310" d="M95.072,200.278a2.356,2.356,0,0,0,1.576.2c.854-.116,1.707-.243,2.559-.374,2.423-.372,4.84-.781,7.261-1.167,5.49-.877,10.962-1.832,16.439-2.8,1.89-.333,3.781-.679,5.68-.958.988-.144.569-1.649-.415-1.5-4.114.609-8.2,1.415-12.294,2.152-5.339.962-10.647,2.071-15.989,3.019-1.018.18-2.036.358-3.057.523a7.944,7.944,0,0,0-1.09.167,2.467,2.467,0,0,0-.67.446.171.171,0,0,0,0,.292" transform="translate(-38.072 -77.623)" fill="#010d3d"/>
    <path id="Trazado_7311" data-name="Trazado 7311" d="M51.731,103.4l-.038.041a1.041,1.041,0,0,0-.268,1.012c.268.76.588,1.5.878,2.252a18.843,18.843,0,0,0,.953,2.335,1.313,1.313,0,0,0,1.784.468,14.427,14.427,0,0,0,1.68-1.243,15.736,15.736,0,0,0,1.421-1.562c.908-1.123,1.727-2.31,2.578-3.476.144-.2.425-.575.484-.65-.09.114.113-.139.132-.161.048-.058.1-.113.147-.17.306-.348.62-.689.926-1.037.761-.864,1.69-1.832,1.744-3.039.045-1-1.452-1.745-2.124-.88-.154.2-.328.37-.479.575-.068.092-.132.185-.2.277-.041.056-.242.309-.05.071-.306.379-.626.746-.945,1.115-.658.76-1.3,1.511-1.888,2.328-.725,1.009-1.473,2.142-2.192,3.065a16.387,16.387,0,0,1-1.293,1.485,5.306,5.306,0,0,1-1.258,1.049l1.784.468c-.331-.684-.728-1.341-1.064-2.027a14.268,14.268,0,0,0-1.118-2.046v1.05l.025-.05c.5-1-.788-2.161-1.623-1.252" transform="translate(-20.593 -38.843)" fill="#ef8aab"/>
    <path id="Trazado_7312" data-name="Trazado 7312" d="M61.81,137.607q.309-.487.035-.111a.6.6,0,0,0-.1.3c-.019.155-.02.142,0-.038a.717.717,0,0,0-.028.277,1.4,1.4,0,0,0,.244.669c.181.312.375.619.57.922.055.085.106.177.169.257-.087-.111-.006-.046.037.058a3.065,3.065,0,0,0,.345.642,6.317,6.317,0,0,0,.7.839,1.186,1.186,0,0,0,1.666,0c.3-.379.446-.57.689-.883.274-.352.552-.7.821-1.059.486-.646.967-1.3,1.424-1.964a22.6,22.6,0,0,0,1.233-1.983c.426-.781,1.2-1.973.655-2.834a1.148,1.148,0,0,0-1.264-.515c-.89.254-1.134,1.36-1.532,2.1a22.778,22.778,0,0,1-1.224,1.989c-.857,1.261-1.813,2.451-2.653,3.723l1.851-.238a7.769,7.769,0,0,1-.6-.584,4.084,4.084,0,0,0-.524-.45c-.084-.061-.145-.162-.055-.049-.064-.08-.136-.153-.2-.231-.12-.139-.241-.279-.357-.422-.05-.061-.1-.123-.148-.186.094.121.011.014-.034-.046a1.8,1.8,0,0,0-.467-.524c-.137-.084-.37-.15-.125-.053a.79.79,0,0,0-.4-.109q-.489.053.128.022a.71.71,0,0,0-.854.484" transform="translate(-24.737 -52.963)" fill="#ef8aab"/>
    <path id="Trazado_7313" data-name="Trazado 7313" d="M66.243,167.215a.6.6,0,0,1-.125-.216,1.162,1.162,0,0,0,.255.452c.037.044.077.085.114.128-.189-.221.011.024.047.075.212.307.433.609.642.918s.427.641.65.955c.147.207.3.418.463.612s-.172-.262-.065-.084a2.5,2.5,0,0,0,.3.376,1.4,1.4,0,0,0,1.931,0,6.286,6.286,0,0,0,.916-1.091c.293-.379.584-.761.868-1.148.527-.718,1.029-1.454,1.526-2.194.477-.71.95-1.423,1.429-2.132.517-.763,1.337-1.689,1.249-2.671a1.192,1.192,0,0,0-1.484-1.131c-1.014.235-1.625,1.326-2.166,2.131-.491.73-.973,1.466-1.459,2.2s-.959,1.436-1.446,2.149q-.376.55-.765,1.091a8.667,8.667,0,0,0-.81,1.14l1.868-.49a1.586,1.586,0,0,0-.168-.085c.05-.029.28.246.047.029-.144-.134-.286-.27-.425-.409-.3-.3-.6-.611-.9-.911-.535-.529-1.527-1.484-2.331-.892a.775.775,0,0,0-.155,1.2" transform="translate(-26.461 -64.139)" fill="#ef8aab"/>
    <path id="Trazado_7314" data-name="Trazado 7314" d="M74.755,194.606c.044.113-.022-.21-.01-.1a2.285,2.285,0,0,0,.041.351,3.288,3.288,0,0,0,.284.566c.148.3.295.591.456.88a9.127,9.127,0,0,0,1.881,2.42,1.31,1.31,0,0,0,1.786,0,14.353,14.353,0,0,0,1.932-2.067c.6-.713,1.207-1.417,1.814-2.122a43.554,43.554,0,0,0,3.678-4.612,1.678,1.678,0,1,0-3.069-1.294c-.045.125-.055,1.425-.073.658a1.459,1.459,0,0,0,1.829,1.394l.076-.025h-.8l.141.04-1-2.467c-1.153,1.553-2.106,2.866-3.265,4.329-1.22,1.539-2.694,3.077-3.37,4.939l1.855-.755a6.368,6.368,0,0,1-1.652-1.887c-.454-.694-1.245-1.69-2.172-1.128a.79.79,0,0,0-.36.882" transform="translate(-29.947 -75.11)" fill="#ef8aab"/>
    <path id="Trazado_7315" data-name="Trazado 7315" d="M157.287,200.483c-15.954,3.025-11.608,32.52,12.212,23.055,2.921-1,4.3-4.562,5.411-7.475,1.964-5.493-1.753-13.076-6.425-15.437C164.939,199.231,160.9,199.6,157.287,200.483Z" transform="translate(-59.251 -80.039)" fill="none" stroke="#ef8aab" stroke-width="3"/>
    <path id="Trazado_7316" data-name="Trazado 7316" d="M157.047,206.874c-6.867,1.544-5.048,12.484-.966,16.423C175.68,234.387,184.319,198.447,157.047,206.874Z" transform="translate(-61.102 -82.396)" fill="none" stroke="#ef8aab" stroke-width="0.987"/>
    <path id="Trazado_7317" data-name="Trazado 7317" d="M157.732,218.568a31.307,31.307,0,0,0,4.013,5.511,1.821,1.821,0,0,0,2.52,0,6.566,6.566,0,0,0,1.023-1.489c.334-.536.7-1.058,1.088-1.559.6-.778,1.439-1.744,2.185-2.547,1.529-1.647,3.231-3.192,3.978-5.375a1.8,1.8,0,0,0-1.246-2.194,1.827,1.827,0,0,0-2.194,1.246c-.045.131-.068.2,0,.032-.044.1-.1.2-.147.3a6.891,6.891,0,0,1-.354.594c-.065.1-.134.195-.2.292-.325.463.1-.114-.107.14-.155.19-.315.376-.478.558-.647.724-1.347,1.4-2,2.117-.758.835-1.493,1.691-2.185,2.583-.418.538-.828,1.082-1.2,1.651-.148.226-.293.454-.42.693-.056.1-.107.212-.164.316-.128.231.266-.222-.1.121h2.52a11.633,11.633,0,0,1-.99-1.058c-.033-.039-.18-.224-.07-.083-.077-.1-.152-.2-.227-.3-.17-.231-.334-.464-.5-.7a10.557,10.557,0,0,0-2.251-2.768,1.685,1.685,0,0,0-1.887.133,1.668,1.668,0,0,0-.609,1.786" transform="translate(-63.185 -84.513)" fill="#ef8aab"/>
  </g>
</svg>
